{"glyphs":{"0":{"ha":987,"x_min":78,"x_max":958,"o":"m 958 699 q 926 426 958 559 q 830 196 893 293 q 662 33 758 87 q 444 -21 566 -21 q 172 59 267 -21 q 78 310 78 140 q 110 584 78 455 q 206 813 142 712 q 369 972 271 913 q 595 1030 468 1030 q 867 947 776 1030 q 958 699 958 864 m 696 689 q 668 806 696 768 q 582 844 639 844 q 481 796 528 844 q 400 659 434 748 q 355 488 370 581 q 340 320 340 395 q 368 202 340 240 q 458 165 397 165 q 561 217 516 165 q 636 351 606 270 q 681 517 665 426 q 696 689 696 608 z "},"1":{"ha":987,"x_min":93,"x_max":808,"o":"m 767 0 l 93 0 l 134 176 l 346 176 l 469 710 l 256 710 l 294 875 q 389 881 341 875 q 469 901 437 887 q 530 943 504 916 q 568 1013 555 970 l 793 1013 l 600 176 l 808 176 l 767 0 z "},"2":{"ha":987,"x_min":37,"x_max":937,"o":"m 830 0 l 37 0 l 76 167 q 288 309 189 239 q 455 434 387 378 q 610 588 561 519 q 660 718 660 656 q 621 805 660 777 q 512 833 581 833 q 368 809 441 833 q 229 742 295 785 l 207 742 l 257 966 q 408 1008 307 987 q 600 1029 509 1029 q 850 969 763 1029 q 937 789 937 909 q 871 571 937 666 q 665 365 806 477 q 531 267 595 310 q 421 193 468 223 l 875 193 l 830 0 z "},"3":{"ha":987,"x_min":23,"x_max":956,"o":"m 742 76 q 590 3 675 28 q 399 -22 505 -22 q 180 1 277 -22 q 23 55 84 24 l 71 275 l 97 274 q 235 203 159 230 q 387 177 312 177 q 557 218 496 177 q 618 335 618 259 q 607 387 618 367 q 568 419 595 408 q 496 436 540 432 q 399 439 453 439 l 343 439 l 382 618 l 439 618 q 634 649 578 618 q 689 741 689 679 q 643 812 689 789 q 514 836 596 836 q 366 813 444 836 q 228 760 289 791 l 203 761 l 250 979 q 400 1015 310 999 q 576 1031 490 1031 q 731 1018 663 1031 q 848 978 800 1004 q 928 907 900 950 q 956 800 956 865 q 935 691 956 739 q 878 613 913 644 q 798 563 843 583 q 711 534 753 543 l 709 524 q 832 465 783 512 q 882 344 882 418 q 844 191 882 260 q 742 76 806 122 z "},"4":{"ha":987,"x_min":23,"x_max":941,"o":"m 899 233 l 761 233 l 707 -3 l 458 -3 l 512 233 l 23 233 l 67 424 l 675 1010 l 940 1010 l 804 417 l 941 417 l 899 233 m 555 417 l 637 775 l 268 417 l 555 417 z "},"5":{"ha":987,"x_min":33,"x_max":1013,"o":"m 747 76 q 586 3 678 28 q 391 -21 494 -21 q 175 -3 264 -21 q 33 40 86 15 l 84 263 l 113 263 q 243 199 178 220 q 382 178 309 178 q 558 218 492 178 q 625 344 625 259 q 570 440 625 408 q 401 473 515 473 q 294 463 351 473 q 193 440 238 454 l 163 440 l 294 1010 l 1013 1010 l 968 817 l 494 817 l 456 652 q 481 652 466 652 q 517 652 496 652 q 662 638 594 652 q 783 592 730 624 q 867 509 836 560 q 898 382 898 458 q 857 201 898 278 q 747 76 816 125 z "},"6":{"ha":987,"x_min":90,"x_max":942,"o":"m 464 -22 q 312 -2 380 -22 q 193 60 243 18 q 117 170 144 103 q 90 332 90 237 q 134 612 90 485 q 261 832 178 739 q 463 976 342 924 q 728 1029 583 1029 q 850 1020 782 1029 q 942 1004 918 1010 l 907 807 l 882 808 q 819 831 866 817 q 712 845 772 845 q 514 787 596 845 q 390 610 433 730 q 502 654 442 636 q 627 671 562 671 q 840 601 762 671 q 918 405 918 531 q 788 100 918 221 q 464 -22 659 -22 m 650 366 q 608 468 650 436 q 486 500 566 500 q 419 493 452 500 q 366 480 387 486 q 352 410 358 452 q 347 336 347 369 q 378 195 347 241 q 483 150 409 150 q 601 211 551 150 q 650 366 650 271 z "},"7":{"ha":987,"x_min":62,"x_max":1042,"o":"m 998 816 l 357 0 l 62 0 l 725 823 l 208 823 l 251 1010 l 1042 1010 l 998 816 z "},"8":{"ha":987,"x_min":43,"x_max":979,"o":"m 979 804 q 919 652 979 720 q 747 544 859 585 l 746 540 q 867 453 823 503 q 910 326 910 403 q 778 73 910 169 q 444 -23 646 -23 q 151 45 258 -23 q 43 231 43 113 q 105 405 43 333 q 296 520 168 477 l 297 524 q 198 607 231 564 q 165 714 165 650 q 193 835 165 779 q 276 937 220 891 q 412 1007 330 981 q 598 1033 493 1033 q 878 970 777 1033 q 979 804 979 908 m 718 763 q 680 836 718 810 q 584 862 642 862 q 472 829 514 862 q 429 747 429 796 q 447 696 429 716 q 505 656 465 676 q 554 634 524 647 q 627 606 585 621 q 691 680 665 640 q 718 763 718 719 m 646 288 q 627 348 646 323 q 547 404 608 372 q 487 430 527 414 q 419 459 447 447 q 336 372 363 417 q 309 279 309 328 q 354 184 309 218 q 473 150 400 150 q 594 189 541 150 q 646 288 646 227 z "},"9":{"ha":987,"x_min":88,"x_max":941,"o":"m 941 677 q 896 398 941 528 q 769 177 851 268 q 569 32 685 83 q 302 -20 453 -20 q 178 -11 244 -20 q 88 5 111 -1 l 123 202 l 149 201 q 209 178 165 192 q 318 164 253 164 q 519 224 437 164 q 640 399 600 285 q 529 354 578 370 q 404 338 479 338 q 190 409 267 338 q 113 604 113 480 q 245 911 113 791 q 566 1031 378 1031 q 717 1011 648 1031 q 837 949 786 992 q 914 837 888 905 q 941 677 941 769 m 684 673 q 652 814 684 768 q 547 859 621 859 q 430 799 479 859 q 380 644 380 738 q 422 541 380 573 q 544 509 465 509 q 607 515 574 509 q 665 529 640 521 q 678 598 673 562 q 684 673 684 633 z "}," ":{"ha":475,"x_min":0,"x_max":0,"o":""},"!":{"ha":559,"x_min":54,"x_max":566,"o":"m 566 1010 l 369 291 l 148 291 l 283 1010 l 566 1010 m 328 0 l 54 0 l 96 179 l 370 179 l 328 0 z "},"\"":{"ha":816,"x_min":205,"x_max":846,"o":"m 846 1055 l 713 656 l 560 656 l 612 1055 l 846 1055 m 492 1055 l 359 656 l 205 656 l 257 1055 l 492 1055 z "},"#":{"ha":1204,"x_min":78,"x_max":1163,"o":"m 1137 614 l 923 614 l 837 403 l 1028 403 l 1002 240 l 770 240 l 671 0 l 507 0 l 606 240 l 427 240 l 328 0 l 162 0 l 261 240 l 78 240 l 104 403 l 328 403 l 413 614 l 214 614 l 240 776 l 479 776 l 574 1010 l 741 1010 l 646 776 l 824 776 l 920 1010 l 1086 1010 l 990 776 l 1163 776 l 1137 614 m 760 615 l 578 615 l 490 401 l 673 401 l 760 615 z "},"$":{"ha":987,"x_min":33,"x_max":945,"o":"m 469 1 l 412 -245 l 294 -245 l 350 -3 q 177 16 271 -2 q 33 60 83 33 l 79 258 l 109 258 q 233 205 157 227 q 395 177 309 184 l 439 370 q 213 455 282 406 q 144 589 144 504 q 249 810 144 730 q 561 911 353 890 l 597 1069 l 715 1069 l 679 912 q 821 895 741 909 q 945 860 901 880 l 900 665 l 870 665 q 769 711 827 692 q 638 734 711 729 l 597 555 q 824 469 753 520 q 895 328 895 418 q 783 100 895 183 q 469 1 671 16 m 531 734 q 431 705 467 729 q 395 642 395 680 q 421 598 395 616 q 494 573 448 581 l 531 734 m 637 275 q 617 323 637 306 q 547 351 597 341 l 507 180 q 603 209 568 186 q 637 275 637 232 z "},"%":{"ha":1767,"x_min":144,"x_max":1666,"o":"m 777 787 q 681 485 777 599 q 422 371 585 371 q 214 433 284 371 q 144 618 144 496 q 241 918 144 806 q 499 1029 338 1029 q 706 967 635 1029 q 777 787 777 905 m 578 773 q 555 857 578 829 q 486 885 532 885 q 384 812 425 885 q 342 627 342 739 q 366 543 342 571 q 435 515 389 515 q 539 592 500 515 q 578 773 578 669 m 1666 395 q 1570 93 1666 207 q 1311 -21 1474 -21 q 1103 41 1173 -21 q 1033 227 1033 104 q 1130 526 1033 414 q 1388 637 1227 637 q 1595 575 1525 637 q 1666 395 1666 513 m 1468 381 q 1444 465 1468 437 q 1375 493 1421 493 q 1273 420 1314 493 q 1232 235 1232 347 q 1255 151 1232 179 q 1324 123 1278 123 q 1429 200 1390 123 q 1468 381 1468 277 m 1352 1010 l 644 0 l 460 0 l 1168 1010 l 1352 1010 z "},"&":{"ha":1198,"x_min":54,"x_max":1143,"o":"m 1141 0 l 818 0 l 741 85 q 565 2 650 25 q 410 -21 479 -21 q 150 50 246 -21 q 54 240 54 120 q 73 348 54 298 q 127 437 92 397 q 207 508 160 477 q 309 566 254 539 q 235 656 257 612 q 212 752 212 701 q 238 859 212 809 q 314 948 264 909 q 438 1008 362 985 q 607 1030 515 1030 q 844 979 758 1030 q 930 838 930 928 q 913 755 930 798 q 863 677 897 712 q 774 609 828 640 q 640 553 720 577 l 809 371 l 856 589 l 1109 589 l 1093 514 q 1033 361 1074 431 q 932 239 992 292 l 1143 14 l 1141 0 m 671 804 q 650 865 671 843 q 585 887 629 887 q 503 860 536 887 q 470 782 470 832 q 494 713 470 749 q 560 638 518 676 q 641 715 610 671 q 671 804 671 760 m 646 200 l 411 457 q 351 387 372 425 q 331 308 331 350 q 373 196 331 239 q 496 153 416 153 q 572 163 538 153 q 646 200 606 174 z "},"'":{"ha":461,"x_min":205,"x_max":492,"o":"m 492 1055 l 359 656 l 205 656 l 257 1055 l 492 1055 z "},"(":{"ha":755,"x_min":103,"x_max":792,"o":"m 792 1036 q 609 866 693 959 q 463 670 525 774 q 366 448 401 565 q 331 208 331 330 q 368 -42 331 68 q 494 -260 404 -152 l 494 -279 l 254 -279 q 140 -62 177 -168 q 103 182 103 44 q 219 649 103 420 q 541 1055 336 878 l 792 1055 l 792 1036 z "},")":{"ha":755,"x_min":-36,"x_max":653,"o":"m 653 593 q 537 127 653 356 q 215 -279 420 -102 l -36 -279 l -36 -260 q 147 -91 63 -183 q 293 106 231 2 q 390 328 355 211 q 425 568 425 446 q 389 818 425 707 q 262 1036 352 928 l 262 1055 l 503 1055 q 616 838 579 943 q 653 593 653 732 z "},"*":{"ha":987,"x_min":207,"x_max":918,"o":"m 918 567 l 842 455 l 625 603 l 633 362 l 488 362 l 494 597 l 281 454 l 207 567 l 448 709 l 208 852 l 281 965 l 493 821 l 488 1055 l 632 1055 l 627 820 l 842 963 l 917 850 l 674 709 l 918 567 z "},"+":{"ha":1204,"x_min":163,"x_max":1072,"o":"m 1072 358 l 710 358 l 710 0 l 524 0 l 524 358 l 163 358 l 163 540 l 524 540 l 524 898 l 710 898 l 710 540 l 1072 540 l 1072 358 z "},",":{"ha":502,"x_min":-120,"x_max":396,"o":"m 396 267 l 31 -251 l -120 -251 l 132 267 l 396 267 z "},"-":{"ha":667,"x_min":68,"x_max":630,"o":"m 585 351 l 68 351 l 113 547 l 630 547 l 585 351 z "},".":{"ha":502,"x_min":36,"x_max":352,"o":"m 291 0 l 36 0 l 97 267 l 352 267 l 291 0 z "},"/":{"ha":958,"x_min":-26,"x_max":951,"o":"m 951 1055 l 189 -220 l -26 -220 l 734 1055 l 951 1055 z "},":":{"ha":559,"x_min":65,"x_max":495,"o":"m 434 495 l 179 495 l 240 762 l 495 762 l 434 495 m 320 0 l 65 0 l 126 267 l 381 267 l 320 0 z "},";":{"ha":559,"x_min":-94,"x_max":495,"o":"m 434 495 l 179 495 l 240 762 l 495 762 l 434 495 m 422 267 l 58 -251 l -94 -251 l 158 267 l 422 267 z "},"<":{"ha":1204,"x_min":153,"x_max":1059,"o":"m 1059 -5 l 153 372 l 153 526 l 1059 903 l 1059 708 l 425 448 l 1059 190 l 1059 -5 z "},"=":{"ha":1204,"x_min":184,"x_max":1050,"o":"m 1050 536 l 184 536 l 184 718 l 1050 718 l 1050 536 m 1050 180 l 184 180 l 184 361 l 1050 361 l 1050 180 z "},">":{"ha":1204,"x_min":175,"x_max":1081,"o":"m 1081 372 l 175 -5 l 175 190 l 809 449 l 175 708 l 175 903 l 1081 526 l 1081 372 z "},"?":{"ha":857,"x_min":157,"x_max":876,"o":"m 876 787 q 787 576 876 670 q 508 412 698 482 l 475 271 l 236 271 l 290 506 q 520 604 442 545 q 597 737 597 663 q 561 818 597 791 q 455 844 524 844 q 340 823 401 844 q 215 765 279 802 l 188 765 l 236 972 q 370 1013 291 995 q 542 1030 450 1030 q 788 966 701 1030 q 876 787 876 903 m 473 179 l 431 0 l 157 0 l 199 179 l 473 179 z "},"@":{"ha":1339,"x_min":106,"x_max":1263,"o":"m 1112 94 l 754 94 l 754 147 q 677 105 712 120 q 585 91 643 91 q 431 158 490 91 q 373 342 373 224 q 473 646 373 519 q 713 773 574 773 q 794 759 758 773 q 854 722 830 745 l 863 764 l 1020 764 l 912 210 l 1035 210 q 1102 371 1080 286 q 1124 543 1124 456 q 1030 809 1124 712 q 760 907 936 907 q 571 865 663 907 q 406 747 479 823 q 293 571 335 673 q 250 353 250 469 q 279 185 250 257 q 357 66 309 113 q 476 -8 408 17 q 623 -33 543 -33 q 759 -21 681 -33 q 890 5 838 -9 l 871 -126 q 742 -148 805 -140 q 605 -155 679 -155 q 244 -22 382 -155 q 106 338 106 111 q 158 599 106 475 q 299 820 209 724 q 512 972 388 915 q 776 1029 635 1029 q 1131 895 998 1029 q 1263 546 1263 760 q 1220 301 1263 425 q 1112 94 1176 178 m 764 274 l 830 612 q 783 634 809 626 q 722 643 756 643 q 595 560 647 643 q 543 355 543 477 q 568 251 543 283 q 645 220 592 220 q 705 234 676 220 q 764 274 734 248 z "},"A":{"ha":1078,"x_min":-63,"x_max":984,"o":"m 984 0 l 722 0 l 699 206 l 327 206 l 209 0 l -63 0 l 543 1010 l 844 1010 l 984 0 m 679 387 l 638 750 l 430 387 l 679 387 z "},"B":{"ha":1058,"x_min":40,"x_max":1017,"o":"m 1017 781 q 966 629 1017 689 q 812 538 916 569 l 810 533 q 935 465 892 509 q 977 338 977 420 q 847 90 977 179 q 477 0 716 0 l 40 0 l 273 1010 l 642 1010 q 920 950 824 1010 q 1017 781 1017 890 m 741 740 q 706 805 741 785 q 608 825 671 825 l 491 825 l 441 611 l 560 611 q 693 644 646 611 q 741 740 741 677 m 712 332 q 670 412 712 387 q 538 437 628 437 l 401 437 l 343 185 l 475 185 q 650 222 589 185 q 712 332 712 260 z "},"C":{"ha":1005,"x_min":80,"x_max":1069,"o":"m 507 -20 q 191 81 302 -20 q 80 370 80 182 q 129 639 80 518 q 264 848 178 760 q 466 981 349 933 q 713 1029 584 1029 q 907 1008 818 1029 q 1069 945 997 987 l 1009 701 l 979 701 q 851 802 915 770 q 701 835 787 835 q 452 713 550 835 q 354 404 354 592 q 408 229 354 283 q 567 175 463 175 q 743 213 661 175 q 898 309 825 250 l 925 309 l 866 67 q 795 38 836 55 q 717 9 754 20 q 626 -12 668 -5 q 507 -20 583 -20 z "},"D":{"ha":1153,"x_min":40,"x_max":1128,"o":"m 1128 616 q 1038 299 1128 444 q 806 77 947 154 q 628 15 721 31 q 406 0 535 0 l 40 0 l 273 1010 l 600 1010 q 833 987 745 1010 q 975 927 921 965 q 1089 799 1050 876 q 1128 616 1128 722 m 855 592 q 829 711 855 661 q 751 791 804 761 q 701 812 726 805 q 643 823 675 819 q 572 825 612 825 q 502 825 532 825 l 493 825 l 344 185 l 368 185 q 452 185 407 185 q 524 189 496 185 q 589 199 560 192 q 652 224 618 207 q 803 374 750 275 q 855 592 855 474 z "},"E":{"ha":949,"x_min":40,"x_max":1005,"o":"m 1005 1010 l 961 819 l 490 819 l 448 638 l 885 638 l 840 446 l 403 446 l 344 191 l 815 191 l 772 0 l 40 0 l 273 1010 l 1005 1010 z "},"F":{"ha":903,"x_min":40,"x_max":998,"o":"m 998 1010 l 952 814 l 488 814 l 445 627 l 875 627 l 830 431 l 400 431 l 300 0 l 40 0 l 273 1010 l 998 1010 z "},"G":{"ha":1126,"x_min":80,"x_max":1141,"o":"m 538 -21 q 202 81 323 -21 q 80 370 80 182 q 268 845 80 661 q 745 1029 456 1029 q 947 1011 854 1029 q 1141 940 1040 992 l 1083 703 l 1054 703 q 900 811 972 781 q 740 841 827 841 q 579 805 651 841 q 456 707 507 768 q 381 568 408 648 q 354 401 354 488 q 420 222 354 279 q 637 165 487 165 q 669 165 652 165 q 702 168 687 166 l 748 366 l 547 366 l 591 556 l 1057 556 l 941 58 q 749 3 851 26 q 538 -21 647 -21 z "},"H":{"ha":1163,"x_min":40,"x_max":1180,"o":"m 1180 1010 l 947 0 l 685 0 l 788 446 l 405 446 l 302 0 l 40 0 l 273 1010 l 535 1010 l 449 638 l 832 638 l 918 1010 l 1180 1010 z "},"I":{"ha":758,"x_min":-5,"x_max":820,"o":"m 587 0 l -5 0 l 37 179 l 201 179 l 352 831 l 187 831 l 229 1010 l 820 1010 l 779 831 l 614 831 l 463 179 l 628 179 l 587 0 z "},"J":{"ha":771,"x_min":-58,"x_max":801,"o":"m 644 333 q 489 70 603 155 q 177 -16 375 -16 q 46 -11 104 -16 q -58 4 -12 -5 l -10 213 l 14 213 q 76 191 43 201 q 164 180 109 180 q 319 229 268 180 q 404 422 371 279 l 496 824 l 266 824 l 309 1010 l 801 1010 l 644 333 z "},"K":{"ha":1071,"x_min":40,"x_max":1197,"o":"m 994 0 l 707 0 l 480 409 l 375 317 l 302 0 l 40 0 l 273 1010 l 534 1010 l 432 565 l 888 1010 l 1197 1010 l 687 540 l 994 0 z "},"L":{"ha":885,"x_min":40,"x_max":814,"o":"m 769 0 l 40 0 l 273 1010 l 535 1010 l 347 195 l 814 195 l 769 0 z "},"M":{"ha":1316,"x_min":40,"x_max":1333,"o":"m 1100 0 l 840 0 l 992 661 l 715 237 l 535 237 l 446 688 l 287 0 l 40 0 l 273 1010 l 572 1010 l 683 503 l 1026 1010 l 1333 1010 l 1100 0 z "},"N":{"ha":1176,"x_min":40,"x_max":1193,"o":"m 960 0 l 738 0 l 441 699 l 280 0 l 40 0 l 273 1010 l 565 1010 l 819 425 l 953 1010 l 1193 1010 l 960 0 z "},"O":{"ha":1181,"x_min":80,"x_max":1158,"o":"m 1158 634 q 1116 390 1158 510 q 994 180 1074 270 q 789 31 906 83 q 521 -21 673 -21 q 197 86 314 -21 q 80 380 80 193 q 125 630 80 511 q 253 839 170 749 q 454 979 334 926 q 716 1031 574 1031 q 1041 924 924 1031 q 1158 634 1158 817 m 785 290 q 858 430 831 350 q 884 613 884 509 q 832 783 884 722 q 684 844 780 844 q 563 815 621 844 q 458 728 506 787 q 382 588 411 671 q 354 399 354 504 q 407 224 354 283 q 555 165 460 165 q 680 198 620 165 q 785 290 741 230 z "},"P":{"ha":1018,"x_min":40,"x_max":1044,"o":"m 1044 730 q 895 439 1044 550 q 477 329 745 329 l 378 329 l 302 0 l 40 0 l 273 1010 l 636 1010 q 809 996 735 1010 q 936 949 882 983 q 1017 863 989 916 q 1044 730 1044 810 m 766 705 q 724 793 766 764 q 597 821 681 821 l 492 821 l 422 519 l 515 519 q 700 567 634 519 q 766 705 766 616 z "},"Q":{"ha":1181,"x_min":80,"x_max":1158,"o":"m 1158 634 q 1133 445 1158 540 q 1057 267 1109 350 q 933 122 1008 186 q 764 22 859 57 q 760 -1 762 12 q 759 -26 759 -14 q 788 -93 759 -72 q 886 -113 817 -113 q 955 -104 916 -113 q 1011 -87 994 -95 l 1037 -87 l 996 -266 q 914 -281 956 -275 q 800 -288 873 -288 q 590 -235 661 -288 q 519 -80 519 -181 q 521 -49 519 -63 q 525 -21 523 -35 q 523 -21 524 -21 q 521 -21 522 -21 q 197 86 314 -21 q 80 380 80 193 q 125 630 80 511 q 253 839 170 749 q 454 979 334 926 q 716 1031 574 1031 q 1041 924 924 1031 q 1158 634 1158 817 m 785 290 q 858 430 831 350 q 884 613 884 509 q 832 783 884 722 q 684 844 780 844 q 563 815 621 844 q 458 728 506 787 q 382 588 411 671 q 354 399 354 504 q 407 224 354 283 q 555 165 460 165 q 680 198 620 165 q 785 290 741 230 z "},"R":{"ha":1086,"x_min":40,"x_max":1055,"o":"m 1055 755 q 981 551 1055 634 q 780 427 907 469 l 1013 0 l 722 0 l 532 370 l 386 370 l 300 0 l 40 0 l 273 1010 l 667 1010 q 954 947 852 1010 q 1055 755 1055 884 m 774 712 q 735 799 774 773 q 620 824 696 824 l 491 824 l 428 552 l 556 552 q 717 594 660 552 q 774 712 774 637 z "},"S":{"ha":987,"x_min":5,"x_max":1014,"o":"m 411 -18 q 180 4 281 -18 q 5 60 79 26 l 57 302 l 85 302 q 250 203 155 238 q 452 168 344 168 q 616 198 564 168 q 668 285 668 229 q 660 321 668 306 q 627 351 651 336 q 560 381 602 366 q 450 414 517 395 q 318 458 376 435 q 218 515 259 482 q 155 591 176 548 q 134 695 134 635 q 268 938 134 847 q 634 1028 401 1028 q 845 1010 746 1028 q 1014 960 945 991 l 964 728 l 937 728 q 797 809 884 777 q 608 842 711 842 q 453 813 508 842 q 398 732 398 784 q 406 693 398 709 q 439 663 414 677 q 508 633 461 649 q 618 600 555 617 q 860 494 787 555 q 932 328 932 433 q 893 174 932 241 q 785 66 854 108 q 620 2 712 22 q 411 -18 528 -18 z "},"T":{"ha":947,"x_min":129,"x_max":1065,"o":"m 1020 814 l 705 814 l 517 0 l 256 0 l 444 814 l 129 814 l 174 1010 l 1065 1010 l 1020 814 z "},"U":{"ha":1128,"x_min":100,"x_max":1160,"o":"m 1160 1010 l 1013 379 q 846 75 964 170 q 504 -20 728 -20 q 202 52 304 -20 q 100 269 100 123 q 104 329 100 298 q 115 385 109 359 l 260 1010 l 523 1010 l 378 384 q 370 342 373 365 q 367 304 367 319 q 405 208 367 241 q 532 175 444 175 q 672 222 618 175 q 748 370 725 270 l 897 1010 l 1160 1010 z "},"V":{"ha":1061,"x_min":161,"x_max":1190,"o":"m 1190 1010 l 588 0 l 296 0 l 161 1010 l 428 1010 l 509 289 l 911 1010 l 1190 1010 z "},"W":{"ha":1567,"x_min":190,"x_max":1668,"o":"m 1668 1010 l 1177 0 l 897 0 l 854 669 l 526 0 l 236 0 l 190 1010 l 462 1010 l 464 315 l 803 1010 l 1063 1010 l 1093 315 l 1402 1010 l 1668 1010 z "},"X":{"ha":1061,"x_min":-72,"x_max":1184,"o":"m 414 521 l 169 1010 l 452 1010 l 601 692 l 896 1010 l 1184 1010 l 709 507 l 956 0 l 672 0 l 521 336 l 216 0 l -72 0 l 414 521 z "},"Y":{"ha":1023,"x_min":152,"x_max":1163,"o":"m 1163 1010 l 648 391 l 558 0 l 296 0 l 384 378 l 152 1010 l 431 1010 l 560 614 l 862 1010 l 1163 1010 z "},"Z":{"ha":961,"x_min":-28,"x_max":1026,"o":"m 820 0 l -28 0 l 15 186 l 682 818 l 185 818 l 229 1010 l 1026 1010 l 982 821 l 317 192 l 865 192 l 820 0 z "},"[":{"ha":755,"x_min":18,"x_max":777,"o":"m 471 -266 l 18 -266 l 323 1055 l 777 1055 l 739 892 l 498 892 l 269 -103 l 509 -103 l 471 -266 z "},"\\":{"ha":958,"x_min":250,"x_max":764,"o":"m 764 -220 l 563 -220 l 250 1055 l 454 1055 l 764 -220 z "},"]":{"ha":755,"x_min":-16,"x_max":743,"o":"m 437 -266 l -16 -266 l 22 -103 l 263 -103 l 492 892 l 252 892 l 290 1055 l 743 1055 l 437 -266 z "},"^":{"ha":1204,"x_min":166,"x_max":1104,"o":"m 1104 435 l 887 435 l 624 820 l 382 434 l 166 434 l 539 1010 l 708 1010 l 1104 435 z "},"_":{"ha":987,"x_min":-153,"x_max":888,"o":"m 888 -94 l 856 -237 l -153 -237 l -121 -94 l 888 -94 z "},"`":{"ha":987,"x_min":375,"x_max":722,"o":"m 722 870 l 569 870 l 375 1123 l 375 1137 l 606 1137 l 722 870 z "},"a":{"ha":928,"x_min":13,"x_max":860,"o":"m 572 359 q 450 347 507 354 q 353 325 393 339 q 290 283 311 310 q 268 211 268 256 q 297 156 268 172 q 380 140 326 140 q 457 156 416 140 q 534 199 498 173 l 572 359 m 507 81 q 452 45 484 66 q 391 12 419 24 q 320 -12 353 -4 q 228 -20 287 -20 q 73 33 133 -20 q 13 172 13 86 q 56 325 13 262 q 182 425 98 387 q 370 475 261 460 q 606 498 479 491 q 608 512 606 503 q 610 532 610 521 q 566 600 610 581 q 432 619 521 619 q 299 599 372 619 q 189 565 226 578 l 167 565 l 203 745 q 335 770 245 756 q 513 783 425 783 q 776 736 692 783 q 860 591 860 690 q 858 556 860 578 q 851 518 855 534 l 732 0 l 489 0 l 507 81 z "},"b":{"ha":971,"x_min":27,"x_max":927,"o":"m 927 518 q 893 317 927 414 q 802 146 860 219 q 662 29 742 73 q 485 -15 582 -15 q 371 -2 421 -15 q 281 38 320 11 l 262 0 l 27 0 l 271 1055 l 516 1055 l 430 682 q 555 755 496 728 q 688 783 614 783 q 866 712 806 783 q 927 518 927 642 m 669 473 q 641 570 669 536 q 545 603 613 603 q 474 590 509 603 q 401 557 439 578 l 313 175 q 363 160 336 165 q 422 154 389 154 q 602 243 536 154 q 669 473 669 332 z "},"c":{"ha":817,"x_min":50,"x_max":850,"o":"m 420 -20 q 274 -1 342 -20 q 155 59 206 18 q 78 159 106 99 q 50 299 50 220 q 89 489 50 401 q 199 643 128 577 q 368 745 268 707 q 583 783 467 783 q 722 767 653 783 q 850 722 791 751 l 798 513 l 764 513 q 673 585 724 562 q 559 608 623 608 q 374 527 444 608 q 304 323 304 445 q 348 196 304 238 q 481 154 391 154 q 610 183 552 154 q 709 247 668 212 l 744 247 l 692 39 q 564 -7 619 7 q 420 -20 509 -20 z "},"d":{"ha":971,"x_min":47,"x_max":1013,"o":"m 1013 1055 l 769 0 l 524 0 l 542 79 q 480 39 507 57 q 420 6 453 21 q 360 -14 390 -7 q 290 -21 331 -21 q 113 51 179 -21 q 47 255 47 123 q 82 459 47 363 q 178 627 117 554 q 319 741 237 699 q 489 783 400 783 q 597 770 551 783 q 692 731 644 758 l 768 1055 l 1013 1055 m 659 584 q 607 601 639 593 q 551 609 575 609 q 446 583 492 609 q 366 513 399 557 q 320 411 337 473 q 303 291 303 349 q 335 191 303 222 q 432 160 367 160 q 502 175 465 160 q 572 210 539 190 l 659 584 z "},"e":{"ha":922,"x_min":51,"x_max":890,"o":"m 644 479 q 647 501 646 491 q 648 522 648 511 q 614 604 648 576 q 519 633 581 633 q 392 592 444 633 q 315 479 341 551 l 644 479 m 457 -20 q 157 66 262 -20 q 51 304 51 152 q 85 494 51 408 q 185 647 120 581 q 341 748 248 711 q 547 785 435 785 q 803 716 717 785 q 890 513 890 648 q 881 423 890 467 q 857 336 871 379 l 291 336 q 291 328 291 332 q 291 320 291 324 q 347 196 291 241 q 517 151 402 151 q 668 178 597 151 q 793 239 740 205 l 820 239 l 774 43 q 625 -4 703 12 q 457 -20 546 -20 z "},"f":{"ha":587,"x_min":45,"x_max":764,"o":"m 458 762 l 647 762 l 610 601 l 430 601 l 291 0 l 45 0 l 184 601 l 80 601 l 117 762 l 221 762 l 226 781 q 340 990 257 919 q 585 1062 422 1062 q 688 1058 644 1062 q 764 1048 732 1055 l 724 876 l 706 876 q 662 887 690 882 q 608 893 633 893 q 510 867 541 893 q 460 767 479 840 l 458 762 z "},"g":{"ha":971,"x_min":-1,"x_max":945,"o":"m 945 762 l 791 87 q 720 -93 766 -21 q 608 -208 674 -165 q 461 -269 541 -252 q 283 -287 382 -287 q 125 -277 201 -287 q -1 -254 50 -267 l 36 -67 l 66 -67 q 180 -102 122 -89 q 282 -115 237 -115 q 394 -103 347 -115 q 469 -68 441 -91 q 515 -10 498 -45 q 543 75 532 24 l 547 89 q 441 32 494 53 q 323 11 389 11 q 123 75 195 11 q 51 270 51 140 q 178 638 51 494 q 486 783 304 783 q 604 767 551 783 q 690 728 657 751 l 707 762 l 945 762 m 659 585 q 607 602 639 594 q 550 610 574 610 q 374 528 441 610 q 308 317 308 446 q 336 226 308 258 q 439 193 365 193 q 512 207 475 193 q 581 240 549 221 l 659 585 z "},"h":{"ha":989,"x_min":27,"x_max":920,"o":"m 920 589 q 917 547 920 573 q 908 496 914 522 l 793 0 l 547 0 l 634 378 q 649 451 644 421 q 654 505 654 481 q 632 570 654 550 q 549 590 609 590 q 482 577 520 590 q 397 540 444 565 l 273 0 l 27 0 l 271 1055 l 516 1055 l 429 677 q 566 755 504 727 q 703 783 629 783 q 863 732 807 783 q 920 589 920 682 z "},"i":{"ha":475,"x_min":27,"x_max":524,"o":"m 449 762 l 273 0 l 27 0 l 203 762 l 449 762 m 524 1055 l 481 870 l 222 870 l 264 1055 l 524 1055 z "},"j":{"ha":559,"x_min":-190,"x_max":600,"o":"m 534 762 l 358 3 q 237 -209 327 -130 q 7 -287 147 -287 q -112 -281 -62 -287 q -190 -269 -162 -276 l -150 -94 l -131 -94 q -86 -106 -109 -102 q -35 -111 -63 -111 q 66 -76 29 -110 q 121 38 102 -43 l 250 596 l 105 596 l 144 762 l 534 762 m 600 1055 l 557 870 l 298 870 l 340 1055 l 600 1055 z "},"k":{"ha":932,"x_min":28,"x_max":994,"o":"m 844 0 l 587 0 l 437 336 l 330 240 l 273 0 l 28 0 l 271 1055 l 517 1055 l 372 425 l 712 762 l 994 762 l 641 430 l 844 0 z "},"l":{"ha":475,"x_min":27,"x_max":517,"o":"m 517 1055 l 273 0 l 27 0 l 271 1055 l 517 1055 z "},"m":{"ha":1470,"x_min":27,"x_max":1400,"o":"m 1400 592 q 1397 547 1400 571 q 1388 496 1394 522 l 1274 0 l 1027 0 l 1115 380 q 1131 456 1124 420 q 1138 514 1138 492 q 1116 572 1138 553 q 1039 590 1095 590 q 979 577 1013 590 q 898 540 945 565 l 773 0 l 526 0 l 614 380 q 629 452 622 414 q 637 511 637 491 q 616 571 637 553 q 539 590 595 590 q 475 576 510 590 q 397 540 441 563 l 273 0 l 27 0 l 203 762 l 449 762 l 429 677 q 564 755 504 727 q 694 783 624 783 q 821 749 769 783 q 892 650 872 715 q 1055 749 983 716 q 1194 783 1127 783 q 1348 733 1295 783 q 1400 592 1400 684 z "},"n":{"ha":989,"x_min":27,"x_max":919,"o":"m 919 589 q 916 545 919 569 q 907 496 913 522 l 793 0 l 547 0 l 633 378 q 648 450 643 420 q 654 505 654 479 q 631 570 654 549 q 549 590 609 590 q 482 577 520 590 q 397 540 444 565 l 273 0 l 27 0 l 203 762 l 448 762 l 429 677 q 566 755 504 727 q 703 783 628 783 q 862 733 805 783 q 919 589 919 684 z "},"o":{"ha":952,"x_min":50,"x_max":905,"o":"m 905 483 q 869 282 905 376 q 768 121 833 189 q 611 14 701 52 q 402 -24 522 -24 q 141 58 232 -24 q 50 283 50 139 q 84 476 50 385 q 184 637 118 568 q 343 746 249 706 q 553 785 437 785 q 815 705 724 785 q 905 483 905 625 m 588 233 q 635 337 619 281 q 651 474 651 393 q 621 582 651 544 q 524 619 590 619 q 433 594 472 619 q 364 523 394 569 q 320 417 336 480 q 304 288 304 354 q 339 176 304 210 q 434 142 374 142 q 519 166 478 142 q 588 233 559 191 z "},"p":{"ha":971,"x_min":-38,"x_max":926,"o":"m 926 518 q 892 314 926 413 q 799 144 858 216 q 660 27 737 69 q 486 -15 582 -15 q 373 -1 425 -15 q 281 38 322 13 l 208 -279 l -38 -279 l 203 762 l 448 762 l 430 682 q 558 756 499 730 q 688 783 616 783 q 865 712 803 783 q 926 518 926 642 m 608 251 q 653 351 637 294 q 669 475 669 408 q 642 570 669 537 q 545 603 614 603 q 474 590 509 603 q 401 557 439 578 l 313 174 q 363 160 334 165 q 422 155 392 155 q 532 181 484 155 q 608 251 579 208 z "},"q":{"ha":971,"x_min":47,"x_max":945,"o":"m 659 584 q 607 601 639 593 q 551 609 575 609 q 440 581 486 609 q 366 511 395 553 q 320 412 336 470 q 303 292 303 355 q 331 195 303 229 q 432 160 359 160 q 502 175 465 160 q 572 210 539 190 l 659 584 m 945 762 l 705 -279 l 459 -279 l 541 75 q 478 36 512 56 q 420 5 445 15 q 355 -16 386 -10 q 290 -21 325 -21 q 113 51 179 -21 q 47 255 47 123 q 84 466 47 369 q 183 634 121 563 q 326 744 245 705 q 489 783 406 783 q 599 768 551 783 q 690 728 648 753 l 707 762 l 945 762 z "},"r":{"ha":690,"x_min":27,"x_max":757,"o":"m 703 529 l 681 529 q 635 537 665 534 q 576 540 605 540 q 483 533 528 540 q 391 510 438 526 l 273 0 l 27 0 l 203 762 l 449 762 l 423 650 q 561 732 492 701 q 700 764 630 764 q 729 764 713 764 q 757 762 745 763 l 703 529 z "},"s":{"ha":824,"x_min":-9,"x_max":817,"o":"m 321 -21 q 132 -3 223 -21 q -9 40 40 16 l 38 241 l 60 241 q 98 212 75 228 q 163 180 121 197 q 246 153 199 164 q 349 142 294 142 q 472 161 431 142 q 513 215 513 180 q 484 256 513 242 q 363 292 454 271 q 150 378 208 328 q 93 505 93 429 q 208 708 93 634 q 520 783 323 783 q 691 765 606 783 q 817 728 777 748 l 772 536 l 751 536 q 634 596 703 573 q 494 620 566 620 q 375 601 416 620 q 333 544 333 583 q 369 498 333 514 q 482 465 405 482 q 689 387 626 434 q 753 254 753 339 q 636 53 753 126 q 321 -21 519 -21 z "},"t":{"ha":633,"x_min":79,"x_max":690,"o":"m 319 -15 q 138 27 193 -15 q 84 151 84 68 q 87 193 84 172 q 96 240 91 213 l 179 601 l 79 601 l 116 762 l 216 762 l 267 979 l 511 979 l 461 762 l 690 762 l 653 601 l 424 601 l 361 326 q 348 269 354 298 q 342 220 342 240 q 365 163 342 179 q 435 147 387 147 q 485 154 454 147 q 534 170 515 161 l 554 170 l 516 7 q 429 -9 475 -3 q 319 -15 383 -15 z "},"u":{"ha":989,"x_min":71,"x_max":963,"o":"m 963 762 l 787 0 l 541 0 l 561 84 q 489 40 524 60 q 423 7 454 19 q 351 -15 384 -9 q 287 -21 319 -21 q 129 27 186 -21 q 71 170 71 75 q 73 217 71 195 q 82 266 76 239 l 197 762 l 444 762 l 356 384 q 341 309 346 340 q 336 256 336 278 q 357 192 336 212 q 439 172 379 172 q 508 184 469 172 q 593 222 547 197 l 718 762 l 963 762 z "},"v":{"ha":901,"x_min":99,"x_max":962,"o":"m 962 762 l 492 0 l 214 0 l 99 762 l 351 762 l 406 237 l 700 762 l 962 762 z "},"w":{"ha":1360,"x_min":119,"x_max":1418,"o":"m 1418 762 l 1020 0 l 761 0 l 710 513 l 453 0 l 191 0 l 119 762 l 368 762 l 391 237 l 661 762 l 878 762 l 924 237 l 1160 762 l 1418 762 z "},"x":{"ha":929,"x_min":-71,"x_max":996,"o":"m 325 387 l 111 762 l 374 762 l 495 530 l 714 762 l 996 762 l 606 380 l 823 0 l 560 0 l 437 235 l 211 0 l -71 0 l 325 387 z "},"y":{"ha":904,"x_min":40,"x_max":972,"o":"m 308 -279 l 40 -279 l 234 15 l 109 762 l 358 762 l 424 262 l 714 762 l 972 762 l 308 -279 z "},"z":{"ha":829,"x_min":-34,"x_max":850,"o":"m 682 0 l -34 0 l 1 150 l 502 590 l 119 590 l 159 762 l 850 762 l 816 614 l 321 175 l 722 175 l 682 0 z "},"{":{"ha":987,"x_min":88,"x_max":994,"o":"m 713 -266 l 533 -266 q 357 -218 422 -266 q 292 -77 292 -170 q 312 48 292 -31 q 331 174 331 127 q 286 277 331 243 q 136 311 241 311 l 88 311 l 123 478 l 171 478 q 357 528 296 478 q 444 693 419 578 l 465 793 q 580 991 492 927 q 808 1055 668 1055 l 994 1055 l 962 903 l 884 903 q 805 897 837 903 q 746 871 773 890 q 703 822 720 853 q 674 736 686 791 l 657 656 q 573 490 634 549 q 397 396 511 431 l 393 380 q 502 305 461 352 q 543 184 543 258 q 528 83 543 151 q 513 -9 513 15 q 544 -90 513 -66 q 661 -114 575 -114 l 746 -114 l 713 -266 z "},"|":{"ha":755,"x_min":294,"x_max":492,"o":"m 492 -266 l 294 -266 l 294 1055 l 492 1055 l 492 -266 z "},"}":{"ha":987,"x_min":-1,"x_max":905,"o":"m 905 478 l 869 311 l 822 311 q 635 261 697 311 q 549 96 574 212 l 528 -3 q 412 -202 500 -138 q 184 -266 325 -266 l -1 -266 l 31 -114 l 109 -114 q 188 -107 156 -114 q 247 -82 220 -101 q 290 -33 273 -64 q 319 53 307 -1 l 336 134 q 420 299 358 239 q 595 393 481 359 l 600 410 q 491 484 532 437 q 450 605 450 531 q 465 707 450 639 q 479 799 479 774 q 449 879 479 855 q 332 903 418 903 l 247 903 l 279 1055 l 460 1055 q 635 1007 570 1055 q 701 866 701 959 q 681 741 701 821 q 662 615 662 662 q 707 512 662 546 q 857 478 751 478 l 905 478 z "},"~":{"ha":1204,"x_min":119,"x_max":1113,"o":"m 1113 683 q 1039 341 1112 460 q 819 222 965 222 q 735 233 771 222 q 669 263 699 244 q 618 306 641 283 q 571 358 595 330 q 533 406 555 378 q 495 450 511 434 q 457 483 475 471 q 417 495 439 495 q 355 474 376 495 q 323 420 334 453 q 307 328 311 383 q 302 220 303 273 l 119 220 q 195 566 119 450 q 412 682 271 682 q 496 670 458 682 q 564 639 533 658 q 615 596 592 620 q 662 545 639 572 q 697 500 678 526 q 738 452 717 475 q 778 419 760 429 q 814 408 796 408 q 876 428 853 408 q 909 484 898 448 q 924 570 920 519 q 930 683 928 621 l 1113 683 z "},"Ä":{"ha":1078,"x_min":-63,"x_max":1007,"o":"m 984 0 l 722 0 l 699 206 l 327 206 l 209 0 l -63 0 l 543 1010 l 844 1010 l 984 0 m 679 387 l 638 750 l 430 387 l 679 387 m 1007 1308 l 964 1123 l 763 1123 l 806 1308 l 1007 1308 m 643 1308 l 600 1123 l 399 1123 l 441 1308 l 643 1308 z "},"Å":{"ha":1078,"x_min":-63,"x_max":984,"o":"m 984 0 l 722 0 l 699 206 l 327 206 l 209 0 l -63 0 l 518 969 q 490 1020 500 989 q 479 1081 479 1050 q 553 1244 479 1177 q 726 1312 627 1312 q 867 1263 812 1312 q 922 1137 922 1215 q 901 1044 922 1086 q 849 971 881 1001 l 984 0 m 796 1125 q 775 1184 796 1161 q 717 1207 755 1207 q 636 1170 667 1207 q 605 1089 605 1133 q 626 1031 605 1055 q 686 1007 647 1007 q 764 1043 732 1007 q 796 1125 796 1079 m 679 387 l 638 750 l 430 387 l 679 387 z "},"Ç":{"ha":1005,"x_min":80,"x_max":1069,"o":"m 483 -19 q 185 87 290 -13 q 80 370 80 188 q 129 639 80 518 q 264 848 178 760 q 466 981 349 933 q 713 1029 584 1029 q 907 1008 818 1029 q 1069 945 997 987 l 1009 701 l 979 701 q 851 802 915 770 q 701 835 787 835 q 452 713 550 835 q 354 404 354 592 q 408 229 354 283 q 567 175 463 175 q 743 213 661 175 q 898 309 825 250 l 925 309 l 866 67 q 821 48 845 59 q 764 26 796 37 q 710 7 739 17 q 642 -8 680 -2 q 549 -220 627 -153 q 332 -287 472 -287 q 259 -282 306 -287 q 191 -271 213 -277 l 222 -135 l 237 -135 q 280 -151 254 -143 q 339 -159 306 -159 q 389 -152 361 -159 q 431 -132 416 -146 q 464 -89 450 -117 q 483 -19 477 -61 z "},"É":{"ha":949,"x_min":40,"x_max":1005,"o":"m 1005 1010 l 961 819 l 490 819 l 448 638 l 885 638 l 840 446 l 403 446 l 344 191 l 815 191 l 772 0 l 40 0 l 273 1010 l 1005 1010 m 959 1376 l 662 1123 l 488 1123 l 701 1390 l 959 1390 l 959 1376 z "},"Ñ":{"ha":1176,"x_min":40,"x_max":1193,"o":"m 960 0 l 738 0 l 441 699 l 280 0 l 40 0 l 273 1010 l 565 1010 l 819 425 l 953 1010 l 1193 1010 l 960 0 m 1087 1350 q 1010 1185 1068 1244 q 863 1126 952 1126 q 790 1140 823 1126 q 722 1179 758 1154 q 689 1198 703 1192 q 659 1204 674 1204 q 610 1183 627 1204 q 582 1121 594 1162 l 433 1121 q 510 1286 452 1226 q 657 1345 569 1345 q 731 1332 699 1345 q 799 1293 762 1318 q 831 1273 819 1279 q 862 1267 844 1267 q 911 1289 895 1267 q 939 1350 928 1311 l 1087 1350 z "},"Ö":{"ha":1181,"x_min":80,"x_max":1158,"o":"m 1158 634 q 1116 390 1158 510 q 994 180 1074 270 q 789 31 906 83 q 521 -21 673 -21 q 197 86 314 -21 q 80 380 80 193 q 125 630 80 511 q 253 839 170 749 q 454 979 334 926 q 716 1031 574 1031 q 1041 924 924 1031 q 1158 634 1158 817 m 785 290 q 858 430 831 350 q 884 613 884 509 q 832 783 884 722 q 684 844 780 844 q 563 815 621 844 q 458 728 506 787 q 382 588 411 671 q 354 399 354 504 q 407 224 354 283 q 555 165 460 165 q 680 198 620 165 q 785 290 741 230 m 1045 1308 l 1002 1123 l 801 1123 l 844 1308 l 1045 1308 m 681 1308 l 638 1123 l 437 1123 l 479 1308 l 681 1308 z "},"Ü":{"ha":1128,"x_min":100,"x_max":1160,"o":"m 1160 1010 l 1013 379 q 846 75 964 170 q 504 -20 728 -20 q 202 52 304 -20 q 100 269 100 123 q 104 329 100 298 q 115 385 109 359 l 260 1010 l 523 1010 l 378 384 q 370 342 373 365 q 367 304 367 319 q 405 208 367 241 q 532 175 444 175 q 672 222 618 175 q 748 370 725 270 l 897 1010 l 1160 1010 m 1048 1308 l 1006 1123 l 804 1123 l 847 1308 l 1048 1308 m 684 1308 l 642 1123 l 440 1123 l 483 1308 l 684 1308 z "},"á":{"ha":928,"x_min":13,"x_max":907,"o":"m 572 359 q 450 347 507 354 q 353 325 393 339 q 290 283 311 310 q 268 211 268 256 q 297 156 268 172 q 380 140 326 140 q 457 156 416 140 q 534 199 498 173 l 572 359 m 507 81 q 452 45 484 66 q 391 12 419 24 q 320 -12 353 -4 q 228 -20 287 -20 q 73 33 133 -20 q 13 172 13 86 q 56 325 13 262 q 182 425 98 387 q 370 475 261 460 q 606 498 479 491 q 608 512 606 503 q 610 532 610 521 q 566 600 610 581 q 432 619 521 619 q 299 599 372 619 q 189 565 226 578 l 167 565 l 203 745 q 335 770 245 756 q 513 783 425 783 q 776 736 692 783 q 860 591 860 690 q 858 556 860 578 q 851 518 855 534 l 732 0 l 489 0 l 507 81 m 907 1123 l 610 870 l 437 870 l 649 1137 l 907 1137 l 907 1123 z "},"à":{"ha":928,"x_min":13,"x_max":860,"o":"m 572 359 q 450 347 507 354 q 353 325 393 339 q 290 283 311 310 q 268 211 268 256 q 297 156 268 172 q 380 140 326 140 q 457 156 416 140 q 534 199 498 173 l 572 359 m 507 81 q 452 45 484 66 q 391 12 419 24 q 320 -12 353 -4 q 228 -20 287 -20 q 73 33 133 -20 q 13 172 13 86 q 56 325 13 262 q 182 425 98 387 q 370 475 261 460 q 606 498 479 491 q 608 512 606 503 q 610 532 610 521 q 566 600 610 581 q 432 619 521 619 q 299 599 372 619 q 189 565 226 578 l 167 565 l 203 745 q 335 770 245 756 q 513 783 425 783 q 776 736 692 783 q 860 591 860 690 q 858 556 860 578 q 851 518 855 534 l 732 0 l 489 0 l 507 81 m 682 870 l 528 870 l 334 1123 l 334 1137 l 566 1137 l 682 870 z "},"â":{"ha":928,"x_min":13,"x_max":860,"o":"m 572 359 q 450 347 507 354 q 353 325 393 339 q 290 283 311 310 q 268 211 268 256 q 297 156 268 172 q 380 140 326 140 q 457 156 416 140 q 534 199 498 173 l 572 359 m 507 81 q 452 45 484 66 q 391 12 419 24 q 320 -12 353 -4 q 228 -20 287 -20 q 73 33 133 -20 q 13 172 13 86 q 56 325 13 262 q 182 425 98 387 q 370 475 261 460 q 606 498 479 491 q 608 512 606 503 q 610 532 610 521 q 566 600 610 581 q 432 619 521 619 q 299 599 372 619 q 189 565 226 578 l 167 565 l 203 745 q 335 770 245 756 q 513 783 425 783 q 776 736 692 783 q 860 591 860 690 q 858 556 860 578 q 851 518 855 534 l 732 0 l 489 0 l 507 81 m 850 870 l 677 870 l 586 1019 l 427 870 l 244 870 l 524 1137 l 694 1137 l 850 870 z "},"ä":{"ha":928,"x_min":13,"x_max":882,"o":"m 572 359 q 450 347 507 354 q 353 325 393 339 q 290 283 311 310 q 268 211 268 256 q 297 156 268 172 q 380 140 326 140 q 457 156 416 140 q 534 199 498 173 l 572 359 m 507 81 q 452 45 484 66 q 391 12 419 24 q 320 -12 353 -4 q 228 -20 287 -20 q 73 33 133 -20 q 13 172 13 86 q 56 325 13 262 q 182 425 98 387 q 370 475 261 460 q 606 498 479 491 q 608 512 606 503 q 610 532 610 521 q 566 600 610 581 q 432 619 521 619 q 299 599 372 619 q 189 565 226 578 l 167 565 l 203 745 q 335 770 245 756 q 513 783 425 783 q 776 736 692 783 q 860 591 860 690 q 858 556 860 578 q 851 518 855 534 l 732 0 l 489 0 l 507 81 m 882 1055 l 840 870 l 638 870 l 681 1055 l 882 1055 m 518 1055 l 475 870 l 274 870 l 317 1055 l 518 1055 z "},"ã":{"ha":928,"x_min":13,"x_max":897,"o":"m 572 359 q 450 347 507 354 q 353 325 393 339 q 290 283 311 310 q 268 211 268 256 q 297 156 268 172 q 380 140 326 140 q 457 156 416 140 q 534 199 498 173 l 572 359 m 507 81 q 452 45 484 66 q 391 12 419 24 q 320 -12 353 -4 q 228 -20 287 -20 q 73 33 133 -20 q 13 172 13 86 q 56 325 13 262 q 182 425 98 387 q 370 475 261 460 q 606 498 479 491 q 608 512 606 503 q 610 532 610 521 q 566 600 610 581 q 432 619 521 619 q 299 599 372 619 q 189 565 226 578 l 167 565 l 203 745 q 335 770 245 756 q 513 783 425 783 q 776 736 692 783 q 860 591 860 690 q 858 556 860 578 q 851 518 855 534 l 732 0 l 489 0 l 507 81 m 897 1097 q 820 932 878 991 q 673 873 762 873 q 600 887 632 873 q 531 926 568 901 q 498 945 513 939 q 468 951 484 951 q 420 930 436 951 q 391 868 404 909 l 243 868 q 320 1033 261 973 q 467 1093 378 1093 q 540 1079 509 1093 q 608 1040 572 1065 q 641 1020 628 1026 q 671 1015 653 1015 q 721 1036 705 1015 q 748 1097 737 1058 l 897 1097 z "},"å":{"ha":928,"x_min":13,"x_max":860,"o":"m 572 359 q 450 347 507 354 q 353 325 393 339 q 290 283 311 310 q 268 211 268 256 q 297 156 268 172 q 380 140 326 140 q 457 156 416 140 q 534 199 498 173 l 572 359 m 507 81 q 452 45 484 66 q 391 12 419 24 q 320 -12 353 -4 q 228 -20 287 -20 q 73 33 133 -20 q 13 172 13 86 q 56 325 13 262 q 182 425 98 387 q 370 475 261 460 q 606 498 479 491 q 608 512 606 503 q 610 532 610 521 q 566 600 610 581 q 432 619 521 619 q 299 599 372 619 q 189 565 226 578 l 167 565 l 203 745 q 311 767 241 755 q 458 782 382 778 q 391 844 416 804 q 366 937 366 884 q 386 1026 366 983 q 441 1101 406 1069 q 520 1150 474 1132 q 612 1168 566 1168 q 688 1156 654 1168 q 750 1122 723 1145 q 792 1066 777 1098 q 808 992 808 1034 q 761 857 808 916 q 651 774 715 798 q 806 716 751 760 q 860 591 860 671 q 858 556 860 578 q 851 518 855 534 l 732 0 l 489 0 l 507 81 m 682 981 q 662 1040 682 1017 q 603 1063 641 1063 q 522 1025 553 1063 q 491 945 491 988 q 512 886 491 910 q 572 863 533 863 q 650 899 618 863 q 682 981 682 935 z "},"ç":{"ha":817,"x_min":50,"x_max":850,"o":"m 401 -20 q 266 1 330 -18 q 155 59 203 21 q 78 159 106 99 q 50 299 50 220 q 89 489 50 401 q 199 643 128 577 q 368 745 268 707 q 583 783 467 783 q 722 767 653 783 q 850 722 791 751 l 798 513 l 764 513 q 673 585 724 562 q 559 608 623 608 q 374 527 444 608 q 304 323 304 445 q 348 196 304 238 q 481 154 391 154 q 610 183 552 154 q 709 247 668 212 l 744 247 l 692 39 q 631 14 668 28 q 562 -6 593 1 q 469 -220 546 -153 q 250 -287 392 -287 q 178 -282 224 -287 q 109 -271 132 -277 l 140 -135 l 156 -135 q 199 -151 173 -143 q 258 -159 224 -159 q 307 -153 280 -159 q 350 -133 334 -146 q 382 -90 369 -117 q 401 -20 396 -62 z "},"é":{"ha":922,"x_min":51,"x_max":890,"o":"m 644 479 q 647 501 646 491 q 648 522 648 511 q 614 604 648 576 q 519 633 581 633 q 392 592 444 633 q 315 479 341 551 l 644 479 m 457 -20 q 157 66 262 -20 q 51 304 51 152 q 85 494 51 408 q 185 647 120 581 q 341 748 248 711 q 547 785 435 785 q 803 716 717 785 q 890 513 890 648 q 881 423 890 467 q 857 336 871 379 l 291 336 q 291 328 291 332 q 291 320 291 324 q 347 196 291 241 q 517 151 402 151 q 668 178 597 151 q 793 239 740 205 l 820 239 l 774 43 q 625 -4 703 12 q 457 -20 546 -20 m 860 1123 l 563 870 l 389 870 l 602 1137 l 860 1137 l 860 1123 z "},"è":{"ha":922,"x_min":51,"x_max":890,"o":"m 644 479 q 647 501 646 491 q 648 522 648 511 q 614 604 648 576 q 519 633 581 633 q 392 592 444 633 q 315 479 341 551 l 644 479 m 457 -20 q 157 66 262 -20 q 51 304 51 152 q 85 494 51 408 q 185 647 120 581 q 341 748 248 711 q 547 785 435 785 q 803 716 717 785 q 890 513 890 648 q 881 423 890 467 q 857 336 871 379 l 291 336 q 291 328 291 332 q 291 320 291 324 q 347 196 291 241 q 517 151 402 151 q 668 178 597 151 q 793 239 740 205 l 820 239 l 774 43 q 625 -4 703 12 q 457 -20 546 -20 m 688 870 l 535 870 l 341 1123 l 341 1137 l 572 1137 l 688 870 z "},"ê":{"ha":922,"x_min":51,"x_max":890,"o":"m 644 479 q 647 501 646 491 q 648 522 648 511 q 614 604 648 576 q 519 633 581 633 q 392 592 444 633 q 315 479 341 551 l 644 479 m 457 -20 q 157 66 262 -20 q 51 304 51 152 q 85 494 51 408 q 185 647 120 581 q 341 748 248 711 q 547 785 435 785 q 803 716 717 785 q 890 513 890 648 q 881 423 890 467 q 857 336 871 379 l 291 336 q 291 328 291 332 q 291 320 291 324 q 347 196 291 241 q 517 151 402 151 q 668 178 597 151 q 793 239 740 205 l 820 239 l 774 43 q 625 -4 703 12 q 457 -20 546 -20 m 854 870 l 682 870 l 591 1019 l 431 870 l 249 870 l 528 1137 l 699 1137 l 854 870 z "},"ë":{"ha":922,"x_min":51,"x_max":890,"o":"m 644 479 q 647 501 646 491 q 648 522 648 511 q 614 604 648 576 q 519 633 581 633 q 392 592 444 633 q 315 479 341 551 l 644 479 m 457 -20 q 157 66 262 -20 q 51 304 51 152 q 85 494 51 408 q 185 647 120 581 q 341 748 248 711 q 547 785 435 785 q 803 716 717 785 q 890 513 890 648 q 881 423 890 467 q 857 336 871 379 l 291 336 q 291 328 291 332 q 291 320 291 324 q 347 196 291 241 q 517 151 402 151 q 668 178 597 151 q 793 239 740 205 l 820 239 l 774 43 q 625 -4 703 12 q 457 -20 546 -20 m 868 1055 l 825 870 l 624 870 l 667 1055 l 868 1055 m 504 1055 l 461 870 l 260 870 l 302 1055 l 504 1055 z "},"í":{"ha":475,"x_min":27,"x_max":635,"o":"m 449 762 l 273 0 l 27 0 l 203 762 l 449 762 m 635 1123 l 338 870 l 165 870 l 377 1137 l 635 1137 l 635 1123 z "},"ì":{"ha":475,"x_min":27,"x_max":471,"o":"m 449 762 l 273 0 l 27 0 l 203 762 l 449 762 m 471 870 l 318 870 l 124 1123 l 124 1137 l 355 1137 l 471 870 z "},"î":{"ha":475,"x_min":27,"x_max":597,"o":"m 449 762 l 273 0 l 27 0 l 203 762 l 449 762 m 597 870 l 441 870 l 385 1015 l 273 870 l 106 870 l 321 1137 l 494 1137 l 597 870 z "},"ï":{"ha":475,"x_min":27,"x_max":641,"o":"m 449 762 l 273 0 l 27 0 l 203 762 l 449 762 m 641 1055 l 598 870 l 410 870 l 453 1055 l 641 1055 m 330 1055 l 287 870 l 99 870 l 142 1055 l 330 1055 z "},"ñ":{"ha":989,"x_min":27,"x_max":932,"o":"m 919 589 q 916 545 919 569 q 907 496 913 522 l 793 0 l 547 0 l 633 378 q 648 450 643 420 q 654 505 654 479 q 631 570 654 549 q 549 590 609 590 q 482 577 520 590 q 397 540 444 565 l 273 0 l 27 0 l 203 762 l 448 762 l 429 677 q 566 755 504 727 q 703 783 628 783 q 862 733 805 783 q 919 589 919 684 m 932 1097 q 856 932 913 991 q 709 873 798 873 q 636 887 668 873 q 567 926 604 901 q 534 945 549 939 q 504 951 519 951 q 456 930 472 951 q 427 868 439 909 l 279 868 q 356 1033 297 973 q 503 1093 414 1093 q 576 1079 545 1093 q 644 1040 608 1065 q 676 1020 664 1026 q 707 1015 689 1015 q 757 1036 741 1015 q 784 1097 773 1058 l 932 1097 z "},"ó":{"ha":952,"x_min":50,"x_max":905,"o":"m 905 483 q 869 282 905 376 q 768 121 833 189 q 611 14 701 52 q 402 -24 522 -24 q 141 58 232 -24 q 50 283 50 139 q 84 476 50 385 q 184 637 118 568 q 343 746 249 706 q 553 785 437 785 q 815 705 724 785 q 905 483 905 625 m 588 233 q 635 337 619 281 q 651 474 651 393 q 621 582 651 544 q 524 619 590 619 q 433 594 472 619 q 364 523 394 569 q 320 417 336 480 q 304 288 304 354 q 339 176 304 210 q 434 142 374 142 q 519 166 478 142 q 588 233 559 191 m 884 1123 l 587 870 l 413 870 l 625 1137 l 884 1137 l 884 1123 z "},"ò":{"ha":952,"x_min":50,"x_max":905,"o":"m 905 483 q 869 282 905 376 q 768 121 833 189 q 611 14 701 52 q 402 -24 522 -24 q 141 58 232 -24 q 50 283 50 139 q 84 476 50 385 q 184 637 118 568 q 343 746 249 706 q 553 785 437 785 q 815 705 724 785 q 905 483 905 625 m 588 233 q 635 337 619 281 q 651 474 651 393 q 621 582 651 544 q 524 619 590 619 q 433 594 472 619 q 364 523 394 569 q 320 417 336 480 q 304 288 304 354 q 339 176 304 210 q 434 142 374 142 q 519 166 478 142 q 588 233 559 191 m 699 870 l 545 870 l 351 1123 l 351 1137 l 583 1137 l 699 870 z "},"ô":{"ha":952,"x_min":50,"x_max":905,"o":"m 905 483 q 869 282 905 376 q 768 121 833 189 q 611 14 701 52 q 402 -24 522 -24 q 141 58 232 -24 q 50 283 50 139 q 84 476 50 385 q 184 637 118 568 q 343 746 249 706 q 553 785 437 785 q 815 705 724 785 q 905 483 905 625 m 588 233 q 635 337 619 281 q 651 474 651 393 q 621 582 651 544 q 524 619 590 619 q 433 594 472 619 q 364 523 394 569 q 320 417 336 480 q 304 288 304 354 q 339 176 304 210 q 434 142 374 142 q 519 166 478 142 q 588 233 559 191 m 857 870 l 684 870 l 593 1019 l 433 870 l 251 870 l 530 1137 l 701 1137 l 857 870 z "},"ö":{"ha":952,"x_min":50,"x_max":905,"o":"m 905 483 q 869 282 905 376 q 768 121 833 189 q 611 14 701 52 q 402 -24 522 -24 q 141 58 232 -24 q 50 283 50 139 q 84 476 50 385 q 184 637 118 568 q 343 746 249 706 q 553 785 437 785 q 815 705 724 785 q 905 483 905 625 m 588 233 q 635 337 619 281 q 651 474 651 393 q 621 582 651 544 q 524 619 590 619 q 433 594 472 619 q 364 523 394 569 q 320 417 336 480 q 304 288 304 354 q 339 176 304 210 q 434 142 374 142 q 519 166 478 142 q 588 233 559 191 m 885 1055 l 842 870 l 641 870 l 684 1055 l 885 1055 m 521 1055 l 478 870 l 277 870 l 319 1055 l 521 1055 z "},"õ":{"ha":952,"x_min":50,"x_max":905,"o":"m 905 483 q 869 282 905 376 q 768 121 833 189 q 611 14 701 52 q 402 -24 522 -24 q 141 58 232 -24 q 50 283 50 139 q 84 476 50 385 q 184 637 118 568 q 343 746 249 706 q 553 785 437 785 q 815 705 724 785 q 905 483 905 625 m 588 233 q 635 337 619 281 q 651 474 651 393 q 621 582 651 544 q 524 619 590 619 q 433 594 472 619 q 364 523 394 569 q 320 417 336 480 q 304 288 304 354 q 339 176 304 210 q 434 142 374 142 q 519 166 478 142 q 588 233 559 191 m 901 1097 q 824 932 882 991 q 677 873 766 873 q 604 887 636 873 q 535 926 572 901 q 502 945 517 939 q 472 951 488 951 q 424 930 440 951 q 395 868 408 909 l 247 868 q 324 1033 265 973 q 471 1093 382 1093 q 544 1079 513 1093 q 612 1040 576 1065 q 645 1020 632 1026 q 675 1015 657 1015 q 725 1036 709 1015 q 752 1097 741 1058 l 901 1097 z "},"ú":{"ha":989,"x_min":71,"x_max":963,"o":"m 963 762 l 787 0 l 541 0 l 561 84 q 489 40 524 60 q 423 7 454 19 q 351 -15 384 -9 q 287 -21 319 -21 q 129 27 186 -21 q 71 170 71 75 q 73 217 71 195 q 82 266 76 239 l 197 762 l 444 762 l 356 384 q 341 309 346 340 q 336 256 336 278 q 357 192 336 212 q 439 172 379 172 q 508 184 469 172 q 593 222 547 197 l 718 762 l 963 762 m 948 1123 l 651 870 l 477 870 l 690 1137 l 948 1137 l 948 1123 z "},"ù":{"ha":989,"x_min":71,"x_max":963,"o":"m 963 762 l 787 0 l 541 0 l 561 84 q 489 40 524 60 q 423 7 454 19 q 351 -15 384 -9 q 287 -21 319 -21 q 129 27 186 -21 q 71 170 71 75 q 73 217 71 195 q 82 266 76 239 l 197 762 l 444 762 l 356 384 q 341 309 346 340 q 336 256 336 278 q 357 192 336 212 q 439 172 379 172 q 508 184 469 172 q 593 222 547 197 l 718 762 l 963 762 m 702 870 l 549 870 l 355 1123 l 355 1137 l 586 1137 l 702 870 z "},"û":{"ha":989,"x_min":71,"x_max":963,"o":"m 963 762 l 787 0 l 541 0 l 561 84 q 489 40 524 60 q 423 7 454 19 q 351 -15 384 -9 q 287 -21 319 -21 q 129 27 186 -21 q 71 170 71 75 q 73 217 71 195 q 82 266 76 239 l 197 762 l 444 762 l 356 384 q 341 309 346 340 q 336 256 336 278 q 357 192 336 212 q 439 172 379 172 q 508 184 469 172 q 593 222 547 197 l 718 762 l 963 762 m 897 870 l 724 870 l 633 1019 l 473 870 l 291 870 l 570 1137 l 741 1137 l 897 870 z "},"ü":{"ha":989,"x_min":71,"x_max":963,"o":"m 963 762 l 787 0 l 541 0 l 561 84 q 489 40 524 60 q 423 7 454 19 q 351 -15 384 -9 q 287 -21 319 -21 q 129 27 186 -21 q 71 170 71 75 q 73 217 71 195 q 82 266 76 239 l 197 762 l 444 762 l 356 384 q 341 309 346 340 q 336 256 336 278 q 357 192 336 212 q 439 172 379 172 q 508 184 469 172 q 593 222 547 197 l 718 762 l 963 762 m 925 1055 l 882 870 l 681 870 l 724 1055 l 925 1055 m 561 1055 l 518 870 l 317 870 l 359 1055 l 561 1055 z "},"†":{"ha":987,"x_min":216,"x_max":911,"o":"m 875 636 l 629 640 l 505 92 l 333 92 l 463 640 l 216 636 l 252 792 l 498 789 l 555 1055 l 728 1055 l 663 789 l 911 792 l 875 636 z "},"°":{"ha":816,"x_min":195,"x_max":768,"o":"m 768 747 q 685 546 768 628 q 481 464 602 464 q 278 546 361 464 q 195 747 195 628 q 278 949 195 867 q 481 1031 361 1031 q 685 949 602 1031 q 768 747 768 867 m 613 747 q 575 843 613 803 q 481 882 538 882 q 388 843 426 882 q 350 747 350 804 q 388 651 350 690 q 481 613 427 613 q 575 652 538 613 q 613 747 613 692 z "},"¢":{"ha":987,"x_min":114,"x_max":941,"o":"m 784 45 q 686 14 745 31 q 563 -9 626 -3 l 509 -245 l 391 -245 l 444 -11 q 200 78 286 0 q 114 287 114 156 q 153 486 114 395 q 262 642 193 576 q 425 742 330 705 q 629 787 519 780 l 678 1000 l 796 1000 l 746 784 q 870 757 819 776 q 941 728 921 739 l 895 528 l 862 528 q 805 577 840 551 q 705 616 770 604 l 599 158 q 720 197 668 168 q 797 245 772 226 l 830 245 l 784 45 m 487 160 l 592 616 q 499 575 541 604 q 426 505 457 547 q 381 418 397 467 q 364 321 364 368 q 395 214 364 254 q 487 160 426 174 z "},"£":{"ha":987,"x_min":22,"x_max":989,"o":"m 817 0 l 22 0 l 63 191 q 192 264 153 214 q 251 409 231 315 l 132 409 l 163 556 l 282 556 l 318 726 q 456 948 347 867 q 747 1029 565 1029 q 898 1018 840 1029 q 989 997 956 1007 l 944 785 l 913 785 q 831 829 873 814 q 745 844 788 844 q 618 804 665 844 q 554 684 572 765 l 527 556 l 823 556 l 792 409 l 496 409 q 439 289 482 348 q 336 201 396 229 l 335 193 l 858 193 l 817 0 z "},"§":{"ha":987,"x_min":32,"x_max":945,"o":"m 701 174 l 701 169 q 764 108 736 146 q 791 16 791 71 q 762 -95 791 -42 q 677 -184 732 -147 q 537 -245 618 -224 q 350 -266 455 -266 q 181 -252 276 -266 q 32 -216 86 -237 l 71 -21 l 94 -22 q 202 -73 137 -52 q 342 -94 267 -94 q 463 -72 417 -94 q 509 -12 509 -51 q 503 16 509 4 q 477 43 498 28 q 416 75 461 55 q 317 118 371 96 q 143 218 194 169 q 92 347 92 267 q 109 429 92 393 q 151 494 126 466 q 213 549 178 526 q 285 591 248 573 l 286 596 q 215 668 237 629 q 193 751 193 707 q 314 952 193 874 q 629 1030 435 1030 q 806 1016 718 1030 q 945 982 893 1001 l 906 787 l 884 787 q 782 837 843 815 q 646 858 720 858 q 518 836 562 858 q 475 777 475 814 q 482 744 475 755 q 512 717 488 732 q 570 688 532 704 q 668 648 607 671 q 837 553 781 604 q 894 422 894 502 q 842 280 894 344 q 701 174 791 216 m 644 379 q 620 430 644 409 q 551 471 596 452 q 508 489 534 479 q 444 513 481 500 q 371 457 400 491 q 342 389 342 422 q 366 335 342 357 q 435 294 389 314 q 478 275 454 286 q 543 250 503 264 q 617 309 590 279 q 644 379 644 338 z "},"•":{"ha":987,"x_min":163,"x_max":851,"o":"m 851 463 q 750 220 851 321 q 507 120 650 120 q 264 220 365 120 q 163 463 163 321 q 264 706 163 606 q 507 806 365 806 q 750 706 650 806 q 851 463 851 606 z "},"¶":{"ha":987,"x_min":157,"x_max":994,"o":"m 704 -246 l 567 -246 l 829 888 l 726 888 l 465 -246 l 321 -246 l 470 402 q 237 480 317 411 q 157 661 157 550 q 280 917 157 823 q 626 1010 402 1010 l 994 1010 l 704 -246 z "},"ß":{"ha":990,"x_min":26,"x_max":963,"o":"m 963 839 q 895 671 963 737 q 707 582 826 605 l 705 576 q 866 500 804 559 q 927 348 927 441 q 802 90 927 189 q 466 -9 676 -9 q 408 -6 445 -9 q 351 0 371 -3 l 393 184 l 420 184 q 451 176 434 180 q 488 172 467 172 q 627 216 574 172 q 679 336 679 260 q 628 440 679 408 q 490 473 578 473 l 532 654 q 661 697 610 654 q 711 807 711 740 q 686 875 711 850 q 613 899 660 899 q 501 856 543 899 q 441 736 459 812 l 271 0 l 26 0 l 191 716 q 346 977 231 891 q 641 1062 460 1062 q 880 1002 798 1062 q 963 839 963 943 z "},"®":{"ha":1339,"x_min":112,"x_max":1285,"o":"m 1285 444 q 1113 30 1285 201 q 699 -142 941 -142 q 284 30 456 -142 q 112 444 112 201 q 284 859 112 687 q 699 1031 456 1031 q 1113 859 941 1031 q 1285 444 1285 687 m 1156 444 q 1022 769 1156 633 q 699 905 888 905 q 375 769 509 905 q 241 444 241 633 q 375 119 241 255 q 699 -16 509 -16 q 1022 119 888 -16 q 1156 444 1156 255 m 1028 166 l 844 166 l 667 380 l 609 380 l 609 166 l 465 166 l 465 750 l 687 750 q 786 745 749 750 q 860 721 823 741 q 919 667 900 699 q 937 587 937 635 q 901 482 937 524 q 808 418 865 441 l 1028 166 m 777 576 q 769 610 777 595 q 743 635 762 625 q 704 647 726 644 q 654 649 682 649 l 609 649 l 609 484 l 644 484 q 705 489 680 484 q 747 507 731 494 q 770 535 762 518 q 777 576 777 552 z "},"©":{"ha":1339,"x_min":112,"x_max":1285,"o":"m 1285 444 q 1113 30 1285 201 q 699 -142 941 -142 q 284 30 456 -142 q 112 444 112 201 q 284 859 112 687 q 699 1031 456 1031 q 1113 859 941 1031 q 1285 444 1285 687 m 1156 444 q 1022 769 1156 633 q 699 905 888 905 q 375 769 509 905 q 241 444 241 633 q 375 119 241 255 q 699 -16 509 -16 q 1022 119 888 -16 q 1156 444 1156 255 m 925 188 q 823 151 872 163 q 730 139 774 139 q 493 223 579 139 q 407 448 407 308 q 497 673 407 588 q 730 758 588 758 q 834 744 784 758 q 925 710 884 730 l 925 570 l 911 570 q 818 623 861 607 q 732 639 775 639 q 616 591 656 639 q 576 448 576 543 q 617 307 576 356 q 732 258 659 258 q 834 280 787 258 q 911 327 882 302 l 925 327 l 925 188 z "},"™":{"ha":1339,"x_min":182,"x_max":1297,"o":"m 1297 519 l 1165 519 l 1165 903 l 1151 903 l 1030 634 l 938 634 l 816 907 l 798 907 l 798 519 l 673 519 l 673 1010 l 887 1010 l 986 770 l 1089 1010 l 1297 1010 l 1297 519 m 595 903 l 455 903 l 455 519 l 323 519 l 323 903 l 182 903 l 182 1010 l 595 1010 l 595 903 z "},"´":{"ha":987,"x_min":416,"x_max":887,"o":"m 887 1123 l 590 870 l 416 870 l 629 1137 l 887 1137 l 887 1123 z "},"¨":{"ha":987,"x_min":284,"x_max":892,"o":"m 892 1055 l 850 870 l 648 870 l 691 1055 l 892 1055 m 528 1055 l 486 870 l 284 870 l 327 1055 l 528 1055 z "},"≠":{"ha":1204,"x_min":199,"x_max":1065,"o":"m 1065 183 l 612 183 l 511 -59 l 327 -59 l 428 183 l 199 183 l 199 365 l 505 365 l 576 533 l 199 533 l 199 715 l 650 715 l 743 936 l 929 936 l 836 715 l 1065 715 l 1065 533 l 759 533 l 686 365 l 1065 365 l 1065 183 z "},"Æ":{"ha":1519,"x_min":-85,"x_max":1575,"o":"m 1342 0 l 614 0 l 677 274 l 359 274 l 186 0 l -85 0 l 563 1010 l 1575 1010 l 1531 819 l 1060 819 l 1018 638 l 1455 638 l 1411 446 l 973 446 l 914 191 l 1385 191 l 1342 0 m 722 467 l 804 824 l 707 824 l 481 467 l 722 467 z "},"Ø":{"ha":1181,"x_min":-21,"x_max":1227,"o":"m 877 707 l 410 213 q 473 173 437 186 q 555 160 510 160 q 683 193 621 160 q 789 286 745 227 q 863 428 836 347 q 889 613 889 508 q 886 663 889 640 q 877 707 884 686 m 359 307 l 823 800 q 760 838 795 825 q 684 850 725 850 q 562 820 620 850 q 454 732 503 791 q 378 591 408 676 q 349 399 349 505 q 351 350 349 371 q 359 307 354 328 m 173 109 q 104 229 127 160 q 80 380 80 297 q 125 630 80 511 q 253 839 170 749 q 454 979 334 926 q 716 1031 574 1031 q 865 1014 799 1031 q 981 968 931 997 l 1087 1080 l 1227 1080 l 1061 904 q 1133 786 1109 853 q 1158 634 1158 718 q 1116 390 1158 510 q 994 180 1074 270 q 794 34 911 88 q 521 -21 678 -21 q 372 -4 439 -21 q 252 45 306 12 l 119 -96 l -21 -96 l 173 109 z "},"∞":{"ha":1470,"x_min":135,"x_max":1365,"o":"m 1365 450 q 1338 280 1365 354 q 1267 161 1312 207 q 1161 88 1220 111 q 1029 65 1101 65 q 868 111 941 65 q 743 246 794 157 q 615 109 686 153 q 448 65 545 65 q 221 169 307 65 q 135 435 135 273 q 228 718 135 615 q 471 820 320 820 q 633 774 560 820 q 758 639 706 729 q 885 775 813 730 q 1053 820 958 820 q 1279 716 1194 820 q 1365 450 1365 612 m 1190 450 q 1153 582 1190 534 q 1053 629 1116 629 q 975 613 1006 629 q 916 562 943 597 q 865 481 888 525 q 823 391 842 437 q 912 290 859 325 q 1021 256 965 256 q 1145 306 1101 256 q 1190 450 1190 356 m 677 494 q 587 595 640 561 q 479 629 535 629 q 354 577 398 629 q 311 435 311 526 q 346 306 311 356 q 448 256 380 256 q 549 287 513 256 q 618 375 585 319 q 650 433 640 410 q 677 494 661 456 z "},"±":{"ha":1204,"x_min":161,"x_max":1070,"o":"m 1070 0 l 161 0 l 161 182 l 524 182 l 524 464 l 161 464 l 161 646 l 523 646 l 523 1004 l 709 1004 l 709 646 l 1070 646 l 1070 464 l 708 464 l 708 182 l 1070 182 l 1070 0 z "},"≤":{"ha":1204,"x_min":160,"x_max":1069,"o":"m 1069 236 l 160 529 l 160 715 l 1069 1008 l 1069 813 l 432 621 l 1069 431 l 1069 236 m 1069 0 l 160 0 l 160 182 l 1069 182 l 1069 0 z "},"≥":{"ha":1204,"x_min":160,"x_max":1069,"o":"m 1069 529 l 160 236 l 160 431 l 797 621 l 160 813 l 160 1008 l 1069 715 l 1069 529 m 1069 0 l 160 0 l 160 182 l 1069 182 l 1069 0 z "},"¥":{"ha":987,"x_min":78,"x_max":1090,"o":"m 1090 1010 l 627 458 l 619 424 l 833 424 l 799 277 l 587 277 l 574 224 l 786 224 l 752 77 l 541 77 l 523 0 l 273 0 l 291 77 l 78 77 l 112 224 l 325 224 l 337 277 l 125 277 l 159 424 l 372 424 l 380 458 l 173 1010 l 437 1010 l 546 691 l 797 1010 l 1090 1010 z "},"µ":{"ha":1002,"x_min":-39,"x_max":975,"o":"m 798 0 l 583 0 l 583 54 l 578 54 q 501 7 536 24 q 418 -10 466 -10 q 342 5 375 -10 q 283 49 309 20 l 207 -279 l -39 -279 l 202 762 l 448 762 l 322 220 q 382 184 349 194 q 452 175 416 175 q 527 185 486 175 q 604 220 568 196 l 729 762 l 975 762 l 798 0 z "},"∂":{"ha":987,"x_min":71,"x_max":928,"o":"m 830 949 q 903 840 878 905 q 928 675 928 774 q 896 435 928 559 q 799 210 864 311 q 620 34 720 90 q 404 -22 520 -22 q 275 -3 335 -22 q 169 52 214 15 q 97 143 123 88 q 71 271 71 198 q 179 552 71 434 q 447 669 287 669 q 568 646 509 669 q 668 581 627 623 q 674 621 671 595 q 677 672 677 648 q 630 806 677 764 q 490 848 583 848 q 379 831 431 848 q 267 786 326 813 l 248 787 l 271 980 q 415 1017 335 1004 q 558 1030 495 1030 q 715 1011 648 1030 q 830 949 781 991 m 642 435 q 583 480 614 464 q 509 496 551 496 q 374 432 422 496 q 327 278 327 368 q 358 183 327 213 q 437 153 389 153 q 558 224 503 153 q 642 435 613 296 z "},"∑":{"ha":970,"x_min":97,"x_max":945,"o":"m 945 -128 l 97 -128 l 97 61 l 456 432 l 104 817 l 104 1010 l 928 1010 l 928 814 l 427 814 l 749 460 l 749 403 l 420 67 l 945 67 l 945 -128 z "},"∏":{"ha":1207,"x_min":68,"x_max":1219,"o":"m 1219 816 l 1061 816 l 1061 -131 l 801 -131 l 801 816 l 486 816 l 486 -131 l 226 -131 l 226 816 l 68 816 l 68 1010 l 1219 1010 l 1219 816 z "},"∫":{"ha":747,"x_min":20,"x_max":727,"o":"m 727 876 l 709 876 q 666 887 692 881 q 610 893 640 893 q 522 865 547 893 q 496 754 496 837 l 496 13 q 421 -209 496 -132 q 197 -287 347 -287 q 104 -283 152 -287 q 20 -273 56 -280 l 20 -101 l 39 -101 q 82 -112 54 -105 q 137 -118 109 -118 q 224 -92 197 -118 q 252 21 252 -66 l 252 762 q 326 985 252 909 q 551 1062 401 1062 q 649 1058 605 1062 q 727 1048 693 1055 l 727 876 z "},"ª":{"ha":830,"x_min":140,"x_max":800,"o":"m 701 404 l 511 404 l 525 469 q 481 440 507 457 q 435 414 456 423 q 379 394 405 401 q 307 388 353 388 q 186 431 233 388 q 140 542 140 473 q 175 667 140 619 q 272 744 210 715 q 415 784 332 772 q 602 803 498 797 q 604 814 602 806 q 606 830 606 822 q 571 884 606 869 q 467 900 536 900 q 365 884 420 900 q 277 857 309 868 l 260 857 l 288 1001 q 389 1021 325 1010 q 530 1031 452 1031 q 731 995 662 1031 q 800 878 800 960 q 799 850 800 867 q 793 819 797 833 l 701 404 m 575 692 q 478 682 515 686 q 405 665 441 677 q 356 631 374 653 q 338 573 338 608 q 358 530 338 544 q 427 516 378 516 q 488 530 455 516 q 547 564 520 544 l 575 692 z "},"º":{"ha":830,"x_min":140,"x_max":807,"o":"m 414 383 q 209 450 278 383 q 140 629 140 516 q 169 787 140 715 q 245 913 197 859 q 368 999 294 967 q 532 1031 441 1031 q 736 966 666 1031 q 807 789 807 902 q 779 628 807 704 q 701 499 751 552 q 577 414 648 444 q 414 383 505 383 m 609 782 q 582 872 609 846 q 509 898 555 898 q 386 821 433 898 q 338 633 338 744 q 366 543 338 570 q 439 516 393 516 q 559 589 510 516 q 609 782 609 663 z "},"Ω":{"ha":1172,"x_min":-53,"x_max":1151,"o":"m 1151 690 q 1050 414 1151 530 q 781 238 950 298 l 771 195 l 1093 195 l 1047 0 l 562 0 l 639 334 q 813 465 753 387 q 873 658 873 543 q 818 795 873 749 q 673 841 762 841 q 553 815 606 841 q 464 747 501 790 q 409 654 429 708 q 389 541 389 600 q 422 415 389 463 q 509 331 455 366 l 433 0 l -53 0 l -7 195 l 314 195 l 324 241 q 243 291 279 264 q 180 351 207 317 q 138 428 153 385 q 123 527 123 472 q 162 720 123 629 q 277 882 201 812 q 460 990 350 949 q 703 1031 570 1031 q 1029 940 907 1031 q 1151 690 1151 848 z "},"æ":{"ha":1414,"x_min":13,"x_max":1377,"o":"m 1377 513 q 1368 423 1377 467 q 1343 336 1358 379 l 791 336 q 791 328 791 332 q 791 320 791 324 q 850 192 791 233 q 1010 151 909 151 q 1156 178 1085 151 q 1280 239 1227 205 l 1307 239 l 1261 43 q 1116 -4 1192 13 q 951 -20 1040 -20 q 759 9 841 -20 q 627 94 677 39 q 447 9 535 38 q 248 -20 359 -20 q 78 29 143 -20 q 13 172 13 79 q 56 325 13 264 q 179 422 98 386 q 360 474 255 458 q 599 498 466 490 q 602 512 600 503 q 604 532 604 521 q 562 600 604 581 q 432 619 519 619 q 299 599 372 619 q 189 565 226 578 l 167 565 l 203 745 q 335 770 245 756 q 513 783 425 783 q 679 770 614 783 q 788 726 743 758 q 905 770 840 754 q 1040 785 969 785 q 1292 716 1207 785 q 1377 513 1377 648 m 1135 522 q 1102 604 1135 576 q 1013 633 1070 633 q 891 592 940 633 q 815 479 842 552 l 1131 479 q 1134 501 1133 491 q 1135 522 1135 511 m 564 208 q 554 254 557 229 q 551 302 551 278 q 552 330 551 318 q 554 358 553 342 q 336 317 404 347 q 268 224 268 288 q 298 161 268 180 q 380 143 328 143 q 467 159 420 143 q 564 208 514 176 z "},"ø":{"ha":952,"x_min":-39,"x_max":983,"o":"m 983 850 l 832 689 q 887 599 868 651 q 905 483 905 547 q 869 282 905 376 q 768 121 833 189 q 611 14 701 52 q 402 -24 522 -24 q 292 -13 344 -24 q 201 17 240 -3 l 83 -110 l -39 -110 l 128 68 q 70 162 90 108 q 50 283 50 217 q 84 476 50 385 q 184 637 118 568 q 343 746 249 706 q 553 785 437 785 q 665 774 613 785 q 760 743 718 764 l 861 850 l 983 850 m 618 591 q 576 616 600 608 q 524 623 552 623 q 433 598 474 623 q 361 526 392 572 q 316 420 332 483 q 299 288 299 358 q 300 268 299 277 q 301 253 300 259 l 618 591 m 591 231 q 639 336 622 276 q 656 474 656 396 q 656 487 656 480 q 655 500 656 494 l 342 167 q 382 145 359 153 q 434 138 405 138 q 520 162 479 138 q 591 231 562 186 z "},"¿":{"ha":857,"x_min":38,"x_max":756,"o":"m 38 222 q 127 434 38 340 q 406 597 216 528 l 439 739 l 677 739 l 623 504 q 394 406 471 465 q 316 273 316 347 q 353 192 316 218 q 458 166 390 166 q 573 187 512 166 q 699 245 635 208 l 726 245 l 677 38 q 543 -3 623 15 q 372 -20 464 -20 q 125 43 212 -20 q 38 222 38 107 m 441 831 l 482 1010 l 756 1010 l 715 831 l 441 831 z "},"¡":{"ha":559,"x_min":50,"x_max":562,"o":"m 520 831 l 246 831 l 288 1010 l 562 1010 l 520 831 m 333 0 l 50 0 l 247 719 l 468 719 l 333 0 z "},"¬":{"ha":1204,"x_min":157,"x_max":1058,"o":"m 1058 20 l 865 20 l 865 378 l 157 378 l 157 560 l 1058 560 l 1058 20 z "},"√":{"ha":1204,"x_min":93,"x_max":1461,"o":"m 1461 1247 l 625 -143 l 497 -143 l 265 522 l 93 522 l 126 665 l 453 665 l 626 149 l 1288 1247 l 1461 1247 z "},"ƒ":{"ha":987,"x_min":5,"x_max":970,"o":"m 612 446 l 568 168 q 445 -64 542 7 q 191 -136 348 -136 q 96 -130 146 -136 q 5 -117 45 -125 l 47 67 l 68 67 q 117 55 87 60 q 175 49 146 49 q 280 82 243 49 q 328 194 317 116 l 366 446 l 234 446 l 256 593 l 387 593 l 409 734 q 526 955 431 880 q 791 1031 621 1031 q 891 1025 843 1031 q 970 1011 939 1019 l 928 828 l 908 828 q 860 840 890 834 q 801 846 829 846 q 698 816 736 846 q 650 707 661 786 l 634 593 l 838 593 l 817 446 l 612 446 z "},"≈":{"ha":1204,"x_min":136,"x_max":1126,"o":"m 1126 825 q 1041 560 1114 648 q 821 473 968 473 q 695 504 757 473 q 587 574 634 535 q 506 629 549 606 q 433 652 464 652 q 352 610 377 652 q 319 482 326 568 l 136 482 q 222 743 149 658 q 441 829 296 829 q 543 808 488 829 q 675 728 597 787 q 769 666 736 682 q 830 649 802 649 q 912 694 886 649 q 944 825 938 739 l 1126 825 m 1126 397 q 1041 135 1114 220 q 821 51 968 51 q 695 82 757 51 q 587 152 634 113 q 506 208 549 184 q 433 231 464 231 q 352 185 377 231 q 319 54 326 140 l 136 54 q 222 318 149 230 q 441 407 296 407 q 543 386 488 407 q 675 306 597 366 q 769 244 736 260 q 830 227 802 227 q 912 269 886 227 q 944 397 938 311 l 1126 397 z "},"∆":{"ha":1119,"x_min":-66,"x_max":1007,"o":"m 1007 0 l -66 0 l 554 1010 l 854 1010 l 1007 0 m 725 194 l 648 751 l 315 194 l 725 194 z "},"«":{"ha":1180,"x_min":152,"x_max":1078,"o":"m 913 87 l 577 401 l 598 492 l 1078 806 l 1027 584 l 788 433 l 958 281 l 913 87 m 488 87 l 152 401 l 173 492 l 653 806 l 602 584 l 363 433 l 533 281 l 488 87 z "},"»":{"ha":1180,"x_min":132,"x_max":1058,"o":"m 1037 400 l 557 87 l 608 309 l 847 460 l 677 611 l 722 806 l 1058 492 l 1037 400 m 612 400 l 132 87 l 182 309 l 422 460 l 252 611 l 297 806 l 633 492 l 612 400 z "},"…":{"ha":1457,"x_min":37,"x_max":1306,"o":"m 1245 0 l 1008 0 l 1069 267 l 1306 267 l 1245 0 m 760 0 l 522 0 l 583 267 l 821 267 l 760 0 m 274 0 l 37 0 l 98 267 l 335 267 l 274 0 z "},"À":{"ha":1078,"x_min":-63,"x_max":984,"o":"m 984 0 l 722 0 l 699 206 l 327 206 l 209 0 l -63 0 l 543 1010 l 844 1010 l 984 0 m 679 387 l 638 750 l 430 387 l 679 387 m 831 1123 l 677 1123 l 484 1376 l 484 1390 l 715 1390 l 831 1123 z "},"Ã":{"ha":1078,"x_min":-63,"x_max":1014,"o":"m 984 0 l 722 0 l 699 206 l 327 206 l 209 0 l -63 0 l 543 1010 l 844 1010 l 984 0 m 679 387 l 638 750 l 430 387 l 679 387 m 1014 1350 q 937 1185 995 1244 q 790 1126 879 1126 q 717 1140 749 1126 q 648 1179 685 1154 q 615 1198 630 1192 q 585 1204 601 1204 q 537 1183 553 1204 q 509 1121 521 1162 l 360 1121 q 437 1286 378 1226 q 584 1345 496 1345 q 657 1332 626 1345 q 726 1293 689 1318 q 758 1273 745 1279 q 789 1267 770 1267 q 838 1289 822 1267 q 865 1350 854 1311 l 1014 1350 z "},"Õ":{"ha":1181,"x_min":80,"x_max":1158,"o":"m 1158 634 q 1116 390 1158 510 q 994 180 1074 270 q 789 31 906 83 q 521 -21 673 -21 q 197 86 314 -21 q 80 380 80 193 q 125 630 80 511 q 253 839 170 749 q 454 979 334 926 q 716 1031 574 1031 q 1041 924 924 1031 q 1158 634 1158 817 m 785 290 q 858 430 831 350 q 884 613 884 509 q 832 783 884 722 q 684 844 780 844 q 563 815 621 844 q 458 728 506 787 q 382 588 411 671 q 354 399 354 504 q 407 224 354 283 q 555 165 460 165 q 680 198 620 165 q 785 290 741 230 m 1065 1350 q 988 1185 1046 1244 q 842 1126 930 1126 q 769 1140 801 1126 q 700 1179 736 1154 q 667 1198 682 1192 q 637 1204 652 1204 q 589 1183 605 1204 q 560 1121 572 1162 l 412 1121 q 489 1286 430 1226 q 635 1345 547 1345 q 709 1332 677 1345 q 777 1293 741 1318 q 809 1273 797 1279 q 840 1267 822 1267 q 890 1289 873 1267 q 917 1350 906 1311 l 1065 1350 z "},"Œ":{"ha":1577,"x_min":80,"x_max":1633,"o":"m 1400 0 l 648 0 q 421 20 527 0 q 241 86 315 41 q 122 207 165 132 q 80 391 80 282 q 145 690 80 561 q 341 904 211 820 q 538 985 428 961 q 809 1010 648 1010 l 1633 1010 l 1589 819 l 1118 819 l 1076 638 l 1513 638 l 1468 446 l 1031 446 l 972 191 l 1443 191 l 1400 0 m 711 189 l 857 821 q 648 807 711 821 q 517 753 584 794 q 399 625 445 708 q 354 424 354 541 q 435 241 354 294 q 711 189 515 189 z "},"œ":{"ha":1483,"x_min":50,"x_max":1454,"o":"m 1454 513 q 1445 423 1454 467 q 1421 336 1436 379 l 869 336 q 869 328 869 332 q 869 320 869 324 q 927 192 869 233 q 1088 151 986 151 q 1233 178 1162 151 q 1357 239 1304 205 l 1384 239 l 1339 43 q 1194 -4 1270 13 q 1028 -20 1118 -20 q 846 5 924 -20 q 719 77 769 31 q 577 2 654 28 q 402 -24 500 -24 q 141 57 232 -24 q 50 283 50 138 q 84 476 50 385 q 184 637 118 568 q 343 746 249 706 q 553 785 437 785 q 710 763 643 785 q 821 699 777 741 q 956 763 880 740 q 1118 785 1031 785 q 1369 716 1284 785 q 1454 513 1454 648 m 1212 522 q 1180 604 1212 576 q 1090 633 1147 633 q 968 592 1017 633 q 892 479 920 552 l 1208 479 q 1211 501 1210 491 q 1212 522 1212 511 m 651 474 q 620 581 651 543 q 524 619 589 619 q 433 594 472 619 q 364 523 394 569 q 320 417 336 480 q 304 288 304 354 q 339 176 304 210 q 434 142 374 142 q 519 166 478 142 q 588 233 559 191 q 635 337 619 281 q 651 474 651 393 z "},"–":{"ha":987,"x_min":96,"x_max":923,"o":"m 881 358 l 96 358 l 138 540 l 923 540 l 881 358 z "},"—":{"ha":1389,"x_min":96,"x_max":1324,"o":"m 1282 358 l 96 358 l 138 540 l 1324 540 l 1282 358 z "},"“":{"ha":816,"x_min":134,"x_max":764,"o":"m 764 656 l 608 656 l 503 1055 l 750 1055 l 764 656 m 395 656 l 239 656 l 134 1055 l 381 1055 l 395 656 z "},"”":{"ha":816,"x_min":157,"x_max":977,"o":"m 977 1055 l 688 656 l 526 656 l 725 1055 l 977 1055 m 608 1055 l 319 656 l 157 656 l 356 1055 l 608 1055 z "},"‘":{"ha":461,"x_min":123,"x_max":385,"o":"m 385 656 l 229 656 l 123 1055 l 370 1055 l 385 656 z "},"’":{"ha":461,"x_min":171,"x_max":622,"o":"m 622 1055 l 332 656 l 171 656 l 370 1055 l 622 1055 z "},"÷":{"ha":1204,"x_min":163,"x_max":1072,"o":"m 732 679 l 502 679 l 502 898 l 732 898 l 732 679 m 1072 358 l 163 358 l 163 540 l 1072 540 l 1072 358 m 732 0 l 502 0 l 502 219 l 732 219 l 732 0 z "},"◊":{"ha":1204,"x_min":102,"x_max":1161,"o":"m 1161 477 l 631 -96 l 102 477 l 631 1050 l 1161 477 m 903 477 l 631 771 l 359 477 l 631 184 l 903 477 z "},"ÿ":{"ha":904,"x_min":40,"x_max":972,"o":"m 308 -279 l 40 -279 l 234 15 l 109 762 l 358 762 l 424 262 l 714 762 l 972 762 l 308 -279 m 869 1055 l 826 870 l 625 870 l 667 1055 l 869 1055 m 505 1055 l 462 870 l 260 870 l 303 1055 l 505 1055 z "},"Ÿ":{"ha":1023,"x_min":152,"x_max":1163,"o":"m 1163 1010 l 648 391 l 558 0 l 296 0 l 384 378 l 152 1010 l 431 1010 l 560 614 l 862 1010 l 1163 1010 m 976 1308 l 933 1123 l 732 1123 l 774 1308 l 976 1308 m 612 1308 l 569 1123 l 368 1123 l 410 1308 l 612 1308 z "},"⁄":{"ha":446,"x_min":-231,"x_max":720,"o":"m 720 1016 l -47 0 l -231 0 l 536 1016 l 720 1016 z "},"€":{"ha":987,"x_min":0,"x_max":1051,"o":"m 1051 950 l 991 705 l 962 705 q 839 805 897 774 q 694 835 781 835 q 532 786 604 835 q 415 659 460 738 l 564 659 l 532 568 l 376 568 q 363 510 368 541 q 355 448 357 479 l 488 448 l 455 357 l 356 357 q 420 218 366 262 q 560 175 474 175 q 731 210 654 175 q 882 303 808 245 l 909 303 l 850 62 q 697 4 781 28 q 500 -20 614 -20 q 196 78 307 -20 q 80 357 84 176 l 0 357 l 33 448 l 84 448 q 92 509 87 479 q 105 568 98 539 l 20 568 l 53 659 l 138 659 q 193 760 161 711 q 264 848 226 808 q 466 981 349 933 q 707 1029 583 1029 q 895 1010 811 1029 q 1051 950 979 991 z "},"‹":{"ha":755,"x_min":152,"x_max":653,"o":"m 488 87 l 152 401 l 173 492 l 653 806 l 602 584 l 363 433 l 533 281 l 488 87 z "},"›":{"ha":755,"x_min":132,"x_max":633,"o":"m 612 400 l 132 87 l 182 309 l 422 460 l 252 611 l 297 806 l 633 492 l 612 400 z "},"ﬁ":{"ha":1010,"x_min":45,"x_max":1058,"o":"m 807 0 l 562 0 l 701 601 l 430 601 l 291 0 l 45 0 l 184 601 l 80 601 l 117 762 l 222 762 l 227 783 q 348 996 259 930 q 578 1062 436 1062 q 672 1058 627 1062 q 745 1048 716 1054 l 705 876 l 688 876 q 650 887 675 880 q 600 893 625 893 q 507 863 538 893 q 460 768 475 833 l 459 762 l 983 762 l 807 0 m 1058 1055 l 1015 870 l 771 870 l 814 1055 l 1058 1055 z "},"ﬂ":{"ha":1015,"x_min":45,"x_max":1054,"o":"m 458 762 l 647 762 l 610 601 l 430 601 l 290 0 l 45 0 l 184 601 l 80 601 l 117 762 l 220 762 l 225 781 q 281 915 244 861 q 372 1002 318 969 q 501 1048 427 1034 q 667 1062 575 1062 q 790 1053 717 1062 q 895 1040 863 1044 l 1054 1055 l 810 0 l 565 0 l 770 886 q 718 893 749 889 q 654 897 686 897 q 523 866 569 897 q 463 782 477 836 l 458 762 z "},"‡":{"ha":987,"x_min":149,"x_max":914,"o":"m 808 346 l 562 349 l 505 92 l 333 92 l 396 349 l 149 346 l 184 502 l 431 498 l 467 654 l 219 651 l 255 807 l 501 804 l 555 1055 l 728 1055 l 667 804 l 914 807 l 878 651 l 631 654 l 595 498 l 844 502 l 808 346 z "},"∙":{"ha":502,"x_min":109,"x_max":424,"o":"m 363 315 l 109 315 l 170 581 l 424 581 l 363 315 z "},"‚":{"ha":461,"x_min":-76,"x_max":375,"o":"m 375 267 l 85 -133 l -76 -133 l 123 267 l 375 267 z "},"„":{"ha":816,"x_min":-87,"x_max":733,"o":"m 733 267 l 444 -133 l 282 -133 l 481 267 l 733 267 m 364 267 l 75 -133 l -87 -133 l 112 267 l 364 267 z "},"‰":{"ha":2469,"x_min":144,"x_max":2367,"o":"m 777 787 q 681 485 777 599 q 422 371 585 371 q 214 433 284 371 q 144 618 144 496 q 241 918 144 806 q 499 1029 338 1029 q 706 967 635 1029 q 777 787 777 905 m 578 773 q 555 857 578 829 q 486 885 532 885 q 384 812 425 885 q 342 627 342 739 q 366 543 342 571 q 435 515 389 515 q 539 592 500 515 q 578 773 578 669 m 1666 395 q 1570 93 1666 207 q 1311 -21 1474 -21 q 1103 41 1173 -21 q 1033 227 1033 104 q 1130 526 1033 414 q 1388 637 1227 637 q 1595 575 1525 637 q 1666 395 1666 513 m 1468 381 q 1444 465 1468 437 q 1375 493 1421 493 q 1273 420 1314 493 q 1232 235 1232 347 q 1255 151 1232 179 q 1324 123 1278 123 q 1429 200 1390 123 q 1468 381 1468 277 m 1352 1010 l 644 0 l 460 0 l 1168 1010 l 1352 1010 m 2367 395 q 2271 93 2367 207 q 2012 -21 2175 -21 q 1804 41 1874 -21 q 1734 227 1734 104 q 1831 526 1734 414 q 2089 637 1929 637 q 2297 575 2226 637 q 2367 395 2367 513 m 2169 381 q 2146 465 2169 437 q 2076 493 2123 493 q 1974 420 2015 493 q 1933 235 1933 347 q 1956 151 1933 179 q 2026 123 1979 123 q 2130 200 2091 123 q 2169 381 2169 277 z "},"Â":{"ha":1078,"x_min":-63,"x_max":987,"o":"m 984 0 l 722 0 l 699 206 l 327 206 l 209 0 l -63 0 l 543 1010 l 844 1010 l 984 0 m 679 387 l 638 750 l 430 387 l 679 387 m 987 1116 l 814 1116 l 723 1265 l 564 1116 l 381 1116 l 661 1383 l 831 1383 l 987 1116 z "},"Ê":{"ha":949,"x_min":40,"x_max":1005,"o":"m 1005 1010 l 961 819 l 490 819 l 448 638 l 885 638 l 840 446 l 403 446 l 344 191 l 815 191 l 772 0 l 40 0 l 273 1010 l 1005 1010 m 955 1123 l 782 1123 l 691 1272 l 532 1123 l 349 1123 l 629 1390 l 799 1390 l 955 1123 z "},"Á":{"ha":1078,"x_min":-63,"x_max":984,"o":"m 984 0 l 722 0 l 699 206 l 327 206 l 209 0 l -63 0 l 543 1010 l 844 1010 l 984 0 m 679 387 l 638 750 l 430 387 l 679 387 m 968 1376 l 671 1123 l 498 1123 l 710 1390 l 968 1390 l 968 1376 z "},"Ë":{"ha":949,"x_min":40,"x_max":1005,"o":"m 1005 1010 l 961 819 l 490 819 l 448 638 l 885 638 l 840 446 l 403 446 l 344 191 l 815 191 l 772 0 l 40 0 l 273 1010 l 1005 1010 m 970 1308 l 927 1123 l 726 1123 l 768 1308 l 970 1308 m 606 1308 l 563 1123 l 361 1123 l 404 1308 l 606 1308 z "},"È":{"ha":949,"x_min":40,"x_max":1005,"o":"m 1005 1010 l 961 819 l 490 819 l 448 638 l 885 638 l 840 446 l 403 446 l 344 191 l 815 191 l 772 0 l 40 0 l 273 1010 l 1005 1010 m 781 1123 l 628 1123 l 434 1376 l 434 1390 l 665 1390 l 781 1123 z "},"Í":{"ha":758,"x_min":-5,"x_max":867,"o":"m 587 0 l -5 0 l 37 179 l 201 179 l 352 831 l 187 831 l 229 1010 l 820 1010 l 779 831 l 614 831 l 463 179 l 628 179 l 587 0 m 867 1376 l 570 1123 l 396 1123 l 608 1390 l 867 1390 l 867 1376 z "},"Î":{"ha":758,"x_min":-5,"x_max":840,"o":"m 587 0 l -5 0 l 37 179 l 201 179 l 352 831 l 187 831 l 229 1010 l 820 1010 l 779 831 l 614 831 l 463 179 l 628 179 l 587 0 m 840 1123 l 667 1123 l 576 1272 l 417 1123 l 235 1123 l 514 1390 l 684 1390 l 840 1123 z "},"Ï":{"ha":758,"x_min":-5,"x_max":871,"o":"m 587 0 l -5 0 l 37 179 l 201 179 l 352 831 l 187 831 l 229 1010 l 820 1010 l 779 831 l 614 831 l 463 179 l 628 179 l 587 0 m 871 1308 l 828 1123 l 627 1123 l 669 1308 l 871 1308 m 507 1308 l 464 1123 l 262 1123 l 305 1308 l 507 1308 z "},"Ì":{"ha":758,"x_min":-5,"x_max":820,"o":"m 587 0 l -5 0 l 37 179 l 201 179 l 352 831 l 187 831 l 229 1010 l 820 1010 l 779 831 l 614 831 l 463 179 l 628 179 l 587 0 m 688 1123 l 535 1123 l 341 1376 l 341 1390 l 572 1390 l 688 1123 z "},"Ó":{"ha":1181,"x_min":80,"x_max":1158,"o":"m 1158 634 q 1116 390 1158 510 q 994 180 1074 270 q 789 31 906 83 q 521 -21 673 -21 q 197 86 314 -21 q 80 380 80 193 q 125 630 80 511 q 253 839 170 749 q 454 979 334 926 q 716 1031 574 1031 q 1041 924 924 1031 q 1158 634 1158 817 m 785 290 q 858 430 831 350 q 884 613 884 509 q 832 783 884 722 q 684 844 780 844 q 563 815 621 844 q 458 728 506 787 q 382 588 411 671 q 354 399 354 504 q 407 224 354 283 q 555 165 460 165 q 680 198 620 165 q 785 290 741 230 m 1030 1376 l 733 1123 l 559 1123 l 772 1390 l 1030 1390 l 1030 1376 z "},"Ô":{"ha":1181,"x_min":80,"x_max":1158,"o":"m 1158 634 q 1116 390 1158 510 q 994 180 1074 270 q 789 31 906 83 q 521 -21 673 -21 q 197 86 314 -21 q 80 380 80 193 q 125 630 80 511 q 253 839 170 749 q 454 979 334 926 q 716 1031 574 1031 q 1041 924 924 1031 q 1158 634 1158 817 m 785 290 q 858 430 831 350 q 884 613 884 509 q 832 783 884 722 q 684 844 780 844 q 563 815 621 844 q 458 728 506 787 q 382 588 411 671 q 354 399 354 504 q 407 224 354 283 q 555 165 460 165 q 680 198 620 165 q 785 290 741 230 m 1018 1123 l 845 1123 l 754 1272 l 595 1123 l 412 1123 l 692 1390 l 862 1390 l 1018 1123 z "},"Ò":{"ha":1181,"x_min":80,"x_max":1158,"o":"m 1158 634 q 1116 390 1158 510 q 994 180 1074 270 q 789 31 906 83 q 521 -21 673 -21 q 197 86 314 -21 q 80 380 80 193 q 125 630 80 511 q 253 839 170 749 q 454 979 334 926 q 716 1031 574 1031 q 1041 924 924 1031 q 1158 634 1158 817 m 785 290 q 858 430 831 350 q 884 613 884 509 q 832 783 884 722 q 684 844 780 844 q 563 815 621 844 q 458 728 506 787 q 382 588 411 671 q 354 399 354 504 q 407 224 354 283 q 555 165 460 165 q 680 198 620 165 q 785 290 741 230 m 833 1123 l 680 1123 l 486 1376 l 486 1390 l 717 1390 l 833 1123 z "},"Ú":{"ha":1128,"x_min":100,"x_max":1160,"o":"m 1160 1010 l 1013 379 q 846 75 964 170 q 504 -20 728 -20 q 202 52 304 -20 q 100 269 100 123 q 104 329 100 298 q 115 385 109 359 l 260 1010 l 523 1010 l 378 384 q 370 342 373 365 q 367 304 367 319 q 405 208 367 241 q 532 175 444 175 q 672 222 618 175 q 748 370 725 270 l 897 1010 l 1160 1010 m 1023 1376 l 726 1123 l 553 1123 l 765 1390 l 1023 1390 l 1023 1376 z "},"Û":{"ha":1128,"x_min":100,"x_max":1160,"o":"m 1160 1010 l 1013 379 q 846 75 964 170 q 504 -20 728 -20 q 202 52 304 -20 q 100 269 100 123 q 104 329 100 298 q 115 385 109 359 l 260 1010 l 523 1010 l 378 384 q 370 342 373 365 q 367 304 367 319 q 405 208 367 241 q 532 175 444 175 q 672 222 618 175 q 748 370 725 270 l 897 1010 l 1160 1010 m 1022 1123 l 849 1123 l 758 1272 l 599 1123 l 416 1123 l 696 1390 l 866 1390 l 1022 1123 z "},"Ù":{"ha":1128,"x_min":100,"x_max":1160,"o":"m 1160 1010 l 1013 379 q 846 75 964 170 q 504 -20 728 -20 q 202 52 304 -20 q 100 269 100 123 q 104 329 100 298 q 115 385 109 359 l 260 1010 l 523 1010 l 378 384 q 370 342 373 365 q 367 304 367 319 q 405 208 367 241 q 532 175 444 175 q 672 222 618 175 q 748 370 725 270 l 897 1010 l 1160 1010 m 858 1123 l 705 1123 l 511 1376 l 511 1390 l 742 1390 l 858 1123 z "},"ı":{"ha":475,"x_min":27,"x_max":449,"o":"m 449 762 l 273 0 l 27 0 l 203 762 l 449 762 z "},"ˆ":{"ha":987,"x_min":268,"x_max":873,"o":"m 873 870 l 701 870 l 610 1019 l 450 870 l 268 870 l 547 1137 l 718 1137 l 873 870 z "},"˜":{"ha":987,"x_min":250,"x_max":904,"o":"m 904 1097 q 827 932 885 991 q 680 873 769 873 q 607 887 640 873 q 538 926 575 901 q 506 945 520 939 q 475 951 491 951 q 427 930 444 951 q 399 868 411 909 l 250 868 q 327 1033 269 973 q 474 1093 386 1093 q 548 1079 516 1093 q 616 1040 579 1065 q 648 1020 635 1026 q 679 1015 661 1015 q 728 1036 712 1015 q 755 1097 745 1058 l 904 1097 z "},"ˉ":{"ha":987,"x_min":302,"x_max":878,"o":"m 846 913 l 302 913 l 334 1055 l 878 1055 l 846 913 z "},"˘":{"ha":987,"x_min":336,"x_max":871,"o":"m 871 1109 q 755 915 838 979 q 549 851 673 851 q 393 895 450 851 q 336 1026 336 939 q 338 1065 336 1047 q 347 1109 340 1083 l 494 1109 q 488 1079 490 1093 q 486 1055 486 1065 q 505 994 486 1017 q 573 971 524 971 q 667 1010 632 971 q 715 1109 701 1049 l 871 1109 z "},"˙":{"ha":987,"x_min":441,"x_max":735,"o":"m 692 870 l 441 870 l 484 1055 l 735 1055 l 692 870 z "},"˚":{"ha":987,"x_min":359,"x_max":801,"o":"m 555 758 q 416 806 473 758 q 359 937 359 855 q 433 1099 359 1031 q 606 1168 507 1168 q 746 1119 692 1168 q 801 992 801 1070 q 729 827 801 897 q 555 758 657 758 m 675 981 q 655 1040 675 1017 q 596 1063 634 1063 q 515 1025 547 1063 q 484 945 484 988 q 505 886 484 910 q 565 863 526 863 q 644 899 612 863 q 675 981 675 935 z "},"¸":{"ha":987,"x_min":150,"x_max":604,"o":"m 604 14 q 514 -216 592 -146 q 291 -287 436 -287 q 219 -282 265 -287 q 150 -271 172 -277 l 181 -135 l 197 -135 q 239 -151 214 -143 q 298 -159 265 -159 q 352 -152 325 -159 q 397 -127 380 -144 q 430 -76 417 -106 q 446 14 442 -45 l 604 14 z "},"˝":{"ha":987,"x_min":300,"x_max":966,"o":"m 966 1137 l 730 870 l 588 870 l 757 1137 l 966 1137 m 678 1137 l 442 870 l 300 870 l 469 1137 l 678 1137 z "},"˛":{"ha":987,"x_min":290,"x_max":667,"o":"m 667 -131 l 635 -267 q 570 -279 601 -275 q 509 -283 539 -283 q 349 -245 407 -283 q 290 -137 290 -208 q 299 -61 290 -94 q 323 7 308 -28 l 462 7 q 447 -39 452 -17 q 441 -83 441 -61 q 465 -135 441 -117 q 541 -154 488 -154 q 602 -147 565 -154 q 661 -131 640 -140 l 667 -131 z "},"ˇ":{"ha":987,"x_min":330,"x_max":935,"o":"m 935 1137 l 656 870 l 486 870 l 330 1137 l 503 1137 l 593 988 l 753 1137 l 935 1137 z "},"Ł":{"ha":885,"x_min":-24,"x_max":814,"o":"m 769 0 l 40 0 l 115 323 l -24 227 l 16 400 l 155 496 l 273 1010 l 535 1010 l 460 683 l 734 867 l 694 694 l 420 510 l 347 195 l 814 195 l 769 0 z "},"ł":{"ha":488,"x_min":-5,"x_max":560,"o":"m 155 524 l 278 1055 l 524 1055 l 436 677 l 560 755 l 524 597 l 399 519 l 279 0 l 34 0 l 118 365 l -5 287 l 31 445 l 155 524 z "},"Š":{"ha":987,"x_min":5,"x_max":1014,"o":"m 411 -18 q 180 4 281 -18 q 5 60 79 26 l 57 302 l 85 302 q 250 203 155 238 q 452 168 344 168 q 616 198 564 168 q 668 285 668 229 q 660 321 668 306 q 627 351 651 336 q 560 381 602 366 q 450 414 517 395 q 318 458 376 435 q 218 515 259 482 q 155 591 176 548 q 134 695 134 635 q 268 938 134 847 q 634 1028 401 1028 q 845 1010 746 1028 q 1014 960 945 991 l 964 728 l 937 728 q 797 809 884 777 q 608 842 711 842 q 453 813 508 842 q 398 732 398 784 q 406 693 398 709 q 439 663 414 677 q 508 633 461 649 q 618 600 555 617 q 860 494 787 555 q 932 328 932 433 q 893 174 932 241 q 785 66 854 108 q 620 2 712 22 q 411 -18 528 -18 m 993 1390 l 713 1123 l 543 1123 l 387 1390 l 560 1390 l 651 1241 l 810 1390 l 993 1390 z "},"š":{"ha":824,"x_min":-9,"x_max":869,"o":"m 321 -21 q 132 -3 223 -21 q -9 40 40 16 l 38 241 l 60 241 q 98 212 75 228 q 163 180 121 197 q 246 153 199 164 q 349 142 294 142 q 472 161 431 142 q 513 215 513 180 q 484 256 513 242 q 363 292 454 271 q 150 378 208 328 q 93 505 93 429 q 208 708 93 634 q 520 783 323 783 q 691 765 606 783 q 817 728 777 748 l 772 536 l 751 536 q 634 596 703 573 q 494 620 566 620 q 375 601 416 620 q 333 544 333 583 q 369 498 333 514 q 482 465 405 482 q 689 387 626 434 q 753 254 753 339 q 636 53 753 126 q 321 -21 519 -21 m 869 1137 l 589 870 l 419 870 l 263 1137 l 436 1137 l 527 988 l 686 1137 l 869 1137 z "},"Ž":{"ha":961,"x_min":-28,"x_max":1026,"o":"m 820 0 l -28 0 l 15 186 l 682 818 l 185 818 l 229 1010 l 1026 1010 l 982 821 l 317 192 l 865 192 l 820 0 m 981 1390 l 702 1123 l 532 1123 l 376 1390 l 549 1390 l 640 1241 l 799 1390 l 981 1390 z "},"ž":{"ha":829,"x_min":-34,"x_max":872,"o":"m 682 0 l -34 0 l 1 150 l 502 590 l 119 590 l 159 762 l 850 762 l 816 614 l 321 175 l 722 175 l 682 0 m 872 1137 l 593 870 l 422 870 l 267 1137 l 439 1137 l 530 988 l 690 1137 l 872 1137 z "},"¦":{"ha":755,"x_min":309,"x_max":507,"o":"m 507 514 l 309 514 l 309 1055 l 507 1055 l 507 514 m 507 -266 l 309 -266 l 309 275 l 507 275 l 507 -266 z "},"Ð":{"ha":1153,"x_min":37,"x_max":1128,"o":"m 1128 616 q 1038 299 1128 444 q 806 77 947 154 q 628 15 721 31 q 406 0 535 0 l 40 0 l 146 460 l 37 460 l 73 618 l 183 618 l 273 1010 l 600 1010 q 833 987 745 1010 q 975 927 921 965 q 1089 799 1050 876 q 1128 616 1128 722 m 855 592 q 829 711 855 661 q 751 791 804 761 q 701 812 726 805 q 643 823 675 819 q 572 825 612 825 q 502 825 532 825 l 493 825 l 445 618 l 660 618 l 624 460 l 408 460 l 344 185 l 368 185 q 452 185 407 185 q 524 189 496 185 q 589 199 560 192 q 652 224 618 207 q 803 374 750 275 q 855 592 855 474 z "},"ð":{"ha":943,"x_min":44,"x_max":911,"o":"m 755 131 q 595 16 685 55 q 401 -24 505 -24 q 141 56 238 -24 q 44 279 44 136 q 171 581 44 463 q 485 699 297 699 q 583 686 540 699 q 661 654 625 673 q 629 739 654 691 q 571 831 605 786 l 343 747 l 299 861 l 484 928 q 403 993 445 964 q 320 1038 361 1022 l 323 1055 l 632 1055 q 662 1032 646 1045 q 694 1004 677 1019 l 867 1067 l 911 954 l 785 909 q 877 743 848 830 q 905 555 905 656 q 865 313 905 420 q 755 131 825 205 m 644 477 q 579 520 615 505 q 503 536 544 536 q 355 470 410 536 q 301 288 301 404 q 332 182 301 219 q 426 145 363 145 q 574 237 518 145 q 644 477 631 329 z "},"Ý":{"ha":1023,"x_min":152,"x_max":1163,"o":"m 1163 1010 l 648 391 l 558 0 l 296 0 l 384 378 l 152 1010 l 431 1010 l 560 614 l 862 1010 l 1163 1010 m 968 1376 l 671 1123 l 498 1123 l 710 1390 l 968 1390 l 968 1376 z "},"ý":{"ha":904,"x_min":40,"x_max":972,"o":"m 308 -279 l 40 -279 l 234 15 l 109 762 l 358 762 l 424 262 l 714 762 l 972 762 l 308 -279 m 880 1123 l 583 870 l 410 870 l 622 1137 l 880 1137 l 880 1123 z "},"Þ":{"ha":1021,"x_min":41,"x_max":1010,"o":"m 901 797 q 982 710 954 764 q 1010 578 1010 657 q 971 413 1010 488 q 861 285 933 338 q 683 202 785 231 q 442 176 582 174 l 343 178 l 302 0 l 41 0 l 274 1010 l 536 1010 l 500 857 l 602 857 q 774 844 701 857 q 901 797 848 830 m 732 553 q 689 640 732 612 q 562 669 646 669 l 457 669 l 387 366 l 481 366 q 666 415 600 366 q 732 553 732 463 z "},"þ":{"ha":971,"x_min":-38,"x_max":926,"o":"m 926 518 q 892 314 926 413 q 799 144 858 216 q 660 27 737 69 q 486 -15 582 -15 q 373 -1 425 -15 q 281 38 322 13 l 208 -279 l -38 -279 l 271 1055 l 516 1055 l 430 682 q 558 756 499 730 q 688 783 616 783 q 865 712 803 783 q 926 518 926 642 m 608 251 q 653 351 637 294 q 669 475 669 408 q 642 570 669 537 q 545 603 614 603 q 474 590 509 603 q 401 557 439 578 l 313 174 q 363 160 334 165 q 422 155 392 155 q 532 181 484 155 q 608 251 579 208 z "},"−":{"ha":1204,"x_min":189,"x_max":1074,"o":"m 1074 358 l 189 358 l 189 540 l 1074 540 l 1074 358 z "},"×":{"ha":1204,"x_min":208,"x_max":1057,"o":"m 1057 151 l 930 24 l 633 323 l 338 28 l 212 155 l 507 449 l 208 747 l 335 873 l 633 574 l 927 870 l 1054 743 l 758 449 l 1057 151 z "},"¹":{"ha":830,"x_min":176,"x_max":678,"o":"m 678 511 l 649 384 l 176 384 l 205 511 l 352 511 l 419 800 l 266 800 l 294 921 q 423 942 371 921 q 492 1013 475 962 l 654 1013 l 538 511 l 678 511 z "},"²":{"ha":830,"x_min":136,"x_max":747,"o":"m 747 862 q 730 769 747 811 q 675 692 712 728 q 576 613 638 656 q 436 524 513 571 l 715 524 l 683 384 l 136 384 l 165 512 q 300 589 228 545 q 406 657 372 632 q 501 737 471 703 q 530 811 530 770 q 505 866 530 847 q 431 886 480 886 q 354 872 393 886 q 257 828 315 858 l 241 828 l 278 989 q 389 1019 335 1007 q 501 1030 442 1030 q 685 986 623 1030 q 747 862 747 942 z "},"³":{"ha":830,"x_min":148,"x_max":760,"o":"m 760 878 q 719 774 760 815 q 610 713 677 733 l 608 707 q 687 665 658 694 q 716 583 716 637 q 629 425 716 483 q 408 368 542 368 q 253 379 322 368 q 148 407 184 391 l 176 553 l 191 553 q 273 522 217 538 q 382 507 329 507 q 483 525 448 507 q 517 582 517 544 q 496 623 517 609 q 421 637 475 637 l 317 637 l 343 770 l 436 770 q 524 789 496 770 q 551 840 551 809 q 524 881 551 867 q 437 894 498 894 q 346 878 397 894 q 259 844 296 862 l 243 844 l 271 989 q 377 1017 321 1005 q 498 1029 432 1029 q 697 990 635 1029 q 760 878 760 950 z "},"½":{"ha":1641,"x_min":215,"x_max":1525,"o":"m 613 1013 l 467 379 l 279 379 l 374 791 l 215 791 l 243 914 q 376 938 319 914 q 449 1013 433 962 l 613 1013 m 1268 1016 l 501 0 l 317 0 l 1084 1016 l 1268 1016 m 1525 477 q 1508 385 1525 427 q 1453 308 1490 343 q 1354 229 1416 271 q 1214 139 1291 186 l 1493 139 l 1461 -1 l 913 -1 l 943 127 q 1078 204 1006 161 q 1184 273 1149 248 q 1279 352 1249 319 q 1308 427 1308 386 q 1283 482 1308 463 q 1209 501 1258 501 q 1132 487 1171 501 q 1035 444 1093 473 l 1019 444 l 1056 604 q 1166 634 1113 623 q 1279 646 1220 646 q 1463 602 1400 646 q 1525 477 1525 557 z "},"¼":{"ha":1641,"x_min":229,"x_max":1505,"o":"m 627 1013 l 480 379 l 292 379 l 387 791 l 229 791 l 257 914 q 390 938 333 914 q 463 1013 446 962 l 627 1013 m 1292 1016 l 525 0 l 341 0 l 1108 1016 l 1292 1016 m 1505 260 l 1476 134 l 1362 134 l 1332 0 l 1154 0 l 1185 134 l 863 134 l 905 311 l 1292 640 l 1480 640 l 1392 260 l 1505 260 m 1270 489 l 996 260 l 1217 260 l 1270 489 z "},"¾":{"ha":1641,"x_min":121,"x_max":1539,"o":"m 732 878 q 691 774 732 815 q 583 713 650 733 l 581 707 q 660 665 631 694 q 689 583 689 637 q 602 425 689 483 q 381 368 515 368 q 226 379 295 368 q 121 407 157 391 l 149 553 l 164 553 q 246 522 190 538 q 355 507 302 507 q 455 525 420 507 q 490 582 490 544 q 469 623 490 609 q 394 637 448 637 l 290 637 l 316 770 l 409 770 q 496 789 469 770 q 524 840 524 809 q 497 881 524 867 q 410 894 471 894 q 319 878 370 894 q 232 844 269 862 l 216 844 l 244 989 q 350 1017 294 1005 q 471 1029 405 1029 q 670 990 608 1029 q 732 878 732 950 m 1356 1016 l 589 0 l 406 0 l 1173 1016 l 1356 1016 m 1539 260 l 1510 134 l 1396 134 l 1366 0 l 1188 0 l 1219 134 l 897 134 l 939 311 l 1326 640 l 1514 640 l 1426 260 l 1539 260 m 1303 489 l 1029 260 l 1251 260 l 1303 489 z "},"₣":{"ha":987,"x_min":21,"x_max":1033,"o":"m 989 819 l 543 819 l 501 642 l 921 642 l 877 451 l 457 451 l 427 321 l 665 321 l 633 176 l 394 176 l 353 0 l 99 0 l 140 176 l 21 176 l 54 321 l 173 321 l 332 1010 l 1033 1010 l 989 819 z "},"Ğ":{"ha":1126,"x_min":80,"x_max":1141,"o":"m 538 -21 q 202 81 323 -21 q 80 370 80 182 q 268 845 80 661 q 745 1029 456 1029 q 947 1011 854 1029 q 1141 940 1040 992 l 1083 703 l 1054 703 q 900 811 972 781 q 740 841 827 841 q 579 805 651 841 q 456 707 507 768 q 381 568 408 648 q 354 401 354 488 q 420 222 354 279 q 637 165 487 165 q 669 165 652 165 q 702 168 687 166 l 748 366 l 547 366 l 591 556 l 1057 556 l 941 58 q 749 3 851 26 q 538 -21 647 -21 m 1063 1362 q 948 1168 1030 1232 q 742 1104 866 1104 q 586 1148 643 1104 q 529 1279 529 1192 q 531 1318 529 1300 q 539 1362 533 1336 l 686 1362 q 681 1332 682 1346 q 679 1308 679 1318 q 698 1247 679 1270 q 766 1224 717 1224 q 859 1263 825 1224 q 908 1362 894 1302 l 1063 1362 z "},"ğ":{"ha":971,"x_min":-1,"x_max":945,"o":"m 945 762 l 791 87 q 720 -93 766 -21 q 608 -208 674 -165 q 461 -269 541 -252 q 283 -287 382 -287 q 125 -277 201 -287 q -1 -254 50 -267 l 36 -67 l 66 -67 q 180 -102 122 -89 q 282 -115 237 -115 q 394 -103 347 -115 q 469 -68 441 -91 q 515 -10 498 -45 q 543 75 532 24 l 547 89 q 441 32 494 53 q 323 11 389 11 q 123 75 195 11 q 51 270 51 140 q 178 638 51 494 q 486 783 304 783 q 604 767 551 783 q 690 728 657 751 l 707 762 l 945 762 m 659 585 q 607 602 639 594 q 550 610 574 610 q 374 528 441 610 q 308 317 308 446 q 336 226 308 258 q 439 193 365 193 q 512 207 475 193 q 581 240 549 221 l 659 585 m 869 1109 q 754 915 836 979 q 548 851 672 851 q 392 895 449 851 q 335 1026 335 939 q 337 1065 335 1047 q 345 1109 339 1083 l 492 1109 q 487 1079 488 1093 q 485 1055 485 1065 q 504 994 485 1017 q 572 971 523 971 q 665 1010 631 971 q 714 1109 700 1049 l 869 1109 z "},"İ":{"ha":758,"x_min":-5,"x_max":820,"o":"m 587 0 l -5 0 l 37 179 l 201 179 l 352 831 l 187 831 l 229 1010 l 820 1010 l 779 831 l 614 831 l 463 179 l 628 179 l 587 0 m 672 1123 l 421 1123 l 464 1308 l 715 1308 l 672 1123 z "},"Ş":{"ha":987,"x_min":5,"x_max":1014,"o":"m 411 -18 q 180 4 281 -18 q 5 60 79 26 l 57 302 l 85 302 q 250 203 155 238 q 452 168 344 168 q 616 198 564 168 q 668 285 668 229 q 660 321 668 306 q 627 351 651 336 q 560 381 602 366 q 450 414 517 395 q 318 458 376 435 q 218 515 259 482 q 155 591 176 548 q 134 695 134 635 q 268 938 134 847 q 634 1028 401 1028 q 845 1010 746 1028 q 1014 960 945 991 l 964 728 l 937 728 q 797 809 884 777 q 608 842 711 842 q 453 813 508 842 q 398 732 398 784 q 406 693 398 709 q 439 663 414 677 q 508 633 461 649 q 618 600 555 617 q 860 494 787 555 q 932 328 932 433 q 893 174 932 241 q 785 66 854 108 q 710 31 750 46 q 627 5 671 15 q 536 -218 614 -150 q 315 -287 458 -287 q 242 -282 289 -287 q 174 -271 196 -277 l 205 -135 l 220 -135 q 263 -151 237 -143 q 322 -159 289 -159 q 372 -153 347 -159 q 415 -132 398 -147 q 447 -90 433 -116 q 467 -16 460 -63 q 439 -17 454 -16 q 411 -18 425 -18 z "},"ş":{"ha":824,"x_min":-9,"x_max":817,"o":"m 321 -20 q 132 -2 223 -20 q -9 40 40 16 l 38 241 l 60 241 q 98 212 75 228 q 163 180 121 197 q 246 153 199 164 q 349 142 294 142 q 472 161 431 142 q 513 215 513 180 q 484 256 513 242 q 363 292 454 271 q 150 378 208 328 q 93 505 93 429 q 208 708 93 634 q 520 783 323 783 q 691 765 606 783 q 817 728 777 748 l 772 536 l 751 536 q 634 596 703 573 q 494 620 566 620 q 375 601 416 620 q 333 544 333 583 q 369 498 333 514 q 482 465 405 482 q 689 387 626 434 q 753 254 753 339 q 695 103 753 166 q 536 8 638 39 q 445 -217 523 -148 q 224 -287 368 -287 q 152 -282 198 -287 q 83 -271 105 -277 l 114 -135 l 130 -135 q 172 -151 146 -143 q 231 -159 198 -159 q 281 -152 254 -159 q 323 -132 308 -146 q 356 -89 342 -117 q 375 -19 370 -61 q 348 -20 362 -19 q 321 -20 334 -20 z "},"Ć":{"ha":1005,"x_min":80,"x_max":1069,"o":"m 507 -20 q 191 81 302 -20 q 80 370 80 182 q 129 639 80 518 q 264 848 178 760 q 466 981 349 933 q 713 1029 584 1029 q 907 1008 818 1029 q 1069 945 997 987 l 1009 701 l 979 701 q 851 802 915 770 q 701 835 787 835 q 452 713 550 835 q 354 404 354 592 q 408 229 354 283 q 567 175 463 175 q 743 213 661 175 q 898 309 825 250 l 925 309 l 866 67 q 795 38 836 55 q 717 9 754 20 q 626 -12 668 -5 q 507 -20 583 -20 m 1016 1376 l 719 1123 l 545 1123 l 758 1390 l 1016 1390 l 1016 1376 z "},"ć":{"ha":817,"x_min":50,"x_max":870,"o":"m 420 -20 q 274 -1 342 -20 q 155 59 206 18 q 78 159 106 99 q 50 299 50 220 q 89 489 50 401 q 199 643 128 577 q 368 745 268 707 q 583 783 467 783 q 722 767 653 783 q 850 722 791 751 l 798 513 l 764 513 q 673 585 724 562 q 559 608 623 608 q 374 527 444 608 q 304 323 304 445 q 348 196 304 238 q 481 154 391 154 q 610 183 552 154 q 709 247 668 212 l 744 247 l 692 39 q 564 -7 619 7 q 420 -20 509 -20 m 870 1123 l 573 870 l 399 870 l 612 1137 l 870 1137 l 870 1123 z "},"Č":{"ha":1005,"x_min":80,"x_max":1069,"o":"m 507 -20 q 191 81 302 -20 q 80 370 80 182 q 129 639 80 518 q 264 848 178 760 q 466 981 349 933 q 713 1029 584 1029 q 907 1008 818 1029 q 1069 945 997 987 l 1009 701 l 979 701 q 851 802 915 770 q 701 835 787 835 q 452 713 550 835 q 354 404 354 592 q 408 229 354 283 q 567 175 463 175 q 743 213 661 175 q 898 309 825 250 l 925 309 l 866 67 q 795 38 836 55 q 717 9 754 20 q 626 -12 668 -5 q 507 -20 583 -20 m 1061 1390 l 782 1123 l 612 1123 l 456 1390 l 629 1390 l 720 1241 l 879 1390 l 1061 1390 z "},"č":{"ha":817,"x_min":50,"x_max":932,"o":"m 420 -20 q 274 -1 342 -20 q 155 59 206 18 q 78 159 106 99 q 50 299 50 220 q 89 489 50 401 q 199 643 128 577 q 368 745 268 707 q 583 783 467 783 q 722 767 653 783 q 850 722 791 751 l 798 513 l 764 513 q 673 585 724 562 q 559 608 623 608 q 374 527 444 608 q 304 323 304 445 q 348 196 304 238 q 481 154 391 154 q 610 183 552 154 q 709 247 668 212 l 744 247 l 692 39 q 564 -7 619 7 q 420 -20 509 -20 m 932 1137 l 652 870 l 482 870 l 326 1137 l 499 1137 l 590 988 l 749 1137 l 932 1137 z "},"đ":{"ha":971,"x_min":47,"x_max":1080,"o":"m 964 841 l 769 0 l 524 0 l 542 79 q 480 39 507 57 q 420 6 453 21 q 360 -14 390 -7 q 290 -21 331 -21 q 113 51 179 -21 q 47 255 47 123 q 82 459 47 363 q 178 627 117 554 q 319 741 237 699 q 489 783 400 783 q 597 770 551 783 q 692 731 644 758 l 718 841 l 496 841 l 527 977 l 749 977 l 768 1055 l 1013 1055 l 995 977 l 1080 977 l 1048 841 l 964 841 m 659 584 q 607 601 639 593 q 551 609 575 609 q 446 583 492 609 q 366 513 399 557 q 320 411 337 473 q 303 291 303 349 q 335 191 303 222 q 432 160 367 160 q 502 175 465 160 q 572 210 539 190 l 659 584 z "},"¯":{"ha":987,"x_min":156,"x_max":1198,"o":"m 1198 1247 l 1165 1104 l 156 1104 l 189 1247 l 1198 1247 z "},"·":{"ha":502,"x_min":109,"x_max":424,"o":"m 363 315 l 109 315 l 170 581 l 424 581 l 363 315 z "},"Ă":{"ha":1078,"x_min":-63,"x_max":1004,"o":"m 984 0 l 722 0 l 699 206 l 327 206 l 209 0 l -63 0 l 543 1010 l 844 1010 l 984 0 m 679 387 l 638 750 l 430 387 l 679 387 m 1004 1362 q 888 1168 970 1232 q 682 1104 806 1104 q 526 1148 583 1104 q 469 1279 469 1192 q 471 1318 469 1300 q 479 1362 473 1336 l 627 1362 q 621 1332 623 1346 q 619 1308 619 1318 q 638 1247 619 1270 q 706 1224 657 1224 q 800 1263 765 1224 q 848 1362 834 1302 l 1004 1362 z "},"ă":{"ha":928,"x_min":13,"x_max":860,"o":"m 572 359 q 450 347 507 354 q 353 325 393 339 q 290 283 311 310 q 268 211 268 256 q 297 156 268 172 q 380 140 326 140 q 457 156 416 140 q 534 199 498 173 l 572 359 m 507 81 q 452 45 484 66 q 391 12 419 24 q 320 -12 353 -4 q 228 -20 287 -20 q 73 33 133 -20 q 13 172 13 86 q 56 325 13 262 q 182 425 98 387 q 370 475 261 460 q 606 498 479 491 q 608 512 606 503 q 610 532 610 521 q 566 600 610 581 q 432 619 521 619 q 299 599 372 619 q 189 565 226 578 l 167 565 l 203 745 q 335 770 245 756 q 513 783 425 783 q 776 736 692 783 q 860 591 860 690 q 858 556 860 578 q 851 518 855 534 l 732 0 l 489 0 l 507 81 m 839 1109 q 724 915 806 979 q 517 851 642 851 q 361 895 418 851 q 304 1026 304 939 q 307 1065 304 1047 q 315 1109 309 1083 l 462 1109 q 456 1079 458 1093 q 454 1055 454 1065 q 473 994 454 1017 q 541 971 492 971 q 635 1010 600 971 q 684 1109 669 1049 l 839 1109 z "},"Ą":{"ha":1078,"x_min":-63,"x_max":1025,"o":"m 666 -36 q 674 -13 666 -36 q 714 65 683 11 l 699 206 l 327 206 l 209 0 l -63 0 l 543 1010 l 844 1010 l 984 0 l 818 0 q 805 -42 810 -20 q 800 -83 800 -64 q 824 -135 800 -117 q 900 -154 847 -154 q 961 -147 924 -154 q 1019 -131 998 -140 l 1025 -131 l 994 -267 q 929 -279 960 -275 q 867 -283 898 -283 q 707 -244 765 -283 q 649 -134 649 -206 q 666 -36 649 -83 m 679 387 l 638 750 l 430 387 l 679 387 z "},"ą":{"ha":928,"x_min":13,"x_max":860,"o":"m 572 359 q 450 347 507 354 q 353 325 393 339 q 290 283 311 310 q 268 211 268 256 q 297 156 268 172 q 380 140 326 140 q 457 156 416 140 q 534 199 498 173 l 572 359 m 509 81 q 452 45 485 66 q 391 12 419 24 q 320 -12 353 -4 q 228 -20 287 -20 q 73 33 133 -20 q 13 172 13 86 q 56 325 13 262 q 182 425 98 387 q 370 475 261 460 q 606 498 479 491 q 608 512 606 503 q 610 532 610 521 q 566 600 610 581 q 432 619 521 619 q 299 599 372 619 q 189 565 226 578 l 167 565 l 203 745 q 335 770 245 756 q 513 783 425 783 q 776 736 692 783 q 860 591 860 690 q 858 556 860 578 q 851 518 855 534 l 732 0 l 628 0 q 615 -42 620 -20 q 610 -83 610 -64 q 634 -135 610 -117 q 710 -154 657 -154 q 771 -147 734 -154 q 829 -131 808 -140 l 836 -131 l 804 -267 q 739 -279 770 -275 q 677 -283 708 -283 q 517 -245 576 -283 q 458 -136 458 -207 q 475 -26 458 -79 q 509 81 491 26 z "},"Ď":{"ha":1153,"x_min":40,"x_max":1128,"o":"m 1128 616 q 1038 299 1128 444 q 806 77 947 154 q 628 15 721 31 q 406 0 535 0 l 40 0 l 273 1010 l 600 1010 q 833 987 745 1010 q 975 927 921 965 q 1089 799 1050 876 q 1128 616 1128 722 m 855 592 q 829 711 855 661 q 751 791 804 761 q 701 812 726 805 q 643 823 675 819 q 572 825 612 825 q 502 825 532 825 l 493 825 l 344 185 l 368 185 q 452 185 407 185 q 524 189 496 185 q 589 199 560 192 q 652 224 618 207 q 803 374 750 275 q 855 592 855 474 m 1010 1390 l 730 1123 l 560 1123 l 404 1390 l 577 1390 l 668 1241 l 827 1390 l 1010 1390 z "},"ď":{"ha":1222,"x_min":47,"x_max":1445,"o":"m 1013 1055 l 769 0 l 524 0 l 542 79 q 480 39 507 57 q 420 6 453 21 q 360 -14 390 -7 q 290 -21 331 -21 q 113 51 179 -21 q 47 255 47 123 q 82 459 47 363 q 178 627 117 554 q 319 741 237 699 q 489 783 400 783 q 597 770 551 783 q 692 731 644 758 l 768 1055 l 1013 1055 m 659 584 q 607 601 639 593 q 551 609 575 609 q 446 583 492 609 q 366 513 399 557 q 320 411 337 473 q 303 291 303 349 q 335 191 303 222 q 432 160 367 160 q 502 175 465 160 q 572 210 539 190 l 659 584 m 1445 1055 l 1156 656 l 994 656 l 1193 1055 l 1445 1055 z "},"Đ":{"ha":1153,"x_min":37,"x_max":1128,"o":"m 1128 616 q 1038 299 1128 444 q 806 77 947 154 q 628 15 721 31 q 406 0 535 0 l 40 0 l 146 460 l 37 460 l 73 618 l 183 618 l 273 1010 l 600 1010 q 833 987 745 1010 q 975 927 921 965 q 1089 799 1050 876 q 1128 616 1128 722 m 855 592 q 829 711 855 661 q 751 791 804 761 q 701 812 726 805 q 643 823 675 819 q 572 825 612 825 q 502 825 532 825 l 493 825 l 445 618 l 660 618 l 624 460 l 408 460 l 344 185 l 368 185 q 452 185 407 185 q 524 189 496 185 q 589 199 560 192 q 652 224 618 207 q 803 374 750 275 q 855 592 855 474 z "},"Ę":{"ha":949,"x_min":40,"x_max":1005,"o":"m 1005 1010 l 961 819 l 490 819 l 448 638 l 885 638 l 840 446 l 403 446 l 344 191 l 815 191 l 772 0 l 591 0 q 578 -42 583 -20 q 573 -83 573 -64 q 596 -135 573 -117 q 673 -154 620 -154 q 734 -147 696 -154 q 792 -131 771 -140 l 798 -131 l 767 -267 q 702 -279 732 -275 q 640 -283 671 -283 q 480 -245 538 -283 q 422 -137 422 -208 q 429 -64 422 -91 q 452 0 435 -37 l 40 0 l 273 1010 l 1005 1010 z "},"ę":{"ha":922,"x_min":51,"x_max":890,"o":"m 644 479 q 647 501 646 491 q 648 522 648 511 q 614 604 648 576 q 519 633 581 633 q 392 592 444 633 q 315 479 341 551 l 644 479 m 381 -16 q 137 84 222 0 q 51 304 51 168 q 85 494 51 408 q 185 647 120 581 q 341 748 248 711 q 547 785 435 785 q 803 716 717 785 q 890 513 890 648 q 881 423 890 467 q 857 336 871 379 l 291 336 q 291 328 291 332 q 291 320 291 324 q 347 196 291 241 q 517 151 402 151 q 668 178 597 151 q 793 239 740 205 l 820 239 l 774 43 q 653 2 716 18 q 520 -18 589 -14 q 512 -48 515 -31 q 509 -83 509 -65 q 533 -135 509 -117 q 609 -154 556 -154 q 670 -147 633 -154 q 728 -131 707 -140 l 734 -131 l 703 -267 q 638 -279 669 -275 q 576 -283 607 -283 q 416 -245 475 -283 q 358 -137 358 -208 q 363 -75 358 -101 q 381 -16 368 -49 z "},"Ě":{"ha":949,"x_min":40,"x_max":1005,"o":"m 1005 1010 l 961 819 l 490 819 l 448 638 l 885 638 l 840 446 l 403 446 l 344 191 l 815 191 l 772 0 l 40 0 l 273 1010 l 1005 1010 m 977 1390 l 698 1123 l 528 1123 l 372 1390 l 545 1390 l 635 1241 l 795 1390 l 977 1390 z "},"ě":{"ha":922,"x_min":51,"x_max":912,"o":"m 644 479 q 647 501 646 491 q 648 522 648 511 q 614 604 648 576 q 519 633 581 633 q 392 592 444 633 q 315 479 341 551 l 644 479 m 457 -20 q 157 66 262 -20 q 51 304 51 152 q 85 494 51 408 q 185 647 120 581 q 341 748 248 711 q 547 785 435 785 q 803 716 717 785 q 890 513 890 648 q 881 423 890 467 q 857 336 871 379 l 291 336 q 291 328 291 332 q 291 320 291 324 q 347 196 291 241 q 517 151 402 151 q 668 178 597 151 q 793 239 740 205 l 820 239 l 774 43 q 625 -4 703 12 q 457 -20 546 -20 m 912 1137 l 633 870 l 463 870 l 307 1137 l 479 1137 l 570 988 l 730 1137 l 912 1137 z "},"Ĺ":{"ha":885,"x_min":40,"x_max":853,"o":"m 769 0 l 40 0 l 273 1010 l 535 1010 l 347 195 l 814 195 l 769 0 m 853 1376 l 556 1123 l 382 1123 l 595 1390 l 853 1390 l 853 1376 z "},"ĺ":{"ha":475,"x_min":27,"x_max":747,"o":"m 517 1055 l 273 0 l 27 0 l 271 1055 l 517 1055 m 747 1376 l 450 1123 l 277 1123 l 489 1390 l 747 1390 l 747 1376 z "},"Ľ":{"ha":885,"x_min":40,"x_max":1033,"o":"m 769 0 l 40 0 l 273 1010 l 535 1010 l 347 195 l 814 195 l 769 0 m 1033 1055 l 743 656 l 582 656 l 781 1055 l 1033 1055 z "},"ľ":{"ha":726,"x_min":27,"x_max":949,"o":"m 517 1055 l 273 0 l 27 0 l 271 1055 l 517 1055 m 949 1055 l 659 656 l 498 656 l 696 1055 l 949 1055 z "},"Ŀ":{"ha":885,"x_min":40,"x_max":895,"o":"m 769 0 l 40 0 l 273 1010 l 535 1010 l 347 195 l 814 195 l 769 0 m 833 396 l 578 396 l 640 663 l 895 663 l 833 396 z "},"ŀ":{"ha":773,"x_min":27,"x_max":814,"o":"m 517 1055 l 273 0 l 27 0 l 271 1055 l 517 1055 m 752 396 l 504 396 l 566 663 l 814 663 l 752 396 z "},"Ń":{"ha":1176,"x_min":40,"x_max":1193,"o":"m 960 0 l 738 0 l 441 699 l 280 0 l 40 0 l 273 1010 l 565 1010 l 819 425 l 953 1010 l 1193 1010 l 960 0 m 1076 1376 l 779 1123 l 606 1123 l 818 1390 l 1076 1390 l 1076 1376 z "},"ń":{"ha":989,"x_min":27,"x_max":921,"o":"m 919 589 q 916 545 919 569 q 907 496 913 522 l 793 0 l 547 0 l 633 378 q 648 450 643 420 q 654 505 654 479 q 631 570 654 549 q 549 590 609 590 q 482 577 520 590 q 397 540 444 565 l 273 0 l 27 0 l 203 762 l 448 762 l 429 677 q 566 755 504 727 q 703 783 628 783 q 862 733 805 783 q 919 589 919 684 m 921 1123 l 624 870 l 450 870 l 663 1137 l 921 1137 l 921 1123 z "},"Ň":{"ha":1176,"x_min":40,"x_max":1193,"o":"m 960 0 l 738 0 l 441 699 l 280 0 l 40 0 l 273 1010 l 565 1010 l 819 425 l 953 1010 l 1193 1010 l 960 0 m 1088 1390 l 809 1123 l 639 1123 l 483 1390 l 656 1390 l 747 1241 l 906 1390 l 1088 1390 z "},"ň":{"ha":989,"x_min":27,"x_max":935,"o":"m 919 589 q 916 545 919 569 q 907 496 913 522 l 793 0 l 547 0 l 633 378 q 648 450 643 420 q 654 505 654 479 q 631 570 654 549 q 549 590 609 590 q 482 577 520 590 q 397 540 444 565 l 273 0 l 27 0 l 203 762 l 448 762 l 429 677 q 566 755 504 727 q 703 783 628 783 q 862 733 805 783 q 919 589 919 684 m 935 1137 l 656 870 l 486 870 l 330 1137 l 503 1137 l 593 988 l 753 1137 l 935 1137 z "},"Ő":{"ha":1181,"x_min":80,"x_max":1158,"o":"m 1158 634 q 1116 390 1158 510 q 994 180 1074 270 q 789 31 906 83 q 521 -21 673 -21 q 197 86 314 -21 q 80 380 80 193 q 125 630 80 511 q 253 839 170 749 q 454 979 334 926 q 716 1031 574 1031 q 1041 924 924 1031 q 1158 634 1158 817 m 785 290 q 858 430 831 350 q 884 613 884 509 q 832 783 884 722 q 684 844 780 844 q 563 815 621 844 q 458 728 506 787 q 382 588 411 671 q 354 399 354 504 q 407 224 354 283 q 555 165 460 165 q 680 198 620 165 q 785 290 741 230 m 1135 1390 l 899 1123 l 758 1123 l 926 1390 l 1135 1390 m 848 1390 l 612 1123 l 470 1123 l 639 1390 l 848 1390 z "},"ő":{"ha":952,"x_min":50,"x_max":968,"o":"m 905 483 q 869 282 905 376 q 768 121 833 189 q 611 14 701 52 q 402 -24 522 -24 q 141 58 232 -24 q 50 283 50 139 q 84 476 50 385 q 184 637 118 568 q 343 746 249 706 q 553 785 437 785 q 815 705 724 785 q 905 483 905 625 m 588 233 q 635 337 619 281 q 651 474 651 393 q 621 582 651 544 q 524 619 590 619 q 433 594 472 619 q 364 523 394 569 q 320 417 336 480 q 304 288 304 354 q 339 176 304 210 q 434 142 374 142 q 519 166 478 142 q 588 233 559 191 m 968 1137 l 732 870 l 591 870 l 760 1137 l 968 1137 m 681 1137 l 445 870 l 303 870 l 472 1137 l 681 1137 z "},"Ŕ":{"ha":1086,"x_min":40,"x_max":1055,"o":"m 1055 755 q 981 551 1055 634 q 780 427 907 469 l 1013 0 l 722 0 l 532 370 l 386 370 l 300 0 l 40 0 l 273 1010 l 667 1010 q 954 947 852 1010 q 1055 755 1055 884 m 774 712 q 735 799 774 773 q 620 824 696 824 l 491 824 l 428 552 l 556 552 q 717 594 660 552 q 774 712 774 637 m 1008 1376 l 711 1123 l 537 1123 l 749 1390 l 1008 1390 l 1008 1376 z "},"ŕ":{"ha":690,"x_min":27,"x_max":785,"o":"m 703 529 l 681 529 q 635 537 665 534 q 576 540 605 540 q 483 533 528 540 q 391 510 438 526 l 273 0 l 27 0 l 203 762 l 449 762 l 423 650 q 561 732 492 701 q 700 764 630 764 q 729 764 713 764 q 757 762 745 763 l 703 529 m 785 1123 l 488 870 l 315 870 l 527 1137 l 785 1137 l 785 1123 z "},"Ř":{"ha":1086,"x_min":40,"x_max":1055,"o":"m 1055 755 q 981 551 1055 634 q 780 427 907 469 l 1013 0 l 722 0 l 532 370 l 386 370 l 300 0 l 40 0 l 273 1010 l 667 1010 q 954 947 852 1010 q 1055 755 1055 884 m 774 712 q 735 799 774 773 q 620 824 696 824 l 491 824 l 428 552 l 556 552 q 717 594 660 552 q 774 712 774 637 m 978 1390 l 699 1123 l 528 1123 l 372 1390 l 545 1390 l 636 1241 l 795 1390 l 978 1390 z "},"ř":{"ha":690,"x_min":27,"x_max":822,"o":"m 703 529 l 681 529 q 635 537 665 534 q 576 540 605 540 q 483 533 528 540 q 391 510 438 526 l 273 0 l 27 0 l 203 762 l 449 762 l 423 650 q 561 732 492 701 q 700 764 630 764 q 729 764 713 764 q 757 762 745 763 l 703 529 m 822 1137 l 543 870 l 372 870 l 216 1137 l 389 1137 l 480 988 l 640 1137 l 822 1137 z "},"Ś":{"ha":987,"x_min":5,"x_max":1014,"o":"m 411 -18 q 180 4 281 -18 q 5 60 79 26 l 57 302 l 85 302 q 250 203 155 238 q 452 168 344 168 q 616 198 564 168 q 668 285 668 229 q 660 321 668 306 q 627 351 651 336 q 560 381 602 366 q 450 414 517 395 q 318 458 376 435 q 218 515 259 482 q 155 591 176 548 q 134 695 134 635 q 268 938 134 847 q 634 1028 401 1028 q 845 1010 746 1028 q 1014 960 945 991 l 964 728 l 937 728 q 797 809 884 777 q 608 842 711 842 q 453 813 508 842 q 398 732 398 784 q 406 693 398 709 q 439 663 414 677 q 508 633 461 649 q 618 600 555 617 q 860 494 787 555 q 932 328 932 433 q 893 174 932 241 q 785 66 854 108 q 620 2 712 22 q 411 -18 528 -18 m 931 1376 l 634 1123 l 460 1123 l 673 1390 l 931 1390 l 931 1376 z "},"ś":{"ha":824,"x_min":-9,"x_max":822,"o":"m 321 -21 q 132 -3 223 -21 q -9 40 40 16 l 38 241 l 60 241 q 98 212 75 228 q 163 180 121 197 q 246 153 199 164 q 349 142 294 142 q 472 161 431 142 q 513 215 513 180 q 484 256 513 242 q 363 292 454 271 q 150 378 208 328 q 93 505 93 429 q 208 708 93 634 q 520 783 323 783 q 691 765 606 783 q 817 728 777 748 l 772 536 l 751 536 q 634 596 703 573 q 494 620 566 620 q 375 601 416 620 q 333 544 333 583 q 369 498 333 514 q 482 465 405 482 q 689 387 626 434 q 753 254 753 339 q 636 53 753 126 q 321 -21 519 -21 m 822 1123 l 525 870 l 351 870 l 564 1137 l 822 1137 l 822 1123 z "},"Ţ":{"ha":947,"x_min":127,"x_max":1065,"o":"m 371 -130 q 404 -81 390 -112 q 421 0 417 -50 l 256 0 l 444 814 l 129 814 l 174 1010 l 1065 1010 l 1020 814 l 705 814 l 521 14 l 581 14 q 491 -216 569 -146 q 268 -287 413 -287 q 196 -282 242 -287 q 127 -271 149 -277 l 158 -135 l 174 -135 q 216 -151 191 -143 q 275 -159 242 -159 q 328 -152 301 -159 q 371 -130 354 -146 z "},"ţ":{"ha":633,"x_min":18,"x_max":690,"o":"m 311 -14 q 138 29 192 -12 q 84 151 84 70 q 87 193 84 172 q 96 240 91 213 l 179 601 l 79 601 l 116 762 l 216 762 l 267 979 l 511 979 l 461 762 l 690 762 l 653 601 l 424 601 l 361 326 q 348 269 354 298 q 342 220 342 240 q 365 163 342 179 q 435 147 387 147 q 485 154 454 147 q 534 170 515 161 l 554 170 l 516 7 q 495 2 506 5 q 470 -3 484 -1 q 377 -220 455 -153 q 159 -287 300 -287 q 86 -282 133 -287 q 18 -271 40 -277 l 49 -135 l 64 -135 q 107 -151 81 -143 q 166 -159 133 -159 q 216 -152 189 -159 q 259 -132 243 -145 q 294 -83 282 -112 q 311 -14 306 -55 z "},"Ť":{"ha":947,"x_min":129,"x_max":1065,"o":"m 1020 814 l 705 814 l 517 0 l 256 0 l 444 814 l 129 814 l 174 1010 l 1065 1010 l 1020 814 m 982 1390 l 703 1123 l 532 1123 l 376 1390 l 549 1390 l 640 1241 l 800 1390 l 982 1390 z "},"ť":{"ha":646,"x_min":79,"x_max":999,"o":"m 319 -15 q 138 27 193 -15 q 84 151 84 68 q 87 193 84 172 q 96 240 91 213 l 179 601 l 79 601 l 116 762 l 216 762 l 267 979 l 511 979 l 461 762 l 690 762 l 653 601 l 424 601 l 361 326 q 348 269 354 298 q 342 220 342 240 q 365 163 342 179 q 435 147 387 147 q 485 154 454 147 q 534 170 515 161 l 554 170 l 516 7 q 429 -9 475 -3 q 319 -15 383 -15 m 999 1252 l 755 881 l 602 881 l 768 1252 l 999 1252 z "},"Ů":{"ha":1128,"x_min":100,"x_max":1160,"o":"m 1160 1010 l 1013 379 q 846 75 964 170 q 504 -20 728 -20 q 202 52 304 -20 q 100 269 100 123 q 104 329 100 298 q 115 385 109 359 l 260 1010 l 523 1010 l 378 384 q 370 342 373 365 q 367 304 367 319 q 405 208 367 241 q 532 175 444 175 q 672 222 618 175 q 748 370 725 270 l 897 1010 l 1160 1010 m 708 968 q 569 1017 626 968 q 511 1147 511 1065 q 585 1310 511 1241 q 758 1378 659 1378 q 899 1329 844 1378 q 954 1202 954 1280 q 882 1038 954 1107 q 708 968 810 968 m 828 1191 q 807 1250 828 1227 q 749 1273 787 1273 q 668 1236 699 1273 q 637 1155 637 1198 q 658 1097 637 1120 q 718 1073 679 1073 q 796 1109 764 1073 q 828 1191 828 1145 z "},"ů":{"ha":989,"x_min":71,"x_max":963,"o":"m 963 762 l 787 0 l 541 0 l 561 84 q 489 40 524 60 q 423 7 454 19 q 351 -15 384 -9 q 287 -21 319 -21 q 129 27 186 -21 q 71 170 71 75 q 73 217 71 195 q 82 266 76 239 l 197 762 l 444 762 l 356 384 q 341 309 346 340 q 336 256 336 278 q 357 192 336 212 q 439 172 379 172 q 508 184 469 172 q 593 222 547 197 l 718 762 l 963 762 m 581 758 q 442 806 499 758 q 385 937 385 855 q 458 1099 385 1031 q 631 1168 532 1168 q 772 1119 718 1168 q 827 992 827 1070 q 755 827 827 897 q 581 758 683 758 m 701 981 q 681 1040 701 1017 q 622 1063 660 1063 q 541 1025 572 1063 q 510 945 510 988 q 531 886 510 910 q 591 863 552 863 q 669 899 637 863 q 701 981 701 935 z "},"Ű":{"ha":1128,"x_min":100,"x_max":1160,"o":"m 1160 1010 l 1013 379 q 846 75 964 170 q 504 -20 728 -20 q 202 52 304 -20 q 100 269 100 123 q 104 329 100 298 q 115 385 109 359 l 260 1010 l 523 1010 l 378 384 q 370 342 373 365 q 367 304 367 319 q 405 208 367 241 q 532 175 444 175 q 672 222 618 175 q 748 370 725 270 l 897 1010 l 1160 1010 m 1139 1390 l 903 1123 l 761 1123 l 930 1390 l 1139 1390 m 851 1390 l 615 1123 l 473 1123 l 642 1390 l 851 1390 z "},"ű":{"ha":989,"x_min":71,"x_max":1006,"o":"m 963 762 l 787 0 l 541 0 l 561 84 q 489 40 524 60 q 423 7 454 19 q 351 -15 384 -9 q 287 -21 319 -21 q 129 27 186 -21 q 71 170 71 75 q 73 217 71 195 q 82 266 76 239 l 197 762 l 444 762 l 356 384 q 341 309 346 340 q 336 256 336 278 q 357 192 336 212 q 439 172 379 172 q 508 184 469 172 q 593 222 547 197 l 718 762 l 963 762 m 1006 1137 l 770 870 l 628 870 l 797 1137 l 1006 1137 m 718 1137 l 482 870 l 340 870 l 509 1137 l 718 1137 z "},"Ź":{"ha":961,"x_min":-28,"x_max":1026,"o":"m 820 0 l -28 0 l 15 186 l 682 818 l 185 818 l 229 1010 l 1026 1010 l 982 821 l 317 192 l 865 192 l 820 0 m 968 1376 l 671 1123 l 498 1123 l 710 1390 l 968 1390 l 968 1376 z "},"ź":{"ha":829,"x_min":-34,"x_max":857,"o":"m 682 0 l -34 0 l 1 150 l 502 590 l 119 590 l 159 762 l 850 762 l 816 614 l 321 175 l 722 175 l 682 0 m 857 1123 l 559 870 l 386 870 l 598 1137 l 857 1137 l 857 1123 z "},"Ż":{"ha":961,"x_min":-28,"x_max":1026,"o":"m 820 0 l -28 0 l 15 186 l 682 818 l 185 818 l 229 1010 l 1026 1010 l 982 821 l 317 192 l 865 192 l 820 0 m 741 1123 l 490 1123 l 533 1308 l 784 1308 l 741 1123 z "},"ż":{"ha":829,"x_min":-34,"x_max":850,"o":"m 682 0 l -34 0 l 1 150 l 502 590 l 119 590 l 159 762 l 850 762 l 816 614 l 321 175 l 722 175 l 682 0 m 625 870 l 374 870 l 417 1055 l 668 1055 l 625 870 z "},"Γ":{"ha":885,"x_min":40,"x_max":1002,"o":"m 956 814 l 490 814 l 302 0 l 40 0 l 273 1010 l 1002 1010 l 956 814 z "},"Θ":{"ha":1181,"x_min":80,"x_max":1158,"o":"m 1158 634 q 1116 390 1158 510 q 994 180 1074 270 q 789 31 906 83 q 521 -21 673 -21 q 197 86 314 -21 q 80 380 80 193 q 125 630 80 511 q 253 839 170 749 q 454 979 334 926 q 716 1031 574 1031 q 1041 924 924 1031 q 1158 634 1158 817 m 785 290 q 858 430 831 350 q 884 613 884 509 q 832 783 884 722 q 684 844 780 844 q 563 815 621 844 q 458 728 506 787 q 382 588 411 671 q 354 399 354 504 q 407 224 354 283 q 555 165 460 165 q 680 198 620 165 q 785 290 741 230 m 751 413 l 439 413 l 487 625 l 800 625 l 751 413 z "},"Φ":{"ha":1322,"x_min":81,"x_max":1299,"o":"m 1299 587 q 1259 390 1299 477 q 1143 242 1218 303 q 963 145 1067 180 q 726 102 859 109 l 700 -9 l 441 -9 l 467 103 q 307 136 378 111 q 185 203 236 161 q 109 302 136 244 q 81 432 81 361 q 121 627 81 540 q 237 777 161 714 q 420 875 313 840 q 655 918 528 910 l 679 1021 l 938 1021 l 913 916 q 1196 817 1092 900 q 1299 587 1299 734 m 617 752 q 419 656 487 736 q 352 450 352 575 q 387 331 352 378 q 505 268 422 283 l 617 752 m 1029 570 q 994 687 1029 640 q 876 751 960 734 l 764 267 q 961 362 892 283 q 1029 570 1029 442 z "},"α":{"ha":971,"x_min":47,"x_max":945,"o":"m 945 762 l 769 0 l 524 0 l 542 79 q 480 39 507 57 q 420 6 453 21 q 360 -14 390 -7 q 290 -21 331 -21 q 113 51 179 -21 q 47 255 47 123 q 82 459 47 363 q 178 627 117 554 q 319 741 237 699 q 489 783 400 783 q 597 770 551 783 q 692 731 644 758 l 701 762 l 945 762 m 659 584 q 607 601 639 593 q 551 609 575 609 q 446 583 492 609 q 366 513 399 557 q 320 411 337 473 q 303 291 303 349 q 335 191 303 222 q 432 160 367 160 q 502 175 465 160 q 572 210 539 190 l 659 584 z "},"δ":{"ha":954,"x_min":50,"x_max":970,"o":"m 905 465 q 764 112 905 248 q 406 -24 623 -24 q 144 62 239 -24 q 50 284 50 147 q 85 471 50 387 q 189 616 119 554 q 330 705 251 673 q 487 750 410 736 q 368 838 429 802 q 254 903 308 873 l 290 1055 l 970 1055 l 932 890 l 631 890 l 630 883 q 736 797 690 839 q 817 711 782 755 q 881 600 856 660 q 905 465 905 540 m 650 452 q 636 551 650 501 q 587 638 623 601 q 499 613 549 633 q 407 555 450 593 q 335 455 364 517 q 305 306 305 393 q 338 180 305 217 q 433 142 372 142 q 590 231 529 142 q 650 452 650 320 z "},"ε":{"ha":812,"x_min":28,"x_max":815,"o":"m 699 38 q 527 -8 607 5 q 359 -21 446 -21 q 235 -11 296 -21 q 125 25 174 -1 q 54 87 79 50 q 28 176 28 124 q 84 320 28 260 q 225 403 140 379 l 226 408 q 147 459 176 424 q 118 544 118 494 q 154 657 118 612 q 247 731 190 703 q 380 771 305 760 q 524 783 456 783 q 695 768 617 783 q 815 739 772 752 l 772 562 l 746 562 q 651 600 707 583 q 532 616 595 616 q 474 612 500 616 q 424 598 448 608 q 387 571 401 589 q 372 528 372 553 q 386 492 372 505 q 422 474 399 479 q 470 468 446 469 q 532 467 494 467 l 627 467 l 592 317 l 467 317 q 392 314 420 317 q 334 299 363 311 q 296 270 309 289 q 283 223 283 251 q 299 183 283 199 q 341 160 316 168 q 395 149 366 152 q 458 146 424 146 q 596 169 526 146 q 713 219 667 193 l 739 219 l 699 38 z "},"σ":{"ha":1008,"x_min":50,"x_max":1095,"o":"m 904 469 q 869 280 904 371 q 768 121 833 189 q 611 14 701 52 q 402 -24 522 -24 q 141 58 232 -24 q 50 283 50 139 q 84 476 50 385 q 184 637 118 568 q 343 746 249 706 q 553 785 437 785 q 648 777 604 785 q 728 762 692 769 l 1095 762 l 1057 596 l 874 596 q 896 544 887 569 q 904 469 904 519 m 588 233 q 635 337 619 281 q 651 474 651 393 q 621 582 651 544 q 524 619 590 619 q 433 594 472 619 q 364 523 394 569 q 320 417 336 480 q 304 288 304 354 q 339 176 304 210 q 434 142 374 142 q 519 166 478 142 q 588 233 559 191 z "},"τ":{"ha":743,"x_min":56,"x_max":825,"o":"m 787 596 l 544 596 l 406 0 l 161 0 l 298 596 l 56 596 l 94 762 l 825 762 l 787 596 z "},"φ":{"ha":1270,"x_min":47,"x_max":1227,"o":"m 1227 485 q 1187 293 1227 382 q 1074 139 1147 203 q 895 34 999 73 q 663 -13 791 -6 l 602 -279 l 358 -279 l 420 -11 q 150 91 253 4 q 47 313 47 178 q 113 546 47 434 q 298 762 178 658 l 544 762 l 538 739 q 423 631 468 686 q 351 523 378 577 q 316 425 326 473 q 306 335 306 376 q 348 204 306 248 q 456 149 389 160 l 602 779 q 663 781 620 779 q 779 783 705 783 q 1114 706 1000 783 q 1227 485 1227 629 m 908 256 q 956 352 941 299 q 972 463 972 404 q 933 585 972 544 q 812 629 895 626 l 700 145 q 823 182 770 153 q 908 256 876 212 z "},"‗":{"ha":987,"x_min":-164,"x_max":898,"o":"m 898 -56 l 879 -137 l -130 -137 l -111 -56 l 898 -56 m 863 -205 l 844 -287 l -164 -287 l -145 -205 l 863 -205 z "},"‼":{"ha":977,"x_min":54,"x_max":984,"o":"m 566 1010 l 369 291 l 148 291 l 283 1010 l 566 1010 m 328 0 l 54 0 l 96 179 l 370 179 l 328 0 m 984 1010 l 787 291 l 566 291 l 701 1010 l 984 1010 m 746 0 l 472 0 l 513 179 l 787 179 l 746 0 z "},"ⁿ":{"ha":830,"x_min":97,"x_max":823,"o":"m 722 404 l 521 404 l 591 709 q 604 765 600 744 q 608 808 608 787 q 588 860 608 844 q 521 875 568 875 q 461 865 492 875 q 397 838 431 856 l 297 404 l 97 404 l 238 1014 l 438 1014 l 422 947 q 539 1009 486 987 q 652 1031 592 1031 q 777 995 730 1031 q 823 880 823 958 q 821 841 823 865 q 814 801 818 817 l 722 404 z "},"₧":{"ha":1866,"x_min":40,"x_max":1853,"o":"m 1796 271 q 1694 68 1796 157 q 1415 -21 1593 -21 q 1256 0 1320 -21 q 1155 41 1192 22 l 1198 232 l 1213 232 q 1242 205 1224 220 q 1292 174 1260 191 q 1354 148 1319 159 q 1426 136 1388 136 q 1517 154 1485 136 q 1550 210 1550 172 q 1524 257 1550 238 q 1455 292 1497 277 q 1416 307 1439 298 q 1377 323 1393 317 q 1290 396 1319 349 q 1261 500 1261 444 q 1266 546 1261 524 q 1274 576 1271 568 l 1169 576 l 1036 0 l 800 0 l 934 576 l 835 576 q 775 504 807 535 q 695 448 743 473 q 597 411 650 424 q 479 397 544 397 l 376 397 l 284 0 l 40 0 l 273 1010 l 600 1010 q 823 952 748 1010 q 898 787 898 895 q 897 763 898 776 q 894 739 896 751 l 974 739 l 1007 884 l 1240 884 l 1206 739 l 1402 739 q 1503 769 1438 756 q 1622 783 1567 783 q 1752 767 1687 783 q 1853 732 1817 751 l 1811 546 l 1795 546 q 1716 604 1758 583 q 1624 626 1674 626 q 1535 606 1569 626 q 1501 549 1501 586 q 1523 505 1501 523 q 1584 473 1545 488 q 1628 456 1602 466 q 1664 442 1653 446 q 1766 369 1735 416 q 1796 271 1796 323 m 648 746 q 615 823 648 801 q 507 844 583 844 l 479 844 l 414 561 l 438 561 q 523 568 485 561 q 586 598 562 574 q 632 667 616 627 q 648 746 648 707 z "},"Ĳ":{"ha":1399,"x_min":-5,"x_max":1429,"o":"m 587 0 l -5 0 l 37 179 l 201 179 l 352 831 l 187 831 l 229 1010 l 820 1010 l 779 831 l 614 831 l 463 179 l 628 179 l 587 0 m 1264 296 q 1123 64 1229 144 q 861 -16 1017 -16 q 750 -11 800 -16 q 661 4 700 -5 l 707 202 l 728 202 q 779 180 749 191 q 850 169 809 169 q 956 222 915 169 q 1029 410 998 275 l 1124 824 l 894 824 l 937 1010 l 1429 1010 l 1264 296 z "},"ĳ":{"ha":1010,"x_min":27,"x_max":1050,"o":"m 449 762 l 273 0 l 27 0 l 203 762 l 449 762 m 524 1055 l 481 870 l 222 870 l 264 1055 l 524 1055 m 985 762 l 809 3 q 688 -209 778 -130 q 458 -287 598 -287 q 339 -281 389 -287 q 261 -269 289 -276 l 301 -94 l 320 -94 q 365 -106 342 -102 q 416 -111 388 -111 q 517 -76 480 -110 q 572 38 553 -43 l 701 596 l 556 596 l 595 762 l 985 762 m 1050 1055 l 1008 870 l 749 870 l 791 1055 l 1050 1055 z "},"ŉ":{"ha":1146,"x_min":44,"x_max":1076,"o":"m 1076 589 q 1073 545 1076 569 q 1064 496 1070 522 l 950 0 l 703 0 l 790 378 q 805 449 800 419 q 810 505 810 479 q 788 570 810 549 q 706 590 766 590 q 639 577 677 590 q 553 540 601 565 l 429 0 l 184 0 l 359 762 l 605 762 l 585 677 q 723 755 661 727 q 859 783 785 783 q 1019 733 962 783 q 1076 589 1076 684 m 495 1055 l 205 656 l 44 656 l 243 1055 l 495 1055 z "},"′":{"ha":490,"x_min":120,"x_max":622,"o":"m 622 1010 l 283 576 l 120 576 l 372 1010 l 622 1010 z "},"″":{"ha":856,"x_min":120,"x_max":987,"o":"m 987 1010 l 649 576 l 486 576 l 738 1010 l 987 1010 m 621 1010 l 283 576 l 120 576 l 372 1010 l 621 1010 z "},"℅":{"ha":1767,"x_min":142,"x_max":1666,"o":"m 638 420 q 542 385 594 399 q 430 371 490 371 q 219 437 296 371 q 142 623 142 503 q 175 795 142 718 q 263 924 208 871 q 393 1003 318 976 q 550 1029 467 1029 q 656 1017 604 1029 q 753 979 708 1004 l 715 811 l 684 811 q 615 870 650 851 q 535 888 581 888 q 453 867 489 888 q 393 810 417 846 q 358 733 371 778 q 346 642 346 689 q 380 546 346 581 q 470 512 414 512 q 572 536 527 512 q 644 588 617 560 l 675 588 l 638 420 m 1666 395 q 1570 93 1666 207 q 1311 -21 1474 -21 q 1103 41 1173 -21 q 1033 227 1033 104 q 1130 526 1033 414 q 1388 637 1227 637 q 1595 575 1525 637 q 1666 395 1666 513 m 1468 381 q 1444 465 1468 437 q 1375 493 1421 493 q 1273 420 1314 493 q 1232 235 1232 347 q 1255 151 1232 179 q 1324 123 1278 123 q 1429 200 1390 123 q 1468 381 1468 277 m 1345 1010 l 637 0 l 454 0 l 1161 1010 l 1345 1010 z "},"ℓ":{"ha":575,"x_min":10,"x_max":535,"o":"m 10 309 l 130 439 l 130 734 q 195 932 130 854 q 370 1011 259 1011 q 493 967 451 1011 q 535 849 535 923 q 490 706 535 787 q 326 486 446 625 l 326 170 q 340 104 326 118 q 372 91 354 91 q 415 100 389 91 q 509 158 441 109 l 509 43 q 428 -2 472 13 q 345 -16 384 -16 q 178 32 226 -16 q 130 168 130 81 l 130 283 l 82 232 l 10 309 m 326 642 q 409 775 393 739 q 424 848 424 811 q 420 879 424 869 q 410 899 417 890 q 395 912 404 907 q 376 918 387 918 q 357 910 366 918 q 342 893 347 903 q 330 841 334 879 q 326 743 326 803 l 326 642 z "},"□":{"ha":839,"x_min":99,"x_max":739,"o":"m 99 640 l 739 640 l 739 0 l 99 0 l 99 640 m 151 589 l 151 52 l 688 52 l 688 589 l 151 589 z "},"▪":{"ha":492,"x_min":89,"x_max":403,"o":"m 403 616 l 403 302 l 89 302 l 89 616 l 403 616 z "},"▫":{"ha":492,"x_min":89,"x_max":403,"o":"m 403 616 l 403 302 l 89 302 l 89 616 l 403 616 m 351 564 l 140 564 l 140 353 l 351 353 l 351 564 z "},"●":{"ha":839,"x_min":120,"x_max":718,"o":"m 120 391 q 208 602 120 515 q 419 690 295 690 q 630 602 543 690 q 718 391 718 515 q 630 180 718 267 q 419 92 543 92 q 208 180 295 92 q 120 391 120 267 z "},"◦":{"ha":492,"x_min":76,"x_max":416,"o":"m 246 629 q 367 579 317 629 q 416 459 416 530 q 367 339 416 389 q 246 289 317 289 q 126 339 176 289 q 76 459 76 389 q 125 579 76 530 q 246 629 175 629 m 246 578 q 162 543 197 578 q 127 459 127 508 q 162 375 127 410 q 246 340 197 340 q 330 375 295 340 q 365 459 365 410 q 330 543 365 508 q 246 578 296 578 z "},"Ā":{"ha":1078,"x_min":-63,"x_max":994,"o":"m 984 0 l 722 0 l 699 206 l 327 206 l 209 0 l -63 0 l 543 1010 l 844 1010 l 984 0 m 679 387 l 638 750 l 430 387 l 679 387 m 961 1166 l 417 1166 l 450 1308 l 994 1308 l 961 1166 z "},"ā":{"ha":928,"x_min":13,"x_max":860,"o":"m 572 359 q 450 347 507 354 q 353 325 393 339 q 290 283 311 310 q 268 211 268 256 q 297 156 268 172 q 380 140 326 140 q 457 156 416 140 q 534 199 498 173 l 572 359 m 507 81 q 452 45 484 66 q 391 12 419 24 q 320 -12 353 -4 q 228 -20 287 -20 q 73 33 133 -20 q 13 172 13 86 q 56 325 13 262 q 182 425 98 387 q 370 475 261 460 q 606 498 479 491 q 608 512 606 503 q 610 532 610 521 q 566 600 610 581 q 432 619 521 619 q 299 599 372 619 q 189 565 226 578 l 167 565 l 203 745 q 335 770 245 756 q 513 783 425 783 q 776 736 692 783 q 860 591 860 690 q 858 556 860 578 q 851 518 855 534 l 732 0 l 489 0 l 507 81 m 820 913 l 276 913 l 309 1055 l 852 1055 l 820 913 z "},"Ĉ":{"ha":1005,"x_min":80,"x_max":1069,"o":"m 507 -20 q 191 81 302 -20 q 80 370 80 182 q 129 639 80 518 q 264 848 178 760 q 466 981 349 933 q 713 1029 584 1029 q 907 1008 818 1029 q 1069 945 997 987 l 1009 701 l 979 701 q 851 802 915 770 q 701 835 787 835 q 452 713 550 835 q 354 404 354 592 q 408 229 354 283 q 567 175 463 175 q 743 213 661 175 q 898 309 825 250 l 925 309 l 866 67 q 795 38 836 55 q 717 9 754 20 q 626 -12 668 -5 q 507 -20 583 -20 m 1002 1123 l 829 1123 l 738 1272 l 578 1123 l 396 1123 l 675 1390 l 846 1390 l 1002 1123 z "},"ĉ":{"ha":817,"x_min":50,"x_max":856,"o":"m 420 -20 q 274 -1 342 -20 q 155 59 206 18 q 78 159 106 99 q 50 299 50 220 q 89 489 50 401 q 199 643 128 577 q 368 745 268 707 q 583 783 467 783 q 722 767 653 783 q 850 722 791 751 l 798 513 l 764 513 q 673 585 724 562 q 559 608 623 608 q 374 527 444 608 q 304 323 304 445 q 348 196 304 238 q 481 154 391 154 q 610 183 552 154 q 709 247 668 212 l 744 247 l 692 39 q 564 -7 619 7 q 420 -20 509 -20 m 856 870 l 683 870 l 592 1019 l 433 870 l 250 870 l 530 1137 l 700 1137 l 856 870 z "},"Ċ":{"ha":1005,"x_min":80,"x_max":1069,"o":"m 507 -20 q 191 81 302 -20 q 80 370 80 182 q 129 639 80 518 q 264 848 178 760 q 466 981 349 933 q 713 1029 584 1029 q 907 1008 818 1029 q 1069 945 997 987 l 1009 701 l 979 701 q 851 802 915 770 q 701 835 787 835 q 452 713 550 835 q 354 404 354 592 q 408 229 354 283 q 567 175 463 175 q 743 213 661 175 q 898 309 825 250 l 925 309 l 866 67 q 795 38 836 55 q 717 9 754 20 q 626 -12 668 -5 q 507 -20 583 -20 m 833 1123 l 583 1123 l 625 1308 l 876 1308 l 833 1123 z "},"ċ":{"ha":817,"x_min":50,"x_max":850,"o":"m 420 -20 q 274 -1 342 -20 q 155 59 206 18 q 78 159 106 99 q 50 299 50 220 q 89 489 50 401 q 199 643 128 577 q 368 745 268 707 q 583 783 467 783 q 722 767 653 783 q 850 722 791 751 l 798 513 l 764 513 q 673 585 724 562 q 559 608 623 608 q 374 527 444 608 q 304 323 304 445 q 348 196 304 238 q 481 154 391 154 q 610 183 552 154 q 709 247 668 212 l 744 247 l 692 39 q 564 -7 619 7 q 420 -20 509 -20 m 684 870 l 433 870 l 475 1055 l 726 1055 l 684 870 z "},"Ē":{"ha":949,"x_min":40,"x_max":1005,"o":"m 1005 1010 l 961 819 l 490 819 l 448 638 l 885 638 l 840 446 l 403 446 l 344 191 l 815 191 l 772 0 l 40 0 l 273 1010 l 1005 1010 m 920 1166 l 376 1166 l 409 1308 l 953 1308 l 920 1166 z "},"ē":{"ha":922,"x_min":51,"x_max":890,"o":"m 644 479 q 647 501 646 491 q 648 522 648 511 q 614 604 648 576 q 519 633 581 633 q 392 592 444 633 q 315 479 341 551 l 644 479 m 457 -20 q 157 66 262 -20 q 51 304 51 152 q 85 494 51 408 q 185 647 120 581 q 341 748 248 711 q 547 785 435 785 q 803 716 717 785 q 890 513 890 648 q 881 423 890 467 q 857 336 871 379 l 291 336 q 291 328 291 332 q 291 320 291 324 q 347 196 291 241 q 517 151 402 151 q 668 178 597 151 q 793 239 740 205 l 820 239 l 774 43 q 625 -4 703 12 q 457 -20 546 -20 m 830 913 l 286 913 l 319 1055 l 863 1055 l 830 913 z "},"Ĕ":{"ha":949,"x_min":40,"x_max":1005,"o":"m 1005 1010 l 961 819 l 490 819 l 448 638 l 885 638 l 840 446 l 403 446 l 344 191 l 815 191 l 772 0 l 40 0 l 273 1010 l 1005 1010 m 945 1362 q 830 1168 912 1232 q 624 1104 748 1104 q 468 1148 525 1104 q 411 1279 411 1192 q 413 1318 411 1300 q 421 1362 415 1336 l 568 1362 q 563 1332 564 1346 q 561 1308 561 1318 q 580 1247 561 1270 q 648 1224 599 1224 q 741 1263 707 1224 q 790 1362 776 1302 l 945 1362 z "},"ĕ":{"ha":922,"x_min":51,"x_max":890,"o":"m 644 479 q 647 501 646 491 q 648 522 648 511 q 614 604 648 576 q 519 633 581 633 q 392 592 444 633 q 315 479 341 551 l 644 479 m 457 -20 q 157 66 262 -20 q 51 304 51 152 q 85 494 51 408 q 185 647 120 581 q 341 748 248 711 q 547 785 435 785 q 803 716 717 785 q 890 513 890 648 q 881 423 890 467 q 857 336 871 379 l 291 336 q 291 328 291 332 q 291 320 291 324 q 347 196 291 241 q 517 151 402 151 q 668 178 597 151 q 793 239 740 205 l 820 239 l 774 43 q 625 -4 703 12 q 457 -20 546 -20 m 864 1109 q 749 915 831 979 q 543 851 667 851 q 387 895 444 851 q 330 1026 330 939 q 332 1065 330 1047 q 340 1109 334 1083 l 487 1109 q 481 1079 483 1093 q 479 1055 479 1065 q 498 994 479 1017 q 566 971 517 971 q 660 1010 625 971 q 709 1109 694 1049 l 864 1109 z "},"Ė":{"ha":949,"x_min":40,"x_max":1005,"o":"m 1005 1010 l 961 819 l 490 819 l 448 638 l 885 638 l 840 446 l 403 446 l 344 191 l 815 191 l 772 0 l 40 0 l 273 1010 l 1005 1010 m 787 1123 l 536 1123 l 579 1308 l 830 1308 l 787 1123 z "},"ė":{"ha":922,"x_min":51,"x_max":890,"o":"m 644 479 q 647 501 646 491 q 648 522 648 511 q 614 604 648 576 q 519 633 581 633 q 392 592 444 633 q 315 479 341 551 l 644 479 m 457 -20 q 157 66 262 -20 q 51 304 51 152 q 85 494 51 408 q 185 647 120 581 q 341 748 248 711 q 547 785 435 785 q 803 716 717 785 q 890 513 890 648 q 881 423 890 467 q 857 336 871 379 l 291 336 q 291 328 291 332 q 291 320 291 324 q 347 196 291 241 q 517 151 402 151 q 668 178 597 151 q 793 239 740 205 l 820 239 l 774 43 q 625 -4 703 12 q 457 -20 546 -20 m 672 870 l 421 870 l 464 1055 l 715 1055 l 672 870 z "},"Ĝ":{"ha":1126,"x_min":80,"x_max":1141,"o":"m 538 -21 q 202 81 323 -21 q 80 370 80 182 q 268 845 80 661 q 745 1029 456 1029 q 947 1011 854 1029 q 1141 940 1040 992 l 1083 703 l 1054 703 q 900 811 972 781 q 740 841 827 841 q 579 805 651 841 q 456 707 507 768 q 381 568 408 648 q 354 401 354 488 q 420 222 354 279 q 637 165 487 165 q 669 165 652 165 q 702 168 687 166 l 748 366 l 547 366 l 591 556 l 1057 556 l 941 58 q 749 3 851 26 q 538 -21 647 -21 m 1033 1123 l 860 1123 l 769 1272 l 610 1123 l 427 1123 l 707 1390 l 877 1390 l 1033 1123 z "},"ĝ":{"ha":971,"x_min":-1,"x_max":945,"o":"m 945 762 l 791 87 q 720 -93 766 -21 q 608 -208 674 -165 q 461 -269 541 -252 q 283 -287 382 -287 q 125 -277 201 -287 q -1 -254 50 -267 l 36 -67 l 66 -67 q 180 -102 122 -89 q 282 -115 237 -115 q 394 -103 347 -115 q 469 -68 441 -91 q 515 -10 498 -45 q 543 75 532 24 l 547 89 q 441 32 494 53 q 323 11 389 11 q 123 75 195 11 q 51 270 51 140 q 178 638 51 494 q 486 783 304 783 q 604 767 551 783 q 690 728 657 751 l 707 762 l 945 762 m 659 585 q 607 602 639 594 q 550 610 574 610 q 374 528 441 610 q 308 317 308 446 q 336 226 308 258 q 439 193 365 193 q 512 207 475 193 q 581 240 549 221 l 659 585 m 880 870 l 707 870 l 616 1019 l 457 870 l 275 870 l 554 1137 l 724 1137 l 880 870 z "},"Ġ":{"ha":1126,"x_min":80,"x_max":1141,"o":"m 538 -21 q 202 81 323 -21 q 80 370 80 182 q 268 845 80 661 q 745 1029 456 1029 q 947 1011 854 1029 q 1141 940 1040 992 l 1083 703 l 1054 703 q 900 811 972 781 q 740 841 827 841 q 579 805 651 841 q 456 707 507 768 q 381 568 408 648 q 354 401 354 488 q 420 222 354 279 q 637 165 487 165 q 669 165 652 165 q 702 168 687 166 l 748 366 l 547 366 l 591 556 l 1057 556 l 941 58 q 749 3 851 26 q 538 -21 647 -21 m 867 1123 l 616 1123 l 659 1308 l 909 1308 l 867 1123 z "},"ġ":{"ha":971,"x_min":-1,"x_max":945,"o":"m 945 762 l 791 87 q 720 -93 766 -21 q 608 -208 674 -165 q 461 -269 541 -252 q 283 -287 382 -287 q 125 -277 201 -287 q -1 -254 50 -267 l 36 -67 l 66 -67 q 180 -102 122 -89 q 282 -115 237 -115 q 394 -103 347 -115 q 469 -68 441 -91 q 515 -10 498 -45 q 543 75 532 24 l 547 89 q 441 32 494 53 q 323 11 389 11 q 123 75 195 11 q 51 270 51 140 q 178 638 51 494 q 486 783 304 783 q 604 767 551 783 q 690 728 657 751 l 707 762 l 945 762 m 659 585 q 607 602 639 594 q 550 610 574 610 q 374 528 441 610 q 308 317 308 446 q 336 226 308 258 q 439 193 365 193 q 512 207 475 193 q 581 240 549 221 l 659 585 m 686 870 l 435 870 l 477 1055 l 728 1055 l 686 870 z "},"Ģ":{"ha":1126,"x_min":80,"x_max":1141,"o":"m 532 -20 q 200 83 321 -19 q 80 370 80 184 q 268 845 80 661 q 745 1029 456 1029 q 947 1011 854 1029 q 1141 940 1040 992 l 1083 703 l 1054 703 q 900 811 972 781 q 740 841 827 841 q 579 805 651 841 q 456 707 507 768 q 381 568 408 648 q 354 401 354 488 q 420 222 354 279 q 637 165 487 165 q 669 165 652 165 q 702 168 687 166 l 748 366 l 547 366 l 591 556 l 1057 556 l 941 58 q 821 21 884 38 q 692 -7 758 3 q 600 -220 677 -154 q 381 -287 523 -287 q 309 -282 355 -287 q 240 -271 262 -277 l 271 -135 l 287 -135 q 330 -151 304 -143 q 389 -159 355 -159 q 438 -153 411 -159 q 481 -133 465 -146 q 513 -90 500 -117 q 532 -20 527 -62 z "},"ģ":{"ha":971,"x_min":-1,"x_max":945,"o":"m 945 762 l 791 87 q 720 -93 766 -21 q 608 -208 674 -165 q 461 -269 541 -252 q 283 -287 382 -287 q 125 -277 201 -287 q -1 -254 50 -267 l 36 -67 l 66 -67 q 180 -102 122 -89 q 282 -115 237 -115 q 394 -103 347 -115 q 469 -68 441 -91 q 515 -10 498 -45 q 543 75 532 24 l 547 89 q 441 32 494 53 q 323 11 389 11 q 123 75 195 11 q 51 270 51 140 q 178 638 51 494 q 486 783 304 783 q 604 767 551 783 q 690 728 657 751 l 707 762 l 945 762 m 659 585 q 607 602 639 594 q 550 610 574 610 q 374 528 441 610 q 308 317 308 446 q 336 226 308 258 q 439 193 365 193 q 512 207 475 193 q 581 240 549 221 l 659 585 m 834 1137 l 618 870 l 379 870 l 382 884 l 666 1137 l 834 1137 z "},"Ĥ":{"ha":1163,"x_min":40,"x_max":1180,"o":"m 1180 1010 l 947 0 l 685 0 l 788 446 l 405 446 l 302 0 l 40 0 l 273 1010 l 535 1010 l 449 638 l 832 638 l 918 1010 l 1180 1010 m 1036 1123 l 863 1123 l 772 1272 l 612 1123 l 430 1123 l 709 1390 l 880 1390 l 1036 1123 z "},"ĥ":{"ha":989,"x_min":27,"x_max":958,"o":"m 920 589 q 917 547 920 573 q 908 496 914 522 l 793 0 l 547 0 l 634 378 q 649 451 644 421 q 654 505 654 481 q 632 570 654 550 q 549 590 609 590 q 482 577 520 590 q 397 540 444 565 l 273 0 l 27 0 l 271 1055 l 516 1055 l 429 677 q 566 755 504 727 q 703 783 629 783 q 863 732 807 783 q 920 589 920 682 m 958 1123 l 785 1123 l 694 1272 l 535 1123 l 353 1123 l 632 1390 l 802 1390 l 958 1123 z "},"Ħ":{"ha":1163,"x_min":40,"x_max":1243,"o":"m 1120 751 l 947 0 l 685 0 l 788 446 l 405 446 l 302 0 l 40 0 l 214 751 l 123 751 l 156 893 l 246 893 l 273 1010 l 535 1010 l 508 893 l 891 893 l 918 1010 l 1180 1010 l 1153 893 l 1243 893 l 1211 751 l 1120 751 m 832 638 l 858 751 l 475 751 l 449 638 l 832 638 z "},"ħ":{"ha":989,"x_min":27,"x_max":920,"o":"m 920 589 q 917 547 920 573 q 908 496 914 522 l 793 0 l 547 0 l 634 378 q 649 451 644 421 q 654 505 654 481 q 632 570 654 550 q 549 590 609 590 q 482 577 520 590 q 397 540 444 565 l 273 0 l 27 0 l 221 841 l 134 841 l 165 977 l 252 977 l 271 1055 l 516 1055 l 498 977 l 718 977 l 686 841 l 467 841 l 429 677 q 566 755 504 727 q 703 783 629 783 q 863 732 807 783 q 920 589 920 682 z "},"Ĩ":{"ha":758,"x_min":-5,"x_max":884,"o":"m 587 0 l -5 0 l 37 179 l 201 179 l 352 831 l 187 831 l 229 1010 l 820 1010 l 779 831 l 614 831 l 463 179 l 628 179 l 587 0 m 884 1350 q 807 1185 865 1244 q 660 1126 749 1126 q 587 1140 619 1126 q 518 1179 555 1154 q 485 1198 500 1192 q 455 1204 471 1204 q 407 1183 423 1204 q 378 1121 391 1162 l 230 1121 q 307 1286 248 1226 q 454 1345 366 1345 q 527 1332 496 1345 q 595 1293 559 1318 q 628 1273 615 1279 q 659 1267 640 1267 q 708 1289 692 1267 q 735 1350 724 1311 l 884 1350 z "},"ĩ":{"ha":475,"x_min":27,"x_max":606,"o":"m 449 762 l 273 0 l 27 0 l 203 762 l 449 762 m 606 1085 q 531 923 576 969 q 409 878 486 878 q 359 889 380 878 q 320 916 338 901 q 286 941 305 928 q 253 954 267 954 q 213 935 225 954 q 191 873 201 915 l 74 873 q 146 1027 96 974 q 270 1080 197 1080 q 320 1069 298 1080 q 361 1044 342 1057 q 395 1018 381 1029 q 427 1007 409 1007 q 468 1028 455 1007 q 489 1085 481 1049 l 606 1085 z "},"Ī":{"ha":758,"x_min":-5,"x_max":844,"o":"m 587 0 l -5 0 l 37 179 l 201 179 l 352 831 l 187 831 l 229 1010 l 820 1010 l 779 831 l 614 831 l 463 179 l 628 179 l 587 0 m 812 1166 l 268 1166 l 300 1308 l 844 1308 l 812 1166 z "},"ī":{"ha":475,"x_min":27,"x_max":577,"o":"m 449 762 l 273 0 l 27 0 l 203 762 l 449 762 m 577 1055 l 545 913 l 132 913 l 164 1055 l 577 1055 z "},"Ĭ":{"ha":758,"x_min":-5,"x_max":842,"o":"m 587 0 l -5 0 l 37 179 l 201 179 l 352 831 l 187 831 l 229 1010 l 820 1010 l 779 831 l 614 831 l 463 179 l 628 179 l 587 0 m 842 1362 q 726 1168 808 1232 q 520 1104 644 1104 q 364 1148 421 1104 q 307 1279 307 1192 q 309 1318 307 1300 q 317 1362 311 1336 l 465 1362 q 459 1332 460 1346 q 457 1308 457 1318 q 476 1247 457 1270 q 544 1224 495 1224 q 637 1263 603 1224 q 686 1362 672 1302 l 842 1362 z "},"ĭ":{"ha":475,"x_min":27,"x_max":598,"o":"m 449 762 l 273 0 l 27 0 l 203 762 l 449 762 m 598 1109 q 504 920 573 984 q 330 857 434 857 q 197 900 242 857 q 152 1029 152 944 q 154 1066 152 1050 q 161 1109 155 1082 l 287 1109 q 281 1075 283 1093 q 279 1044 279 1056 q 295 981 279 1003 q 351 960 311 960 q 431 1001 403 960 q 472 1109 459 1042 l 598 1109 z "},"Į":{"ha":758,"x_min":-5,"x_max":820,"o":"m 256 0 l -5 0 l 37 179 l 201 179 l 352 831 l 187 831 l 229 1010 l 820 1010 l 779 831 l 614 831 l 463 179 l 628 179 l 587 0 l 395 0 q 382 -42 387 -20 q 378 -83 378 -64 q 401 -135 378 -117 q 477 -154 425 -154 q 538 -147 501 -154 q 597 -131 576 -140 l 603 -131 l 572 -267 q 506 -279 537 -275 q 445 -283 475 -283 q 285 -245 343 -283 q 227 -137 227 -208 q 233 -64 227 -91 q 256 0 240 -37 z "},"į":{"ha":475,"x_min":-4,"x_max":524,"o":"m -4 -137 q 12 -33 -4 -84 q 46 81 27 18 l 203 762 l 449 762 l 273 0 l 165 0 q 152 -42 157 -20 q 147 -83 147 -64 q 171 -135 147 -117 q 247 -154 194 -154 q 308 -147 271 -154 q 366 -131 345 -140 l 372 -131 l 341 -267 q 276 -279 307 -275 q 214 -283 245 -283 q 54 -245 113 -283 q -4 -137 -4 -208 m 524 1055 l 481 870 l 222 870 l 264 1055 l 524 1055 z "},"Ĵ":{"ha":771,"x_min":-58,"x_max":869,"o":"m 644 333 q 489 70 603 155 q 177 -16 375 -16 q 46 -11 104 -16 q -58 4 -12 -5 l -10 213 l 14 213 q 76 191 43 201 q 164 180 109 180 q 319 229 268 180 q 404 422 371 279 l 496 824 l 266 824 l 309 1010 l 801 1010 l 644 333 m 869 1123 l 696 1123 l 605 1272 l 446 1123 l 263 1123 l 543 1390 l 713 1390 l 869 1123 z "},"ĵ":{"ha":559,"x_min":-190,"x_max":669,"o":"m 534 762 l 358 3 q 237 -209 327 -130 q 7 -287 147 -287 q -112 -281 -62 -287 q -190 -269 -162 -276 l -150 -94 l -131 -94 q -86 -106 -109 -102 q -35 -111 -63 -111 q 66 -76 29 -110 q 121 38 102 -43 l 250 596 l 105 596 l 144 762 l 534 762 m 669 870 l 496 870 l 406 1019 l 246 870 l 64 870 l 343 1137 l 513 1137 l 669 870 z "},"Ķ":{"ha":1071,"x_min":40,"x_max":1197,"o":"m 994 0 l 707 0 l 480 409 l 375 317 l 302 0 l 40 0 l 273 1010 l 534 1010 l 432 565 l 888 1010 l 1197 1010 l 687 540 l 994 0 m 581 14 q 491 -216 569 -146 q 268 -287 413 -287 q 196 -282 242 -287 q 127 -271 149 -277 l 158 -135 l 174 -135 q 216 -151 191 -143 q 275 -159 242 -159 q 329 -152 302 -159 q 374 -127 357 -144 q 407 -76 394 -106 q 422 14 419 -45 l 581 14 z "},"ķ":{"ha":932,"x_min":28,"x_max":994,"o":"m 844 0 l 587 0 l 437 336 l 330 240 l 273 0 l 28 0 l 271 1055 l 517 1055 l 372 425 l 712 762 l 994 762 l 641 430 l 844 0 m 513 14 q 423 -216 501 -146 q 200 -287 345 -287 q 128 -282 174 -287 q 59 -271 81 -277 l 90 -135 l 106 -135 q 149 -151 123 -143 q 208 -159 174 -159 q 261 -152 234 -159 q 306 -127 289 -144 q 339 -76 326 -106 q 355 14 351 -45 l 513 14 z "},"ĸ":{"ha":932,"x_min":28,"x_max":994,"o":"m 844 0 l 587 0 l 437 336 l 330 240 l 273 0 l 28 0 l 203 762 l 449 762 l 372 425 l 712 762 l 994 762 l 641 430 l 844 0 z "},"Ļ":{"ha":885,"x_min":40,"x_max":814,"o":"m 415 0 l 40 0 l 273 1010 l 535 1010 l 347 195 l 814 195 l 769 0 l 573 0 q 481 -218 559 -150 q 262 -287 404 -287 q 190 -282 236 -287 q 121 -271 143 -277 l 152 -135 l 168 -135 q 210 -151 184 -143 q 269 -159 236 -159 q 321 -152 295 -159 q 365 -130 348 -146 q 397 -81 384 -112 q 415 0 411 -50 z "},"ļ":{"ha":475,"x_min":-117,"x_max":517,"o":"m 127 -130 q 160 -81 146 -112 q 178 0 174 -50 l 27 0 l 271 1055 l 517 1055 l 276 14 l 337 14 q 248 -216 326 -146 q 24 -287 170 -287 q -48 -282 -1 -287 q -117 -271 -94 -277 l -85 -135 l -70 -135 q -27 -151 -53 -143 q 32 -159 -1 -159 q 84 -152 58 -159 q 127 -130 111 -146 z "},"Ņ":{"ha":1176,"x_min":40,"x_max":1193,"o":"m 960 0 l 738 0 l 441 699 l 280 0 l 40 0 l 273 1010 l 565 1010 l 819 425 l 953 1010 l 1193 1010 l 960 0 m 602 14 q 513 -216 591 -146 q 290 -287 435 -287 q 217 -282 264 -287 q 149 -271 171 -277 l 180 -135 l 195 -135 q 238 -151 212 -143 q 297 -159 264 -159 q 351 -152 323 -159 q 395 -127 378 -144 q 428 -76 416 -106 q 444 14 441 -45 l 602 14 z "},"ņ":{"ha":989,"x_min":27,"x_max":919,"o":"m 919 589 q 916 545 919 569 q 907 496 913 522 l 793 0 l 547 0 l 633 378 q 648 450 643 420 q 654 505 654 479 q 631 570 654 549 q 549 590 609 590 q 482 577 520 590 q 397 540 444 565 l 273 0 l 27 0 l 203 762 l 448 762 l 429 677 q 566 755 504 727 q 703 783 628 783 q 862 733 805 783 q 919 589 919 684 m 500 14 q 410 -216 488 -146 q 187 -287 332 -287 q 115 -282 161 -287 q 46 -271 68 -277 l 77 -135 l 93 -135 q 136 -151 110 -143 q 195 -159 161 -159 q 249 -152 221 -159 q 293 -127 276 -144 q 326 -76 313 -106 q 342 14 338 -45 l 500 14 z "},"Ŋ":{"ha":1176,"x_min":40,"x_max":1193,"o":"m 739 -3 l 741 6 l 441 699 l 280 0 l 40 0 l 273 1010 l 565 1010 l 820 431 l 953 1010 l 1193 1010 l 958 -9 q 833 -219 924 -151 q 612 -287 743 -287 q 485 -280 536 -287 q 412 -269 434 -274 l 452 -94 l 471 -94 q 533 -107 493 -102 q 590 -113 572 -113 q 633 -110 607 -113 q 677 -97 660 -106 q 714 -63 697 -85 q 739 -3 731 -41 z "},"ŋ":{"ha":989,"x_min":27,"x_max":919,"o":"m 312 -100 q 351 -111 328 -106 q 404 -116 375 -116 q 504 -75 469 -116 q 562 68 538 -35 l 633 378 q 648 450 643 420 q 654 505 654 479 q 631 570 654 549 q 549 590 609 590 q 482 577 520 590 q 397 540 444 565 l 273 0 l 27 0 l 203 762 l 448 762 l 429 677 q 566 755 504 727 q 703 783 628 783 q 862 733 805 783 q 919 589 919 684 q 916 545 919 569 q 907 496 913 522 l 798 20 q 670 -206 765 -125 q 448 -287 574 -287 q 326 -281 382 -287 q 254 -271 270 -275 l 293 -100 l 312 -100 z "},"Ō":{"ha":1181,"x_min":80,"x_max":1158,"o":"m 1158 634 q 1116 390 1158 510 q 994 180 1074 270 q 789 31 906 83 q 521 -21 673 -21 q 197 86 314 -21 q 80 380 80 193 q 125 630 80 511 q 253 839 170 749 q 454 979 334 926 q 716 1031 574 1031 q 1041 924 924 1031 q 1158 634 1158 817 m 785 290 q 858 430 831 350 q 884 613 884 509 q 832 783 884 722 q 684 844 780 844 q 563 815 621 844 q 458 728 506 787 q 382 588 411 671 q 354 399 354 504 q 407 224 354 283 q 555 165 460 165 q 680 198 620 165 q 785 290 741 230 m 1002 1166 l 458 1166 l 490 1308 l 1034 1308 l 1002 1166 z "},"ō":{"ha":952,"x_min":50,"x_max":905,"o":"m 905 483 q 869 282 905 376 q 768 121 833 189 q 611 14 701 52 q 402 -24 522 -24 q 141 58 232 -24 q 50 283 50 139 q 84 476 50 385 q 184 637 118 568 q 343 746 249 706 q 553 785 437 785 q 815 705 724 785 q 905 483 905 625 m 588 233 q 635 337 619 281 q 651 474 651 393 q 621 582 651 544 q 524 619 590 619 q 433 594 472 619 q 364 523 394 569 q 320 417 336 480 q 304 288 304 354 q 339 176 304 210 q 434 142 374 142 q 519 166 478 142 q 588 233 559 191 m 846 913 l 302 913 l 334 1055 l 878 1055 l 846 913 z "},"Ŏ":{"ha":1181,"x_min":80,"x_max":1158,"o":"m 1158 634 q 1116 390 1158 510 q 994 180 1074 270 q 789 31 906 83 q 521 -21 673 -21 q 197 86 314 -21 q 80 380 80 193 q 125 630 80 511 q 253 839 170 749 q 454 979 334 926 q 716 1031 574 1031 q 1041 924 924 1031 q 1158 634 1158 817 m 785 290 q 858 430 831 350 q 884 613 884 509 q 832 783 884 722 q 684 844 780 844 q 563 815 621 844 q 458 728 506 787 q 382 588 411 671 q 354 399 354 504 q 407 224 354 283 q 555 165 460 165 q 680 198 620 165 q 785 290 741 230 m 1038 1362 q 922 1168 1004 1232 q 716 1104 840 1104 q 560 1148 617 1104 q 503 1279 503 1192 q 505 1318 503 1300 q 513 1362 507 1336 l 661 1362 q 655 1332 656 1346 q 653 1308 653 1318 q 672 1247 653 1270 q 740 1224 691 1224 q 833 1263 799 1224 q 882 1362 868 1302 l 1038 1362 z "},"ŏ":{"ha":952,"x_min":50,"x_max":905,"o":"m 905 483 q 869 282 905 376 q 768 121 833 189 q 611 14 701 52 q 402 -24 522 -24 q 141 58 232 -24 q 50 283 50 139 q 84 476 50 385 q 184 637 118 568 q 343 746 249 706 q 553 785 437 785 q 815 705 724 785 q 905 483 905 625 m 588 233 q 635 337 619 281 q 651 474 651 393 q 621 582 651 544 q 524 619 590 619 q 433 594 472 619 q 364 523 394 569 q 320 417 336 480 q 304 288 304 354 q 339 176 304 210 q 434 142 374 142 q 519 166 478 142 q 588 233 559 191 m 871 1109 q 755 915 838 979 q 549 851 673 851 q 393 895 450 851 q 336 1026 336 939 q 338 1065 336 1047 q 347 1109 340 1083 l 494 1109 q 488 1079 490 1093 q 486 1055 486 1065 q 505 994 486 1017 q 573 971 524 971 q 667 1010 632 971 q 715 1109 701 1049 l 871 1109 z "},"Ŗ":{"ha":1086,"x_min":40,"x_max":1055,"o":"m 1055 755 q 981 551 1055 634 q 780 427 907 469 l 1013 0 l 722 0 l 532 370 l 386 370 l 300 0 l 40 0 l 273 1010 l 667 1010 q 954 947 852 1010 q 1055 755 1055 884 m 774 712 q 735 799 774 773 q 620 824 696 824 l 491 824 l 428 552 l 556 552 q 717 594 660 552 q 774 712 774 637 m 590 14 q 500 -216 578 -146 q 277 -287 422 -287 q 205 -282 252 -287 q 136 -271 159 -277 l 168 -135 l 183 -135 q 226 -151 200 -143 q 285 -159 252 -159 q 339 -152 311 -159 q 383 -127 366 -144 q 416 -76 404 -106 q 432 14 429 -45 l 590 14 z "},"ŗ":{"ha":690,"x_min":-82,"x_max":757,"o":"m -35 -135 q 7 -151 -18 -143 q 66 -159 33 -159 q 119 -152 92 -159 q 162 -130 145 -146 q 195 -81 181 -112 q 212 0 208 -50 l 27 0 l 203 762 l 449 762 l 423 650 q 561 732 492 701 q 700 764 630 764 q 729 764 713 764 q 757 762 745 763 l 703 529 l 681 529 q 635 537 665 534 q 576 540 605 540 q 483 533 528 540 q 391 510 438 526 l 276 14 l 372 14 q 282 -216 360 -146 q 59 -287 204 -287 q -13 -282 33 -287 q -82 -271 -60 -277 l -51 -135 l -35 -135 z "},"Ŝ":{"ha":987,"x_min":5,"x_max":1014,"o":"m 411 -18 q 180 4 281 -18 q 5 60 79 26 l 57 302 l 85 302 q 250 203 155 238 q 452 168 344 168 q 616 198 564 168 q 668 285 668 229 q 660 321 668 306 q 627 351 651 336 q 560 381 602 366 q 450 414 517 395 q 318 458 376 435 q 218 515 259 482 q 155 591 176 548 q 134 695 134 635 q 268 938 134 847 q 634 1028 401 1028 q 845 1010 746 1028 q 1014 960 945 991 l 964 728 l 937 728 q 797 809 884 777 q 608 842 711 842 q 453 813 508 842 q 398 732 398 784 q 406 693 398 709 q 439 663 414 677 q 508 633 461 649 q 618 600 555 617 q 860 494 787 555 q 932 328 932 433 q 893 174 932 241 q 785 66 854 108 q 620 2 712 22 q 411 -18 528 -18 m 918 1123 l 745 1123 l 654 1272 l 495 1123 l 313 1123 l 592 1390 l 762 1390 l 918 1123 z "},"ŝ":{"ha":824,"x_min":-9,"x_max":817,"o":"m 321 -21 q 132 -3 223 -21 q -9 40 40 16 l 38 241 l 60 241 q 98 212 75 228 q 163 180 121 197 q 246 153 199 164 q 349 142 294 142 q 472 161 431 142 q 513 215 513 180 q 484 256 513 242 q 363 292 454 271 q 150 378 208 328 q 93 505 93 429 q 208 708 93 634 q 520 783 323 783 q 691 765 606 783 q 817 728 777 748 l 772 536 l 751 536 q 634 596 703 573 q 494 620 566 620 q 375 601 416 620 q 333 544 333 583 q 369 498 333 514 q 482 465 405 482 q 689 387 626 434 q 753 254 753 339 q 636 53 753 126 q 321 -21 519 -21 m 799 870 l 626 870 l 535 1019 l 376 870 l 193 870 l 473 1137 l 643 1137 l 799 870 z "},"Ŧ":{"ha":947,"x_min":129,"x_max":1065,"o":"m 351 412 l 160 412 l 195 564 l 386 564 l 444 814 l 129 814 l 174 1010 l 1065 1010 l 1020 814 l 705 814 l 648 564 l 838 564 l 804 412 l 612 412 l 517 0 l 256 0 l 351 412 z "},"ŧ":{"ha":633,"x_min":21,"x_max":690,"o":"m 319 -15 q 138 27 193 -15 q 84 151 84 68 q 87 193 84 172 q 96 240 91 213 l 115 319 l 21 319 l 53 459 l 146 459 l 179 601 l 79 601 l 116 762 l 216 762 l 267 979 l 511 979 l 461 762 l 690 762 l 653 601 l 424 601 l 391 459 l 546 459 l 514 319 l 359 319 q 347 266 353 291 q 342 220 342 240 q 365 163 342 179 q 435 147 387 147 q 485 154 454 147 q 534 170 515 161 l 554 170 l 516 7 q 429 -9 475 -3 q 319 -15 383 -15 z "},"Ũ":{"ha":1128,"x_min":100,"x_max":1160,"o":"m 1160 1010 l 1013 379 q 846 75 964 170 q 504 -20 728 -20 q 202 52 304 -20 q 100 269 100 123 q 104 329 100 298 q 115 385 109 359 l 260 1010 l 523 1010 l 378 384 q 370 342 373 365 q 367 304 367 319 q 405 208 367 241 q 532 175 444 175 q 672 222 618 175 q 748 370 725 270 l 897 1010 l 1160 1010 m 1067 1350 q 990 1185 1048 1244 q 843 1126 932 1126 q 770 1140 802 1126 q 701 1179 738 1154 q 668 1198 683 1192 q 638 1204 654 1204 q 590 1183 606 1204 q 562 1121 574 1162 l 413 1121 q 490 1286 431 1226 q 637 1345 549 1345 q 710 1332 679 1345 q 779 1293 742 1318 q 811 1273 798 1279 q 842 1267 823 1267 q 891 1289 875 1267 q 918 1350 907 1311 l 1067 1350 z "},"ũ":{"ha":989,"x_min":71,"x_max":963,"o":"m 963 762 l 787 0 l 541 0 l 561 84 q 489 40 524 60 q 423 7 454 19 q 351 -15 384 -9 q 287 -21 319 -21 q 129 27 186 -21 q 71 170 71 75 q 73 217 71 195 q 82 266 76 239 l 197 762 l 444 762 l 356 384 q 341 309 346 340 q 336 256 336 278 q 357 192 336 212 q 439 172 379 172 q 508 184 469 172 q 593 222 547 197 l 718 762 l 963 762 m 963 1097 q 886 932 944 991 q 739 873 828 873 q 666 887 699 873 q 597 926 634 901 q 565 945 579 939 q 534 951 550 951 q 486 930 503 951 q 458 868 470 909 l 309 868 q 386 1033 328 973 q 533 1093 445 1093 q 607 1079 575 1093 q 675 1040 638 1065 q 707 1020 694 1026 q 738 1015 720 1015 q 787 1036 771 1015 q 814 1097 804 1058 l 963 1097 z "},"Ū":{"ha":1128,"x_min":100,"x_max":1160,"o":"m 1160 1010 l 1013 379 q 846 75 964 170 q 504 -20 728 -20 q 202 52 304 -20 q 100 269 100 123 q 104 329 100 298 q 115 385 109 359 l 260 1010 l 523 1010 l 378 384 q 370 342 373 365 q 367 304 367 319 q 405 208 367 241 q 532 175 444 175 q 672 222 618 175 q 748 370 725 270 l 897 1010 l 1160 1010 m 995 1166 l 451 1166 l 484 1308 l 1027 1308 l 995 1166 z "},"ū":{"ha":989,"x_min":71,"x_max":963,"o":"m 963 762 l 787 0 l 541 0 l 561 84 q 489 40 524 60 q 423 7 454 19 q 351 -15 384 -9 q 287 -21 319 -21 q 129 27 186 -21 q 71 170 71 75 q 73 217 71 195 q 82 266 76 239 l 197 762 l 444 762 l 356 384 q 341 309 346 340 q 336 256 336 278 q 357 192 336 212 q 439 172 379 172 q 508 184 469 172 q 593 222 547 197 l 718 762 l 963 762 m 876 913 l 332 913 l 365 1055 l 909 1055 l 876 913 z "},"Ŭ":{"ha":1128,"x_min":100,"x_max":1160,"o":"m 1160 1010 l 1013 379 q 846 75 964 170 q 504 -20 728 -20 q 202 52 304 -20 q 100 269 100 123 q 104 329 100 298 q 115 385 109 359 l 260 1010 l 523 1010 l 378 384 q 370 342 373 365 q 367 304 367 319 q 405 208 367 241 q 532 175 444 175 q 672 222 618 175 q 748 370 725 270 l 897 1010 l 1160 1010 m 1032 1362 q 917 1168 999 1232 q 711 1104 835 1104 q 555 1148 612 1104 q 498 1279 498 1192 q 500 1318 498 1300 q 508 1362 502 1336 l 655 1362 q 649 1332 651 1346 q 648 1308 648 1318 q 667 1247 648 1270 q 734 1224 686 1224 q 828 1263 793 1224 q 877 1362 863 1302 l 1032 1362 z "},"ŭ":{"ha":989,"x_min":71,"x_max":963,"o":"m 963 762 l 787 0 l 541 0 l 561 84 q 489 40 524 60 q 423 7 454 19 q 351 -15 384 -9 q 287 -21 319 -21 q 129 27 186 -21 q 71 170 71 75 q 73 217 71 195 q 82 266 76 239 l 197 762 l 444 762 l 356 384 q 341 309 346 340 q 336 256 336 278 q 357 192 336 212 q 439 172 379 172 q 508 184 469 172 q 593 222 547 197 l 718 762 l 963 762 m 903 1109 q 787 915 869 979 q 581 851 705 851 q 425 895 482 851 q 368 1026 368 939 q 370 1065 368 1047 q 378 1109 372 1083 l 526 1109 q 520 1079 522 1093 q 518 1055 518 1065 q 537 994 518 1017 q 605 971 556 971 q 699 1010 664 971 q 747 1109 733 1049 l 903 1109 z "},"Ų":{"ha":1128,"x_min":100,"x_max":1160,"o":"m 508 -74 q 511 -63 508 -74 q 526 -19 513 -51 q 515 -19 520 -19 q 504 -19 509 -19 q 202 52 304 -19 q 100 269 100 123 q 104 329 100 298 q 115 385 109 359 l 260 1010 l 523 1010 l 378 384 q 370 342 373 365 q 367 304 367 319 q 405 208 367 241 q 532 175 444 175 q 672 222 618 175 q 748 370 725 270 l 897 1010 l 1160 1010 l 1013 379 q 893 121 975 214 q 671 -3 812 28 q 659 -43 663 -23 q 654 -83 654 -64 q 678 -135 654 -117 q 754 -154 701 -154 q 815 -147 778 -154 q 873 -131 852 -140 l 880 -131 l 848 -267 q 783 -279 814 -275 q 722 -283 752 -283 q 562 -245 620 -283 q 503 -137 503 -208 q 508 -74 503 -98 z "},"ų":{"ha":989,"x_min":71,"x_max":963,"o":"m 510 -136 q 525 -32 510 -81 q 561 84 539 17 q 489 40 524 60 q 423 7 454 19 q 351 -15 384 -9 q 287 -21 319 -21 q 129 27 186 -21 q 71 170 71 75 q 73 217 71 195 q 82 266 76 239 l 197 762 l 444 762 l 356 384 q 341 309 346 340 q 336 256 336 278 q 357 192 336 212 q 439 172 379 172 q 508 184 469 172 q 593 222 547 197 l 718 762 l 963 762 l 787 0 l 680 0 q 667 -42 671 -20 q 662 -83 662 -64 q 685 -135 662 -117 q 762 -154 709 -154 q 823 -147 785 -154 q 881 -131 860 -140 l 887 -131 l 856 -267 q 790 -279 821 -275 q 729 -283 760 -283 q 569 -245 627 -283 q 510 -136 510 -207 z "},"Ŵ":{"ha":1567,"x_min":190,"x_max":1668,"o":"m 1668 1010 l 1177 0 l 897 0 l 854 669 l 526 0 l 236 0 l 190 1010 l 462 1010 l 464 315 l 803 1010 l 1063 1010 l 1093 315 l 1402 1010 l 1668 1010 m 1246 1123 l 1073 1123 l 982 1272 l 823 1123 l 640 1123 l 920 1390 l 1090 1390 l 1246 1123 z "},"ŵ":{"ha":1360,"x_min":119,"x_max":1418,"o":"m 1418 762 l 1020 0 l 761 0 l 710 513 l 453 0 l 191 0 l 119 762 l 368 762 l 391 237 l 661 762 l 878 762 l 924 237 l 1160 762 l 1418 762 m 1074 870 l 901 870 l 810 1019 l 650 870 l 468 870 l 747 1137 l 918 1137 l 1074 870 z "},"Ŷ":{"ha":1023,"x_min":152,"x_max":1163,"o":"m 1163 1010 l 648 391 l 558 0 l 296 0 l 384 378 l 152 1010 l 431 1010 l 560 614 l 862 1010 l 1163 1010 m 956 1123 l 783 1123 l 692 1272 l 533 1123 l 351 1123 l 630 1390 l 800 1390 l 956 1123 z "},"ŷ":{"ha":904,"x_min":40,"x_max":972,"o":"m 308 -279 l 40 -279 l 234 15 l 109 762 l 358 762 l 424 262 l 714 762 l 972 762 l 308 -279 m 842 870 l 669 870 l 578 1019 l 418 870 l 236 870 l 515 1137 l 686 1137 l 842 870 z "},"ſ":{"ha":479,"x_min":25,"x_max":744,"o":"m 704 876 l 686 876 q 641 887 670 882 q 588 893 612 893 q 496 867 528 893 q 447 767 464 840 l 271 0 l 25 0 l 205 781 q 322 992 237 923 q 564 1062 407 1062 q 668 1058 624 1062 q 744 1048 712 1055 l 704 876 z "},"Ǻ":{"ha":1078,"x_min":-63,"x_max":1031,"o":"m 984 0 l 722 0 l 692 206 l 341 206 l 209 0 l -63 0 l 518 890 q 490 941 500 911 q 479 1002 479 972 q 523 1132 479 1076 q 631 1215 567 1189 l 802 1389 l 1031 1389 l 1028 1375 l 807 1220 q 889 1160 857 1202 q 922 1058 922 1118 q 901 965 922 1008 q 849 892 881 922 l 984 0 m 672 387 l 635 683 l 444 387 l 672 387 m 796 1046 q 775 1105 796 1082 q 717 1128 755 1128 q 636 1091 667 1128 q 605 1010 605 1054 q 626 952 605 976 q 686 928 647 928 q 764 964 732 928 q 796 1046 796 1000 z "},"ǻ":{"ha":928,"x_min":13,"x_max":926,"o":"m 572 359 q 450 347 507 354 q 353 325 393 339 q 290 283 311 310 q 268 211 268 256 q 297 156 268 172 q 380 140 326 140 q 457 156 416 140 q 534 199 498 173 l 572 359 m 507 81 q 452 45 484 66 q 391 12 419 24 q 320 -12 353 -4 q 228 -20 287 -20 q 73 33 133 -20 q 13 172 13 86 q 56 325 13 262 q 182 425 98 387 q 370 475 261 460 q 606 498 479 491 q 608 512 606 503 q 610 532 610 521 q 566 600 610 581 q 432 619 521 619 q 299 599 372 619 q 189 565 226 578 l 167 565 l 203 745 q 311 767 241 755 q 458 782 382 778 q 391 844 416 804 q 366 937 366 884 q 415 1072 366 1015 q 534 1153 464 1130 l 699 1341 l 926 1341 l 922 1328 l 686 1154 q 773 1096 739 1138 q 808 992 808 1055 q 761 857 808 916 q 651 774 715 798 q 806 716 751 760 q 860 591 860 671 q 858 556 860 578 q 851 518 855 534 l 732 0 l 489 0 l 507 81 m 682 981 q 662 1040 682 1017 q 603 1063 641 1063 q 522 1025 553 1063 q 491 945 491 988 q 512 886 491 910 q 572 863 533 863 q 650 899 618 863 q 682 981 682 935 z "},"Ǽ":{"ha":1519,"x_min":-85,"x_max":1575,"o":"m 1342 0 l 614 0 l 677 274 l 359 274 l 186 0 l -85 0 l 563 1010 l 1575 1010 l 1531 819 l 1060 819 l 1018 638 l 1455 638 l 1411 446 l 973 446 l 914 191 l 1385 191 l 1342 0 m 722 467 l 804 824 l 707 824 l 481 467 l 722 467 m 1378 1376 l 1081 1123 l 907 1123 l 1120 1390 l 1378 1390 l 1378 1376 z "},"ǽ":{"ha":1414,"x_min":13,"x_max":1377,"o":"m 1377 513 q 1368 423 1377 467 q 1343 336 1358 379 l 791 336 q 791 328 791 332 q 791 320 791 324 q 850 192 791 233 q 1010 151 909 151 q 1156 178 1085 151 q 1280 239 1227 205 l 1307 239 l 1261 43 q 1116 -4 1192 13 q 951 -20 1040 -20 q 759 9 841 -20 q 627 94 677 39 q 447 9 535 38 q 248 -20 359 -20 q 78 29 143 -20 q 13 172 13 79 q 56 325 13 264 q 179 422 98 386 q 360 474 255 458 q 599 498 466 490 q 602 512 600 503 q 604 532 604 521 q 562 600 604 581 q 432 619 519 619 q 299 599 372 619 q 189 565 226 578 l 167 565 l 203 745 q 335 770 245 756 q 513 783 425 783 q 679 770 614 783 q 788 726 743 758 q 905 770 840 754 q 1040 785 969 785 q 1292 716 1207 785 q 1377 513 1377 648 m 1135 522 q 1102 604 1135 576 q 1013 633 1070 633 q 891 592 940 633 q 815 479 842 552 l 1131 479 q 1134 501 1133 491 q 1135 522 1135 511 m 564 208 q 554 254 557 229 q 551 302 551 278 q 552 330 551 318 q 554 358 553 342 q 336 317 404 347 q 268 224 268 288 q 298 161 268 180 q 380 143 328 143 q 467 159 420 143 q 564 208 514 176 m 1166 1123 l 869 870 l 695 870 l 907 1137 l 1166 1137 l 1166 1123 z "},"Ǿ":{"ha":1181,"x_min":-21,"x_max":1227,"o":"m 877 707 l 410 213 q 473 173 437 186 q 555 160 510 160 q 683 193 621 160 q 789 286 745 227 q 863 428 836 347 q 889 613 889 508 q 886 663 889 640 q 877 707 884 686 m 359 307 l 823 800 q 760 838 795 825 q 684 850 725 850 q 562 820 620 850 q 454 732 503 791 q 378 591 408 676 q 349 399 349 505 q 351 350 349 371 q 359 307 354 328 m 173 109 q 104 229 127 160 q 80 380 80 297 q 125 630 80 511 q 253 839 170 749 q 454 979 334 926 q 716 1031 574 1031 q 865 1014 799 1031 q 981 968 931 997 l 1087 1080 l 1227 1080 l 1061 904 q 1133 786 1109 853 q 1158 634 1158 718 q 1116 390 1158 510 q 994 180 1074 270 q 794 34 911 88 q 521 -21 678 -21 q 372 -4 439 -21 q 252 45 306 12 l 119 -96 l -21 -96 l 173 109 m 1030 1376 l 733 1123 l 559 1123 l 772 1390 l 1030 1390 l 1030 1376 z "},"ǿ":{"ha":952,"x_min":-39,"x_max":983,"o":"m 983 850 l 832 689 q 887 599 868 651 q 905 483 905 547 q 869 282 905 376 q 768 121 833 189 q 611 14 701 52 q 402 -24 522 -24 q 292 -13 344 -24 q 201 17 240 -3 l 83 -110 l -39 -110 l 128 68 q 70 162 90 108 q 50 283 50 217 q 84 476 50 385 q 184 637 118 568 q 343 746 249 706 q 553 785 437 785 q 665 774 613 785 q 760 743 718 764 l 861 850 l 983 850 m 618 591 q 576 616 600 608 q 524 623 552 623 q 433 598 474 623 q 361 526 392 572 q 316 420 332 483 q 299 288 299 358 q 300 268 299 277 q 301 253 300 259 l 618 591 m 591 231 q 639 336 622 276 q 656 474 656 396 q 656 487 656 480 q 655 500 656 494 l 342 167 q 382 145 359 153 q 434 138 405 138 q 520 162 479 138 q 591 231 562 186 m 884 1123 l 587 870 l 413 870 l 625 1137 l 884 1137 l 884 1123 z "},"·":{"ha":559,"x_min":179,"x_max":495,"o":"m 495 762 l 434 495 l 179 495 l 240 762 l 495 762 z "},"Ẁ":{"ha":1567,"x_min":190,"x_max":1668,"o":"m 1668 1010 l 1177 0 l 897 0 l 854 669 l 526 0 l 236 0 l 190 1010 l 462 1010 l 464 315 l 803 1010 l 1063 1010 l 1093 315 l 1402 1010 l 1668 1010 m 1078 1123 l 924 1123 l 730 1376 l 730 1390 l 962 1390 l 1078 1123 z "},"ẁ":{"ha":1360,"x_min":119,"x_max":1418,"o":"m 1418 762 l 1020 0 l 761 0 l 710 513 l 453 0 l 191 0 l 119 762 l 368 762 l 391 237 l 661 762 l 878 762 l 924 237 l 1160 762 l 1418 762 m 907 870 l 753 870 l 559 1123 l 559 1137 l 791 1137 l 907 870 z "},"Ẃ":{"ha":1567,"x_min":190,"x_max":1668,"o":"m 1668 1010 l 1177 0 l 897 0 l 854 669 l 526 0 l 236 0 l 190 1010 l 462 1010 l 464 315 l 803 1010 l 1063 1010 l 1093 315 l 1402 1010 l 1668 1010 m 1256 1376 l 959 1123 l 785 1123 l 998 1390 l 1256 1390 l 1256 1376 z "},"ẃ":{"ha":1360,"x_min":119,"x_max":1418,"o":"m 1418 762 l 1020 0 l 761 0 l 710 513 l 453 0 l 191 0 l 119 762 l 368 762 l 391 237 l 661 762 l 878 762 l 924 237 l 1160 762 l 1418 762 m 1112 1123 l 815 870 l 642 870 l 854 1137 l 1112 1137 l 1112 1123 z "},"Ẅ":{"ha":1567,"x_min":190,"x_max":1668,"o":"m 1668 1010 l 1177 0 l 897 0 l 854 669 l 526 0 l 236 0 l 190 1010 l 462 1010 l 464 315 l 803 1010 l 1063 1010 l 1093 315 l 1402 1010 l 1668 1010 m 1261 1308 l 1218 1123 l 1017 1123 l 1059 1308 l 1261 1308 m 897 1308 l 854 1123 l 652 1123 l 695 1308 l 897 1308 z "},"ẅ":{"ha":1360,"x_min":119,"x_max":1418,"o":"m 1418 762 l 1020 0 l 761 0 l 710 513 l 453 0 l 191 0 l 119 762 l 368 762 l 391 237 l 661 762 l 878 762 l 924 237 l 1160 762 l 1418 762 m 1099 1055 l 1057 870 l 855 870 l 898 1055 l 1099 1055 m 735 1055 l 692 870 l 491 870 l 534 1055 l 735 1055 z "},"Ỳ":{"ha":1023,"x_min":152,"x_max":1163,"o":"m 1163 1010 l 648 391 l 558 0 l 296 0 l 384 378 l 152 1010 l 431 1010 l 560 614 l 862 1010 l 1163 1010 m 781 1123 l 628 1123 l 434 1376 l 434 1390 l 665 1390 l 781 1123 z "},"ỳ":{"ha":904,"x_min":40,"x_max":972,"o":"m 308 -279 l 40 -279 l 234 15 l 109 762 l 358 762 l 424 262 l 714 762 l 972 762 l 308 -279 m 668 870 l 515 870 l 321 1123 l 321 1137 l 552 1137 l 668 870 z "},"‛":{"ha":461,"x_min":84,"x_max":532,"o":"m 532 1055 l 334 656 l 84 656 l 374 1055 l 532 1055 z "},"‾":{"ha":987,"x_min":156,"x_max":1198,"o":"m 1198 1247 l 1165 1104 l 156 1104 l 189 1247 l 1198 1247 z "},"₤":{"ha":987,"x_min":16,"x_max":996,"o":"m 810 0 l 16 0 l 58 182 q 173 235 134 199 q 231 326 212 271 l 113 326 l 138 439 l 262 439 l 285 536 l 161 536 l 186 650 l 308 650 l 326 726 q 469 951 361 873 q 751 1029 576 1029 q 903 1018 844 1029 q 996 997 962 1007 l 949 789 l 919 789 q 858 825 902 802 q 750 848 814 848 q 625 807 669 848 q 560 686 581 767 l 551 650 l 847 650 l 821 536 l 525 536 l 503 439 l 799 439 l 773 326 l 466 326 q 410 249 447 283 q 329 195 374 214 l 328 187 l 853 187 l 810 0 z "},"℮":{"ha":1039,"x_min":85,"x_max":991,"o":"m 960 393 l 344 393 q 341 371 342 383 q 340 350 340 359 q 402 211 340 257 q 584 165 463 165 q 683 178 633 165 q 768 205 734 190 q 840 238 808 221 q 892 269 871 256 l 922 269 l 880 54 q 703 -1 783 16 q 526 -18 623 -18 q 199 77 313 -18 q 85 338 85 172 q 244 742 85 584 q 648 901 404 901 q 902 819 814 901 q 991 595 991 736 q 987 544 991 578 q 978 479 984 511 l 960 393 m 730 546 q 735 573 733 560 q 736 602 736 587 q 702 701 736 665 q 593 738 667 738 q 457 691 515 738 q 374 546 399 644 l 730 546 z "},"⅛":{"ha":1641,"x_min":201,"x_max":1531,"o":"m 600 1013 l 453 379 l 265 379 l 360 791 l 201 791 l 230 914 q 362 938 306 914 q 435 1013 419 962 l 600 1013 m 1255 1016 l 488 0 l 304 0 l 1071 1016 l 1255 1016 m 1494 195 q 1402 37 1494 96 q 1162 -22 1310 -22 q 965 24 1037 -22 q 893 143 893 69 q 933 249 893 205 q 1053 321 973 292 l 1053 325 q 991 379 1010 349 q 972 446 972 410 q 1058 591 972 534 q 1282 647 1143 647 q 1464 606 1397 647 q 1531 497 1531 566 q 1496 398 1531 446 q 1390 323 1461 350 l 1388 319 q 1466 268 1438 298 q 1494 195 1494 237 m 1341 474 q 1315 519 1341 505 q 1259 533 1289 533 q 1190 512 1220 533 q 1160 456 1160 490 q 1181 416 1160 432 q 1223 392 1202 401 q 1258 379 1238 386 q 1286 370 1278 372 q 1327 417 1313 389 q 1341 474 1341 445 m 1301 178 q 1288 213 1301 197 q 1221 250 1274 229 q 1184 263 1204 256 q 1157 272 1164 269 q 1108 230 1130 257 q 1087 166 1087 203 q 1116 113 1087 134 q 1187 92 1145 92 q 1267 114 1234 92 q 1301 178 1301 136 z "},"⅜":{"ha":1641,"x_min":129,"x_max":1617,"o":"m 741 878 q 700 774 741 815 q 591 713 659 733 l 589 707 q 668 665 639 694 q 697 583 697 637 q 610 425 697 483 q 389 368 523 368 q 234 379 303 368 q 129 407 165 391 l 157 553 l 172 553 q 254 522 198 538 q 363 507 310 507 q 464 525 429 507 q 498 582 498 544 q 477 623 498 609 q 402 637 456 637 l 298 637 l 324 770 l 417 770 q 505 789 477 770 q 532 840 532 809 q 505 881 532 867 q 418 894 479 894 q 327 878 378 894 q 240 844 277 862 l 224 844 l 252 989 q 358 1017 302 1005 q 479 1029 413 1029 q 679 990 616 1029 q 741 878 741 950 m 1350 1016 l 583 0 l 399 0 l 1166 1016 l 1350 1016 m 1579 195 q 1487 37 1579 96 q 1248 -22 1395 -22 q 1050 24 1122 -22 q 979 143 979 69 q 1019 249 979 205 q 1138 321 1059 292 l 1139 325 q 1077 379 1096 349 q 1057 446 1057 410 q 1143 591 1057 534 q 1367 647 1229 647 q 1550 606 1482 647 q 1617 497 1617 566 q 1581 398 1617 446 q 1475 323 1546 350 l 1474 319 q 1552 268 1524 298 q 1579 195 1579 237 m 1426 474 q 1400 519 1426 505 q 1344 533 1375 533 q 1276 512 1305 533 q 1246 456 1246 490 q 1267 416 1246 432 q 1309 392 1288 401 q 1343 379 1324 386 q 1371 370 1363 372 q 1412 417 1398 389 q 1426 474 1426 445 m 1387 178 q 1373 213 1387 197 q 1306 250 1360 229 q 1270 263 1290 256 q 1242 272 1250 269 q 1194 230 1215 257 q 1173 166 1173 203 q 1202 113 1173 134 q 1272 92 1231 92 q 1353 114 1319 92 q 1387 178 1387 136 z "},"⅝":{"ha":1641,"x_min":123,"x_max":1619,"o":"m 707 637 q 685 533 707 585 q 621 447 663 482 q 513 388 576 409 q 360 366 451 366 q 225 378 289 366 q 123 403 161 389 l 156 547 l 172 547 q 245 520 195 537 q 345 503 295 503 q 404 507 373 503 q 454 522 434 511 q 491 551 478 534 q 504 598 504 568 q 464 655 504 638 q 355 672 423 672 q 273 668 313 672 q 214 663 233 664 l 287 1016 l 777 1016 l 745 880 l 435 880 l 416 793 q 452 796 429 795 q 488 797 475 797 q 648 756 589 797 q 707 637 707 716 m 1346 1016 l 579 0 l 395 0 l 1162 1016 l 1346 1016 m 1582 195 q 1490 37 1582 96 q 1251 -22 1398 -22 q 1053 24 1125 -22 q 981 143 981 69 q 1021 249 981 205 q 1141 321 1061 292 l 1141 325 q 1079 379 1099 349 q 1060 446 1060 410 q 1146 591 1060 534 q 1370 647 1232 647 q 1552 606 1485 647 q 1619 497 1619 566 q 1584 398 1619 446 q 1478 323 1549 350 l 1476 319 q 1554 268 1527 298 q 1582 195 1582 237 m 1429 474 q 1403 519 1429 505 q 1347 533 1377 533 q 1278 512 1308 533 q 1249 456 1249 490 q 1270 416 1249 432 q 1312 392 1291 401 q 1346 379 1326 386 q 1374 370 1366 372 q 1415 417 1401 389 q 1429 474 1429 445 m 1390 178 q 1376 213 1390 197 q 1309 250 1362 229 q 1273 263 1293 256 q 1245 272 1253 269 q 1197 230 1218 257 q 1175 166 1175 203 q 1204 113 1175 134 q 1275 92 1234 92 q 1356 114 1322 92 q 1390 178 1390 136 z "},"⅞":{"ha":1641,"x_min":134,"x_max":1560,"o":"m 772 880 l 342 383 l 134 383 l 572 872 l 216 872 l 248 1016 l 803 1016 l 772 880 m 1263 1016 l 496 0 l 313 0 l 1080 1016 l 1263 1016 m 1523 195 q 1431 37 1523 96 q 1192 -22 1339 -22 q 994 24 1066 -22 q 922 143 922 69 q 962 249 922 205 q 1082 321 1002 292 l 1082 325 q 1020 379 1040 349 q 1001 446 1001 410 q 1087 591 1001 534 q 1311 647 1173 647 q 1493 606 1426 647 q 1560 497 1560 566 q 1525 398 1560 446 q 1419 323 1490 350 l 1417 319 q 1495 268 1468 298 q 1523 195 1523 237 m 1370 474 q 1344 519 1370 505 q 1288 533 1318 533 q 1219 512 1249 533 q 1190 456 1190 490 q 1211 416 1190 432 q 1253 392 1232 401 q 1287 379 1267 386 q 1315 370 1307 372 q 1356 417 1342 389 q 1370 474 1370 445 m 1331 178 q 1317 213 1331 197 q 1250 250 1303 229 q 1214 263 1234 256 q 1186 272 1194 269 q 1138 230 1159 257 q 1116 166 1116 203 q 1145 113 1116 134 q 1216 92 1175 92 q 1297 114 1263 92 q 1331 178 1331 136 z "},"΄":{"ha":987,"x_min":525,"x_max":801,"o":"m 801 1137 l 686 870 l 525 870 l 541 1137 l 801 1137 z "},"΅":{"ha":987,"x_min":246,"x_max":1008,"o":"m 783 1137 l 672 870 l 538 870 l 550 1137 l 783 1137 m 965 870 l 783 870 l 825 1055 l 1008 1055 l 965 870 m 429 870 l 246 870 l 289 1055 l 471 1055 l 429 870 z "},"Ά":{"ha":1107,"x_min":-34,"x_max":1013,"o":"m 1013 0 l 751 0 l 728 206 l 356 206 l 238 0 l -34 0 l 572 1010 l 873 1010 l 1013 0 m 708 387 l 667 750 l 459 387 l 708 387 m 400 1010 l 286 743 l 124 743 l 140 1010 l 400 1010 z "},"Έ":{"ha":1177,"x_min":117,"x_max":1234,"o":"m 1234 1010 l 1190 819 l 718 819 l 676 638 l 1114 638 l 1069 446 l 631 446 l 572 191 l 1044 191 l 1000 0 l 269 0 l 502 1010 l 1234 1010 m 393 1010 l 278 743 l 117 743 l 132 1010 l 393 1010 z "},"Ή":{"ha":1390,"x_min":117,"x_max":1407,"o":"m 1407 1010 l 1174 0 l 912 0 l 1015 446 l 632 446 l 529 0 l 267 0 l 500 1010 l 762 1010 l 676 638 l 1059 638 l 1145 1010 l 1407 1010 m 393 1010 l 278 743 l 117 743 l 132 1010 l 393 1010 z "},"Ί":{"ha":979,"x_min":115,"x_max":1041,"o":"m 808 0 l 216 0 l 258 179 l 422 179 l 573 831 l 408 831 l 450 1010 l 1041 1010 l 1000 831 l 835 831 l 684 179 l 849 179 l 808 0 m 391 1010 l 276 743 l 115 743 l 130 1010 l 391 1010 z "},"Ό":{"ha":1345,"x_min":109,"x_max":1322,"o":"m 1322 634 q 1280 390 1322 510 q 1158 180 1238 270 q 954 31 1070 83 q 685 -21 837 -21 q 361 86 478 -21 q 244 380 244 193 q 289 630 244 511 q 417 839 334 749 q 618 979 498 926 q 880 1031 739 1031 q 1205 924 1088 1031 q 1322 634 1322 817 m 949 290 q 1022 430 996 350 q 1048 613 1048 509 q 996 783 1048 722 q 848 844 944 844 q 727 815 785 844 q 622 728 670 787 q 547 588 575 671 q 518 399 518 504 q 571 224 518 283 q 719 165 625 165 q 844 198 784 165 q 949 290 905 230 m 385 1010 l 271 743 l 109 743 l 125 1010 l 385 1010 z "},"Ύ":{"ha":1305,"x_min":115,"x_max":1444,"o":"m 1444 1010 l 930 391 l 840 0 l 578 0 l 665 378 l 433 1010 l 712 1010 l 842 614 l 1143 1010 l 1444 1010 m 391 1010 l 276 743 l 115 743 l 130 1010 l 391 1010 z "},"Ώ":{"ha":1348,"x_min":111,"x_max":1326,"o":"m 1223 0 l 737 0 l 814 334 q 989 465 928 387 q 1049 658 1049 543 q 994 795 1049 749 q 848 841 938 841 q 729 815 781 841 q 640 747 677 790 q 585 654 605 708 q 565 541 565 600 q 595 418 565 467 q 685 331 626 370 l 608 0 l 123 0 l 168 195 l 490 195 l 500 241 q 351 363 404 290 q 298 534 298 436 q 337 724 298 635 q 452 882 376 812 q 636 990 526 949 q 879 1031 746 1031 q 1205 940 1083 1031 q 1326 690 1326 848 q 1231 418 1326 534 q 956 238 1135 302 l 947 195 l 1268 195 l 1223 0 m 387 1010 l 272 743 l 111 743 l 126 1010 l 387 1010 z "},"ΐ":{"ha":475,"x_min":27,"x_max":691,"o":"m 449 762 l 273 0 l 27 0 l 203 762 l 449 762 m 691 1055 l 648 870 l 493 870 l 536 1055 l 691 1055 m 236 1055 l 193 870 l 38 870 l 81 1055 l 236 1055 m 497 1137 l 396 870 l 290 870 l 311 1137 l 497 1137 z "},"Α":{"ha":1078,"x_min":-63,"x_max":984,"o":"m 984 0 l 722 0 l 699 206 l 327 206 l 209 0 l -63 0 l 543 1010 l 844 1010 l 984 0 m 679 387 l 638 750 l 430 387 l 679 387 z "},"Β":{"ha":1058,"x_min":40,"x_max":1017,"o":"m 1017 781 q 966 629 1017 689 q 812 538 916 569 l 810 533 q 935 465 892 509 q 977 338 977 420 q 847 90 977 179 q 477 0 716 0 l 40 0 l 273 1010 l 642 1010 q 920 950 824 1010 q 1017 781 1017 890 m 741 740 q 706 805 741 785 q 608 825 671 825 l 491 825 l 441 611 l 560 611 q 693 644 646 611 q 741 740 741 677 m 712 332 q 670 412 712 387 q 538 437 628 437 l 401 437 l 343 185 l 475 185 q 650 222 589 185 q 712 332 712 260 z "},"Δ":{"ha":1119,"x_min":-62,"x_max":1010,"o":"m 1010 0 l -62 0 l 557 1010 l 857 1010 l 1010 0 m 730 189 l 652 752 l 316 189 l 730 189 z "},"Ε":{"ha":949,"x_min":40,"x_max":1005,"o":"m 1005 1010 l 961 819 l 490 819 l 448 638 l 885 638 l 840 446 l 403 446 l 344 191 l 815 191 l 772 0 l 40 0 l 273 1010 l 1005 1010 z "},"Ζ":{"ha":961,"x_min":-28,"x_max":1026,"o":"m 820 0 l -28 0 l 15 186 l 682 818 l 185 818 l 229 1010 l 1026 1010 l 982 821 l 317 192 l 865 192 l 820 0 z "},"Η":{"ha":1163,"x_min":40,"x_max":1180,"o":"m 1180 1010 l 947 0 l 685 0 l 788 446 l 405 446 l 302 0 l 40 0 l 273 1010 l 535 1010 l 449 638 l 832 638 l 918 1010 l 1180 1010 z "},"Ι":{"ha":758,"x_min":-5,"x_max":820,"o":"m 587 0 l -5 0 l 37 179 l 201 179 l 352 831 l 187 831 l 229 1010 l 820 1010 l 779 831 l 614 831 l 463 179 l 628 179 l 587 0 z "},"Κ":{"ha":1071,"x_min":40,"x_max":1197,"o":"m 994 0 l 707 0 l 480 409 l 375 317 l 302 0 l 40 0 l 273 1010 l 534 1010 l 432 565 l 888 1010 l 1197 1010 l 687 540 l 994 0 z "},"Λ":{"ha":1078,"x_min":-63,"x_max":984,"o":"m 984 0 l 721 0 l 635 732 l 209 0 l -63 0 l 551 1010 l 838 1010 l 984 0 z "},"Μ":{"ha":1316,"x_min":40,"x_max":1333,"o":"m 1100 0 l 840 0 l 992 661 l 715 237 l 535 237 l 446 688 l 287 0 l 40 0 l 273 1010 l 572 1010 l 683 503 l 1026 1010 l 1333 1010 l 1100 0 z "},"Ν":{"ha":1176,"x_min":40,"x_max":1193,"o":"m 960 0 l 738 0 l 441 699 l 280 0 l 40 0 l 273 1010 l 565 1010 l 819 425 l 953 1010 l 1193 1010 l 960 0 z "},"Ξ":{"ha":993,"x_min":5,"x_max":1044,"o":"m 998 804 l 191 804 l 237 1010 l 1044 1010 l 998 804 m 875 420 l 136 420 l 182 627 l 922 627 l 875 420 m 812 0 l 5 0 l 52 206 l 859 206 l 812 0 z "},"Ο":{"ha":1181,"x_min":80,"x_max":1158,"o":"m 1158 634 q 1116 390 1158 510 q 994 180 1074 270 q 789 31 906 83 q 521 -21 673 -21 q 197 86 314 -21 q 80 380 80 193 q 125 630 80 511 q 253 839 170 749 q 454 979 334 926 q 716 1031 574 1031 q 1041 924 924 1031 q 1158 634 1158 817 m 785 290 q 858 430 831 350 q 884 613 884 509 q 832 783 884 722 q 684 844 780 844 q 563 815 621 844 q 458 728 506 787 q 382 588 411 671 q 354 399 354 504 q 407 224 354 283 q 555 165 460 165 q 680 198 620 165 q 785 290 741 230 z "},"Π":{"ha":1163,"x_min":40,"x_max":1180,"o":"m 1180 1010 l 947 0 l 685 0 l 873 818 l 490 818 l 302 0 l 40 0 l 273 1010 l 1180 1010 z "},"Ρ":{"ha":1018,"x_min":40,"x_max":1044,"o":"m 1044 730 q 895 439 1044 550 q 477 329 745 329 l 378 329 l 302 0 l 40 0 l 273 1010 l 636 1010 q 809 996 735 1010 q 936 949 882 983 q 1017 863 989 916 q 1044 730 1044 810 m 766 705 q 724 793 766 764 q 597 821 681 821 l 492 821 l 422 519 l 515 519 q 700 567 634 519 q 766 705 766 616 z "},"Σ":{"ha":949,"x_min":-18,"x_max":1020,"o":"m 810 0 l -18 0 l 26 191 l 465 524 l 183 822 l 227 1010 l 1020 1010 l 976 819 l 502 819 l 762 549 l 749 494 l 340 191 l 854 191 l 810 0 z "},"Τ":{"ha":947,"x_min":129,"x_max":1065,"o":"m 1020 814 l 705 814 l 517 0 l 256 0 l 444 814 l 129 814 l 174 1010 l 1065 1010 l 1020 814 z "},"Υ":{"ha":1023,"x_min":152,"x_max":1163,"o":"m 1163 1010 l 648 391 l 558 0 l 296 0 l 384 378 l 152 1010 l 431 1010 l 560 614 l 862 1010 l 1163 1010 z "},"Χ":{"ha":1061,"x_min":-72,"x_max":1184,"o":"m 414 521 l 169 1010 l 452 1010 l 601 692 l 896 1010 l 1184 1010 l 709 507 l 956 0 l 672 0 l 521 336 l 216 0 l -72 0 l 414 521 z "},"Ψ":{"ha":1356,"x_min":138,"x_max":1408,"o":"m 1320 629 q 1250 453 1296 526 q 1135 332 1204 380 q 977 257 1067 284 q 770 222 887 231 l 719 0 l 460 0 l 511 222 q 233 310 328 239 q 138 520 138 382 q 142 585 138 553 q 154 648 146 616 l 238 1010 l 496 1010 l 412 648 q 403 601 407 628 q 399 555 399 574 q 439 441 399 480 q 550 391 478 402 l 694 1010 l 952 1010 l 808 391 q 899 415 859 399 q 971 459 940 431 q 1026 527 1003 488 q 1062 629 1048 567 l 1150 1010 l 1408 1010 l 1320 629 z "},"Ω":{"ha":1172,"x_min":-53,"x_max":1151,"o":"m 1047 0 l 562 0 l 639 334 q 813 465 753 387 q 873 658 873 543 q 818 795 873 749 q 673 841 762 841 q 553 815 606 841 q 464 747 501 790 q 409 654 429 708 q 389 541 389 600 q 420 418 389 467 q 509 331 450 370 l 433 0 l -53 0 l -7 195 l 314 195 l 324 241 q 175 363 228 290 q 123 534 123 436 q 162 724 123 635 q 277 882 201 812 q 460 990 350 949 q 703 1031 570 1031 q 1029 940 907 1031 q 1151 690 1151 848 q 1055 418 1151 534 q 781 238 959 302 l 771 195 l 1093 195 l 1047 0 z "},"Ϊ":{"ha":758,"x_min":-5,"x_max":871,"o":"m 587 0 l -5 0 l 37 179 l 201 179 l 352 831 l 187 831 l 229 1010 l 820 1010 l 779 831 l 614 831 l 463 179 l 628 179 l 587 0 m 871 1308 l 828 1123 l 627 1123 l 669 1308 l 871 1308 m 507 1308 l 464 1123 l 262 1123 l 305 1308 l 507 1308 z "},"Ϋ":{"ha":1023,"x_min":152,"x_max":1163,"o":"m 1163 1010 l 648 391 l 558 0 l 296 0 l 384 378 l 152 1010 l 431 1010 l 560 614 l 862 1010 l 1163 1010 m 976 1308 l 933 1123 l 732 1123 l 774 1308 l 976 1308 m 612 1308 l 569 1123 l 368 1123 l 410 1308 l 612 1308 z "},"ά":{"ha":971,"x_min":47,"x_max":945,"o":"m 945 762 l 769 0 l 524 0 l 542 79 q 480 39 507 57 q 420 6 453 21 q 360 -14 390 -7 q 290 -21 331 -21 q 113 51 179 -21 q 47 255 47 123 q 82 459 47 363 q 178 627 117 554 q 319 741 237 699 q 489 783 400 783 q 597 770 551 783 q 692 731 644 758 l 701 762 l 945 762 m 659 584 q 607 601 639 593 q 551 609 575 609 q 446 583 492 609 q 366 513 399 557 q 320 411 337 473 q 303 291 303 349 q 335 191 303 222 q 432 160 367 160 q 502 175 465 160 q 572 210 539 190 l 659 584 m 767 1137 l 652 870 l 491 870 l 507 1137 l 767 1137 z "},"έ":{"ha":812,"x_min":28,"x_max":815,"o":"m 699 38 q 527 -8 607 5 q 359 -21 446 -21 q 235 -11 296 -21 q 125 25 174 -1 q 54 87 79 50 q 28 176 28 124 q 84 320 28 260 q 225 403 140 379 l 226 408 q 147 459 176 424 q 118 544 118 494 q 154 657 118 612 q 247 731 190 703 q 380 771 305 760 q 524 783 456 783 q 695 768 617 783 q 815 739 772 752 l 772 562 l 746 562 q 651 600 707 583 q 532 616 595 616 q 474 612 500 616 q 424 598 448 608 q 387 571 401 589 q 372 528 372 553 q 386 492 372 505 q 422 474 399 479 q 470 468 446 469 q 532 467 494 467 l 627 467 l 592 317 l 467 317 q 392 314 420 317 q 334 299 363 311 q 296 270 309 289 q 283 223 283 251 q 299 183 283 199 q 341 160 316 168 q 395 149 366 152 q 458 146 424 146 q 596 169 526 146 q 713 219 667 193 l 739 219 l 699 38 m 699 1137 l 585 870 l 423 870 l 439 1137 l 699 1137 z "},"ή":{"ha":989,"x_min":27,"x_max":919,"o":"m 919 589 q 916 545 919 569 q 907 496 913 522 l 729 -279 l 482 -279 l 633 378 q 648 450 643 420 q 654 505 654 479 q 631 570 654 549 q 549 590 609 590 q 482 577 520 590 q 397 540 444 565 l 273 0 l 27 0 l 203 762 l 448 762 l 429 677 q 566 755 504 727 q 703 783 628 783 q 862 733 805 783 q 919 589 919 684 m 775 1137 l 661 870 l 499 870 l 515 1137 l 775 1137 z "},"ί":{"ha":475,"x_min":27,"x_max":543,"o":"m 449 762 l 273 0 l 27 0 l 203 762 l 449 762 m 543 1137 l 429 870 l 267 870 l 283 1137 l 543 1137 z "},"ΰ":{"ha":981,"x_min":79,"x_max":1001,"o":"m 852 286 q 706 55 817 134 q 404 -24 594 -24 q 164 39 249 -24 q 79 211 79 101 q 81 253 79 232 q 90 300 84 275 l 196 762 l 443 762 l 351 365 q 339 304 345 339 q 334 251 334 269 q 358 170 334 198 q 443 142 383 142 q 517 156 487 142 q 566 197 547 169 q 597 262 585 224 q 622 356 610 300 l 715 762 l 962 762 l 852 286 m 776 1137 l 665 870 l 532 870 l 543 1137 l 776 1137 m 958 870 l 776 870 l 819 1055 l 1001 1055 l 958 870 m 422 870 l 239 870 l 282 1055 l 465 1055 l 422 870 z "},"β":{"ha":995,"x_min":-38,"x_max":983,"o":"m 510 -14 q 385 0 446 -14 q 281 40 323 15 l 208 -279 l -38 -279 l 193 724 q 349 971 229 882 q 671 1060 469 1060 q 898 998 812 1060 q 983 842 983 937 q 920 671 983 747 q 751 565 857 595 l 748 553 q 880 485 831 537 q 928 358 928 433 q 807 97 928 208 q 510 -14 686 -14 m 670 358 q 619 449 670 425 q 481 474 568 474 l 448 474 l 484 628 q 668 667 609 628 q 727 800 727 706 q 694 870 727 843 q 616 897 662 897 q 547 883 577 897 q 494 843 517 868 q 461 788 475 821 q 439 720 448 755 l 313 175 q 374 160 335 165 q 441 154 413 154 q 604 205 538 154 q 670 358 670 256 z "},"γ":{"ha":904,"x_min":96,"x_max":965,"o":"m 965 762 l 477 20 l 406 -279 l 160 -279 l 231 20 l 96 762 l 346 762 l 422 292 l 707 762 l 965 762 z "},"ζ":{"ha":763,"x_min":37,"x_max":899,"o":"m 404 1 l 304 1 q 105 62 174 1 q 37 231 37 122 q 78 420 37 330 q 192 595 119 511 q 353 750 262 677 q 533 884 445 823 l 534 890 l 220 890 l 259 1055 l 899 1055 l 863 905 q 669 783 768 853 q 490 635 570 713 q 358 471 410 557 q 307 302 307 385 q 317 243 307 273 q 360 195 328 214 q 418 178 382 182 q 501 174 454 174 l 547 174 q 664 129 620 174 q 709 11 709 83 q 666 -136 709 -60 q 550 -279 623 -212 l 342 -279 l 345 -263 q 446 -169 410 -214 q 482 -76 482 -123 q 461 -20 482 -42 q 404 1 441 1 z "},"η":{"ha":989,"x_min":27,"x_max":919,"o":"m 919 589 q 916 545 919 569 q 907 496 913 522 l 729 -279 l 482 -279 l 633 378 q 648 450 643 420 q 654 505 654 479 q 631 570 654 549 q 549 590 609 590 q 482 577 520 590 q 397 540 444 565 l 273 0 l 27 0 l 203 762 l 448 762 l 429 677 q 566 755 504 727 q 703 783 628 783 q 862 733 805 783 q 919 589 919 684 z "},"θ":{"ha":972,"x_min":79,"x_max":946,"o":"m 878 952 q 931 844 916 905 q 946 715 946 782 q 916 455 946 579 q 841 245 886 330 q 772 140 811 189 q 677 54 732 92 q 560 -3 621 16 q 412 -23 499 -23 q 251 5 315 -23 q 147 81 186 33 q 94 191 109 130 q 79 319 79 252 q 104 561 79 434 q 180 785 130 687 q 250 891 210 842 q 344 978 290 941 q 464 1036 396 1015 q 613 1057 532 1057 q 775 1029 711 1057 q 878 952 839 1001 m 709 722 q 679 852 709 810 q 583 895 649 895 q 509 877 543 895 q 448 823 475 860 q 396 720 418 781 q 363 609 375 659 l 699 609 q 706 664 704 635 q 709 722 709 693 m 667 445 l 330 445 q 322 382 326 420 q 318 313 318 345 q 346 182 318 224 q 443 140 374 140 q 519 159 483 140 q 581 217 555 178 q 632 323 610 260 q 667 445 654 387 z "},"ι":{"ha":475,"x_min":27,"x_max":449,"o":"m 449 762 l 273 0 l 27 0 l 203 762 l 449 762 z "},"κ":{"ha":932,"x_min":28,"x_max":943,"o":"m 844 0 l 587 0 l 437 336 l 330 240 l 273 0 l 28 0 l 203 762 l 449 762 l 372 425 l 602 653 q 709 733 652 703 q 838 763 766 763 q 893 762 859 763 q 943 762 928 762 l 895 551 l 883 551 q 863 554 876 553 q 833 555 850 555 q 765 538 795 555 q 711 497 734 521 l 641 429 l 844 0 z "},"λ":{"ha":904,"x_min":-58,"x_max":817,"o":"m 391 1055 l 647 1055 l 817 0 l 568 0 l 501 492 l 199 0 l -58 0 l 441 770 l 391 1055 z "},"μ":{"ha":999,"x_min":-38,"x_max":972,"o":"m 796 0 l 581 0 l 581 54 l 576 54 q 500 7 534 24 q 418 -10 465 -10 q 342 5 374 -10 q 283 49 310 20 l 208 -279 l -38 -279 l 203 762 l 448 762 l 323 222 q 383 187 351 197 q 452 178 416 178 q 527 188 486 178 q 602 222 567 199 l 727 762 l 972 762 l 796 0 z "},"ν":{"ha":901,"x_min":99,"x_max":962,"o":"m 962 762 l 492 0 l 214 0 l 99 762 l 351 762 l 406 237 l 700 762 l 962 762 z "},"ξ":{"ha":806,"x_min":33,"x_max":892,"o":"m 736 11 q 694 -135 736 -58 q 577 -279 652 -211 l 369 -279 l 372 -263 q 475 -166 440 -212 q 509 -76 509 -121 q 489 -20 509 -42 q 431 1 468 1 l 328 1 q 114 64 195 1 q 33 232 33 127 q 54 345 33 293 q 115 438 75 396 q 207 506 153 478 q 326 549 260 534 l 328 557 q 220 615 261 575 q 179 710 179 656 q 191 768 179 743 q 225 815 203 792 q 274 853 245 836 q 338 886 302 870 l 340 892 l 181 892 l 220 1055 l 892 1055 l 853 890 l 669 890 q 580 881 619 890 q 507 853 541 873 q 457 805 475 834 q 439 736 439 775 q 453 683 439 705 q 491 647 467 661 q 543 628 512 635 q 612 622 574 622 l 775 622 l 736 451 l 513 451 q 355 407 413 451 q 298 286 298 363 q 316 228 298 250 q 362 195 334 205 q 428 179 392 183 q 515 174 465 174 l 574 174 q 645 161 615 174 q 696 124 675 148 q 726 73 717 101 q 736 11 736 44 z "},"ο":{"ha":952,"x_min":50,"x_max":905,"o":"m 905 483 q 869 282 905 376 q 768 121 833 189 q 611 14 701 52 q 402 -24 522 -24 q 141 58 232 -24 q 50 283 50 139 q 84 476 50 385 q 184 637 118 568 q 343 746 249 706 q 553 785 437 785 q 815 705 724 785 q 905 483 905 625 m 588 233 q 635 337 619 281 q 651 474 651 393 q 621 582 651 544 q 524 619 590 619 q 433 594 472 619 q 364 523 394 569 q 320 417 336 480 q 304 288 304 354 q 339 176 304 210 q 434 142 374 142 q 519 166 478 142 q 588 233 559 191 z "},"ρ":{"ha":971,"x_min":-38,"x_max":927,"o":"m 927 487 q 896 307 927 398 q 808 146 865 216 q 657 23 739 60 q 490 -15 575 -15 q 368 2 423 -15 q 281 39 313 18 l 208 -279 l -38 -279 l 128 440 q 280 693 164 600 q 585 785 396 785 q 743 761 677 785 q 849 696 808 737 q 908 602 889 656 q 927 487 927 548 m 669 479 q 663 531 669 506 q 642 576 657 557 q 604 608 628 596 q 546 619 580 619 q 444 581 488 619 q 375 444 399 543 l 312 172 q 372 158 338 161 q 427 155 405 155 q 550 189 502 155 q 626 275 599 222 q 661 380 652 325 q 669 479 669 435 z "},"ς":{"ha":781,"x_min":50,"x_max":832,"o":"m 702 11 q 658 -138 702 -62 q 543 -279 614 -214 l 335 -279 l 338 -263 q 441 -165 408 -210 q 475 -76 475 -121 q 454 -20 475 -41 q 398 1 433 1 l 361 1 q 237 20 294 1 q 138 76 180 39 q 73 169 96 113 q 50 297 50 224 q 194 647 50 511 q 565 783 338 783 q 716 765 645 783 q 832 724 787 747 l 785 522 l 753 522 q 664 589 713 567 q 551 611 614 611 q 450 591 496 611 q 371 534 404 571 q 323 450 340 499 q 306 342 306 400 q 354 218 306 261 q 507 174 403 174 l 541 174 q 658 129 614 174 q 702 11 702 83 z "},"υ":{"ha":981,"x_min":79,"x_max":962,"o":"m 852 286 q 706 55 817 134 q 404 -24 594 -24 q 164 39 249 -24 q 79 211 79 101 q 81 253 79 232 q 90 300 84 275 l 196 762 l 443 762 l 351 365 q 339 304 345 339 q 334 251 334 269 q 358 170 334 198 q 443 142 383 142 q 517 156 487 142 q 566 197 547 169 q 597 262 585 224 q 622 356 610 300 l 715 762 l 962 762 l 852 286 z "},"χ":{"ha":882,"x_min":-160,"x_max":948,"o":"m 251 248 l 90 762 l 339 762 l 435 420 l 691 762 l 948 762 l 551 252 l 718 -279 l 469 -279 l 368 79 l 98 -279 l -160 -279 l 251 248 z "},"ψ":{"ha":1308,"x_min":87,"x_max":1291,"o":"m 1189 319 q 1123 175 1169 235 q 1009 75 1078 115 q 862 16 945 37 q 687 -13 779 -5 l 625 -279 l 378 -279 l 440 -13 q 301 12 366 -6 q 188 62 237 29 q 113 142 140 95 q 87 252 87 189 q 90 297 87 271 q 97 345 92 323 l 193 762 l 440 762 l 349 364 q 341 322 345 347 q 338 281 338 296 q 350 219 338 244 q 378 181 361 195 q 421 157 396 165 q 476 146 446 149 l 618 762 l 865 762 l 723 146 q 796 160 759 150 q 860 190 833 170 q 912 247 890 212 q 947 342 935 282 l 1044 762 l 1291 762 l 1189 319 z "},"ω":{"ha":1242,"x_min":47,"x_max":1190,"o":"m 1190 446 q 1166 286 1190 370 q 1095 135 1143 201 q 961 17 1038 56 q 787 -22 884 -22 q 661 5 717 -22 q 570 87 606 32 l 562 87 q 521 49 541 66 q 466 14 500 32 q 399 -13 430 -4 q 315 -22 368 -22 q 118 52 189 -22 q 47 252 47 126 q 65 390 47 322 q 119 523 83 457 q 202 645 154 587 q 315 762 251 703 l 580 762 l 576 746 q 369 522 444 649 q 294 268 294 394 q 299 221 294 241 q 314 182 303 201 q 339 153 324 163 q 376 143 354 143 q 421 149 399 143 q 454 161 444 155 l 548 568 l 792 568 l 698 161 q 725 149 707 154 q 773 143 742 143 q 850 174 817 143 q 903 248 883 205 q 933 341 922 291 q 943 434 943 391 q 911 604 943 526 q 817 746 878 682 l 820 762 l 1078 762 q 1160 611 1131 690 q 1190 446 1190 532 z "},"ϊ":{"ha":475,"x_min":27,"x_max":641,"o":"m 449 762 l 273 0 l 27 0 l 203 762 l 449 762 m 641 1055 l 598 870 l 410 870 l 453 1055 l 641 1055 m 330 1055 l 287 870 l 99 870 l 142 1055 l 330 1055 z "},"ϋ":{"ha":981,"x_min":79,"x_max":962,"o":"m 852 286 q 706 55 817 134 q 404 -24 594 -24 q 164 39 249 -24 q 79 211 79 101 q 81 253 79 232 q 90 300 84 275 l 196 762 l 443 762 l 351 365 q 339 304 345 339 q 334 251 334 269 q 358 170 334 198 q 443 142 383 142 q 517 156 487 142 q 566 197 547 169 q 597 262 585 224 q 622 356 610 300 l 715 762 l 962 762 l 852 286 m 919 1055 l 876 870 l 675 870 l 718 1055 l 919 1055 m 555 1055 l 512 870 l 311 870 l 353 1055 l 555 1055 z "},"ό":{"ha":952,"x_min":50,"x_max":905,"o":"m 905 483 q 869 282 905 376 q 768 121 833 189 q 611 14 701 52 q 402 -24 522 -24 q 141 58 232 -24 q 50 283 50 139 q 84 476 50 385 q 184 637 118 568 q 343 746 249 706 q 553 785 437 785 q 815 705 724 785 q 905 483 905 625 m 588 233 q 635 337 619 281 q 651 474 651 393 q 621 582 651 544 q 524 619 590 619 q 433 594 472 619 q 364 523 394 569 q 320 417 336 480 q 304 288 304 354 q 339 176 304 210 q 434 142 374 142 q 519 166 478 142 q 588 233 559 191 m 762 1137 l 648 870 l 486 870 l 502 1137 l 762 1137 z "},"ύ":{"ha":981,"x_min":79,"x_max":962,"o":"m 852 286 q 706 55 817 134 q 404 -24 594 -24 q 164 39 249 -24 q 79 211 79 101 q 81 253 79 232 q 90 300 84 275 l 196 762 l 443 762 l 351 365 q 339 304 345 339 q 334 251 334 269 q 358 170 334 198 q 443 142 383 142 q 517 156 487 142 q 566 197 547 169 q 597 262 585 224 q 622 356 610 300 l 715 762 l 962 762 l 852 286 m 789 1137 l 674 870 l 513 870 l 528 1137 l 789 1137 z "},"ώ":{"ha":1242,"x_min":47,"x_max":1190,"o":"m 1190 446 q 1166 286 1190 370 q 1095 135 1143 201 q 961 17 1038 56 q 787 -22 884 -22 q 661 5 717 -22 q 570 87 606 32 l 562 87 q 521 49 541 66 q 466 14 500 32 q 399 -13 430 -4 q 315 -22 368 -22 q 118 52 189 -22 q 47 252 47 126 q 65 390 47 322 q 119 523 83 457 q 202 645 154 587 q 315 762 251 703 l 580 762 l 576 746 q 369 522 444 649 q 294 268 294 394 q 299 221 294 241 q 314 182 303 201 q 339 153 324 163 q 376 143 354 143 q 421 149 399 143 q 454 161 444 155 l 548 568 l 792 568 l 698 161 q 725 149 707 154 q 773 143 742 143 q 850 174 817 143 q 903 248 883 205 q 933 341 922 291 q 943 434 943 391 q 911 604 943 526 q 817 746 878 682 l 820 762 l 1078 762 q 1160 611 1131 690 q 1190 446 1190 532 m 907 1137 l 793 870 l 631 870 l 647 1137 l 907 1137 z "},"Ё":{"ha":949,"x_min":40,"x_max":1005,"o":"m 1005 1010 l 961 819 l 490 819 l 448 638 l 885 638 l 840 446 l 403 446 l 344 191 l 815 191 l 772 0 l 40 0 l 273 1010 l 1005 1010 m 970 1308 l 927 1123 l 726 1123 l 768 1308 l 970 1308 m 606 1308 l 563 1123 l 361 1123 l 404 1308 l 606 1308 z "},"Ђ":{"ha":1265,"x_min":128,"x_max":1194,"o":"m 1194 388 q 1148 213 1194 295 q 1030 80 1103 130 q 892 17 964 35 q 726 0 821 0 l 647 0 l 691 191 l 720 191 q 814 204 775 191 q 875 240 852 218 q 907 290 897 262 q 918 350 918 318 q 911 388 918 371 q 890 418 905 405 q 845 440 874 432 q 772 449 815 449 l 597 449 l 494 0 l 233 0 l 422 814 l 128 814 l 173 1010 l 1042 1010 l 998 814 l 682 814 l 640 633 l 859 633 q 1109 571 1023 633 q 1194 388 1194 509 z "},"Ѓ":{"ha":885,"x_min":40,"x_max":1002,"o":"m 956 814 l 490 814 l 302 0 l 40 0 l 273 1010 l 1002 1010 l 956 814 m 996 1376 l 699 1123 l 526 1123 l 738 1390 l 996 1390 l 996 1376 z "},"Є":{"ha":1030,"x_min":80,"x_max":1082,"o":"m 337 433 q 335 411 336 421 q 335 393 335 400 q 401 222 335 283 q 583 161 467 161 q 754 193 670 161 q 924 287 838 224 l 951 287 l 899 58 q 699 -4 785 12 q 526 -20 612 -20 q 197 85 315 -20 q 80 376 80 190 q 127 636 80 516 q 262 846 174 756 q 465 980 345 931 q 719 1029 584 1029 q 932 1005 840 1029 q 1082 952 1025 981 l 1028 724 l 1000 724 q 856 821 926 793 q 713 848 787 848 q 517 789 608 848 q 383 621 426 730 l 830 621 l 788 433 l 337 433 z "},"Ѕ":{"ha":987,"x_min":5,"x_max":1014,"o":"m 411 -18 q 180 4 281 -18 q 5 60 79 26 l 57 302 l 85 302 q 250 203 155 238 q 452 168 344 168 q 616 198 564 168 q 668 285 668 229 q 660 321 668 306 q 627 351 651 336 q 560 381 602 366 q 450 414 517 395 q 318 458 376 435 q 218 515 259 482 q 155 591 176 548 q 134 695 134 635 q 268 938 134 847 q 634 1028 401 1028 q 845 1010 746 1028 q 1014 960 945 991 l 964 728 l 937 728 q 797 809 884 777 q 608 842 711 842 q 453 813 508 842 q 398 732 398 784 q 406 693 398 709 q 439 663 414 677 q 508 633 461 649 q 618 600 555 617 q 860 494 787 555 q 932 328 932 433 q 893 174 932 241 q 785 66 854 108 q 620 2 712 22 q 411 -18 528 -18 z "},"І":{"ha":758,"x_min":-5,"x_max":820,"o":"m 587 0 l -5 0 l 37 179 l 201 179 l 352 831 l 187 831 l 229 1010 l 820 1010 l 779 831 l 614 831 l 463 179 l 628 179 l 587 0 z "},"Ї":{"ha":758,"x_min":-5,"x_max":871,"o":"m 587 0 l -5 0 l 37 179 l 201 179 l 352 831 l 187 831 l 229 1010 l 820 1010 l 779 831 l 614 831 l 463 179 l 628 179 l 587 0 m 871 1308 l 828 1123 l 627 1123 l 669 1308 l 871 1308 m 507 1308 l 464 1123 l 262 1123 l 305 1308 l 507 1308 z "},"Ј":{"ha":771,"x_min":-58,"x_max":801,"o":"m 644 333 q 489 70 603 155 q 177 -16 375 -16 q 46 -11 104 -16 q -58 4 -12 -5 l -10 213 l 14 213 q 76 191 43 201 q 164 180 109 180 q 319 229 268 180 q 404 422 371 279 l 496 824 l 266 824 l 309 1010 l 801 1010 l 644 333 z "},"Љ":{"ha":1697,"x_min":-65,"x_max":1632,"o":"m 1355 350 q 1349 388 1355 371 q 1327 418 1342 405 q 1282 440 1312 432 q 1209 449 1253 449 l 1050 449 l 989 185 l 1156 185 q 1249 199 1210 185 q 1310 237 1288 214 q 1344 289 1333 260 q 1355 350 1355 317 m 1632 388 q 1586 213 1632 295 q 1468 80 1540 130 q 1330 17 1401 35 q 1164 0 1259 0 l 686 0 l 875 818 l 597 818 q 568 711 579 752 q 541 609 557 669 q 466 372 500 463 q 398 222 431 281 q 332 125 364 162 q 263 63 299 89 q 162 10 214 27 q 54 -7 110 -7 q -18 -4 20 -7 q -65 0 -55 -1 l -13 226 l -3 226 q 11 224 3 225 q 28 222 18 222 q 76 228 46 222 q 124 248 106 233 q 225 391 188 298 q 311 665 262 484 q 350 820 328 732 q 395 1010 371 909 l 1180 1010 l 1093 633 l 1297 633 q 1546 571 1461 633 q 1632 388 1632 509 z "},"Њ":{"ha":1687,"x_min":40,"x_max":1621,"o":"m 1344 350 q 1338 388 1344 371 q 1316 418 1331 405 q 1271 440 1301 432 q 1198 449 1242 449 l 1039 449 l 978 185 l 1145 185 q 1238 199 1199 185 q 1299 237 1277 214 q 1333 289 1322 260 q 1344 350 1344 317 m 1621 388 q 1575 213 1621 295 q 1457 80 1529 130 q 1319 17 1390 35 q 1153 0 1248 0 l 675 0 l 778 447 l 405 447 l 302 0 l 40 0 l 273 1010 l 535 1010 l 448 631 l 821 631 l 908 1010 l 1169 1010 l 1082 633 l 1286 633 q 1535 571 1450 633 q 1621 388 1621 509 z "},"Ћ":{"ha":1300,"x_min":129,"x_max":1210,"o":"m 509 0 l 247 0 l 435 814 l 129 814 l 174 1010 l 1055 1010 l 1010 814 l 696 814 l 649 609 q 789 631 712 621 q 932 642 865 642 q 1135 586 1061 642 q 1210 425 1210 529 q 1207 382 1210 410 q 1197 319 1205 354 l 1124 0 l 861 0 l 909 212 q 922 276 916 243 q 928 332 928 309 q 885 424 928 398 q 752 450 841 450 q 676 446 714 450 q 610 437 638 441 l 509 0 z "},"Ќ":{"ha":1071,"x_min":40,"x_max":1157,"o":"m 994 0 l 707 0 l 479 410 l 397 410 l 302 0 l 40 0 l 273 1010 l 534 1010 l 439 596 q 534 621 500 599 q 641 731 569 642 q 683 785 659 753 q 729 844 708 817 q 809 930 770 896 q 884 982 848 964 q 958 1005 919 999 q 1055 1012 998 1012 q 1117 1011 1090 1012 q 1157 1010 1144 1010 l 1107 795 l 1039 795 q 989 788 1008 795 q 947 764 971 782 q 909 727 928 749 q 857 662 890 705 q 766 561 802 591 q 700 517 730 531 l 994 0 m 1036 1376 l 739 1123 l 565 1123 l 777 1390 l 1036 1390 l 1036 1376 z "},"Ў":{"ha":1023,"x_min":31,"x_max":1162,"o":"m 1162 1010 l 608 202 q 509 89 559 131 q 409 26 458 47 q 316 -1 360 5 q 229 -7 271 -7 q 116 -4 182 -7 q 31 0 51 -2 l 81 216 l 96 216 q 150 208 110 212 q 215 203 190 203 q 325 220 279 203 q 385 261 371 236 l 151 1010 l 419 1010 l 563 513 l 885 1010 l 1162 1010 m 1057 1343 q 921 1144 1032 1215 q 640 1073 810 1073 q 407 1129 488 1073 q 325 1291 325 1186 q 327 1318 325 1305 q 330 1343 328 1331 l 558 1343 q 554 1317 555 1329 q 553 1295 553 1304 q 578 1224 553 1246 q 665 1201 604 1201 q 777 1236 740 1201 q 829 1343 814 1271 l 1057 1343 z "},"Џ":{"ha":1163,"x_min":40,"x_max":1179,"o":"m 373 0 l 40 0 l 273 1010 l 534 1010 l 346 192 l 729 192 l 918 1010 l 1179 1010 l 947 0 l 614 0 l 559 -239 l 318 -239 l 373 0 z "},"А":{"ha":1078,"x_min":-63,"x_max":984,"o":"m 984 0 l 722 0 l 699 206 l 327 206 l 209 0 l -63 0 l 543 1010 l 844 1010 l 984 0 m 679 387 l 638 750 l 430 387 l 679 387 z "},"Б":{"ha":1053,"x_min":40,"x_max":1059,"o":"m 710 350 q 704 388 710 371 q 682 418 697 405 q 637 440 667 432 q 564 449 608 449 l 404 449 l 343 185 l 511 185 q 604 199 565 185 q 665 237 643 214 q 699 289 688 260 q 710 350 710 317 m 987 388 q 941 213 987 295 q 823 80 895 130 q 685 17 756 35 q 519 0 614 0 l 40 0 l 273 1010 l 1059 1010 l 1014 814 l 488 814 l 447 633 l 652 633 q 901 571 816 633 q 987 388 987 509 z "},"В":{"ha":1058,"x_min":40,"x_max":1017,"o":"m 1017 781 q 966 629 1017 689 q 812 538 916 569 l 810 533 q 935 465 892 509 q 977 338 977 420 q 847 90 977 179 q 477 0 716 0 l 40 0 l 273 1010 l 642 1010 q 920 950 824 1010 q 1017 781 1017 890 m 741 740 q 706 805 741 785 q 608 825 671 825 l 491 825 l 441 611 l 560 611 q 693 644 646 611 q 741 740 741 677 m 712 332 q 670 412 712 387 q 538 437 628 437 l 401 437 l 343 185 l 475 185 q 650 222 589 185 q 712 332 712 260 z "},"Г":{"ha":885,"x_min":40,"x_max":1002,"o":"m 956 814 l 490 814 l 302 0 l 40 0 l 273 1010 l 1002 1010 l 956 814 z "},"Д":{"ha":1168,"x_min":-115,"x_max":1166,"o":"m 979 -232 l 738 -232 l 792 3 l 180 3 l 126 -232 l -115 -232 l -16 192 l 60 192 q 259 553 164 337 q 411 1010 355 768 l 1166 1010 l 977 192 l 1077 192 l 979 -232 m 715 192 l 860 818 l 609 818 q 474 470 553 631 q 311 192 395 309 l 715 192 z "},"Е":{"ha":949,"x_min":40,"x_max":1005,"o":"m 1005 1010 l 961 819 l 490 819 l 448 638 l 885 638 l 840 446 l 403 446 l 344 191 l 815 191 l 772 0 l 40 0 l 273 1010 l 1005 1010 z "},"Ж":{"ha":1549,"x_min":-75,"x_max":1632,"o":"m 1461 0 l 1180 0 l 990 417 l 913 417 l 817 0 l 556 0 l 652 417 l 581 417 l 233 0 l -75 0 l 387 534 q 356 589 369 552 q 336 666 342 627 q 301 759 326 726 q 222 792 277 792 l 156 792 l 206 1010 q 243 1011 218 1010 q 299 1012 267 1012 q 456 970 400 1012 q 533 842 513 929 q 546 783 539 817 q 559 724 553 750 q 604 617 578 645 q 692 589 630 589 l 789 1010 l 1050 1010 l 952 589 q 1045 615 1010 589 q 1140 726 1080 640 q 1179 784 1156 749 q 1217 842 1202 819 q 1351 973 1282 935 q 1525 1012 1421 1012 q 1589 1011 1560 1012 q 1632 1010 1619 1010 l 1582 795 l 1528 795 q 1480 788 1501 795 q 1438 763 1459 781 q 1401 722 1421 750 q 1359 663 1380 694 q 1283 566 1316 598 q 1214 519 1251 534 l 1461 0 z "},"З":{"ha":981,"x_min":-15,"x_max":965,"o":"m 905 345 q 868 194 905 262 q 763 79 831 125 q 593 6 692 31 q 361 -20 493 -20 q 152 -1 252 -20 q -15 46 53 18 l 37 269 l 62 269 q 204 196 126 227 q 363 165 283 165 q 472 176 422 165 q 556 210 522 187 q 610 266 591 233 q 629 346 629 299 q 591 426 629 403 q 460 450 553 450 l 262 450 l 303 625 l 489 625 q 640 657 589 625 q 690 751 690 688 q 642 820 690 795 q 513 844 593 844 q 366 822 448 844 q 182 751 283 800 l 157 751 l 205 963 q 374 1007 269 985 q 589 1029 479 1029 q 867 971 768 1029 q 965 808 965 913 q 893 641 965 713 q 718 546 821 570 l 715 536 q 780 516 745 530 q 841 480 815 502 q 887 424 869 458 q 905 345 905 390 z "},"И":{"ha":1179,"x_min":40,"x_max":1196,"o":"m 962 0 l 707 0 l 865 679 l 288 0 l 40 0 l 273 1010 l 528 1010 l 385 395 l 917 1010 l 1196 1010 l 962 0 z "},"Й":{"ha":1179,"x_min":40,"x_max":1196,"o":"m 962 0 l 707 0 l 865 679 l 288 0 l 40 0 l 273 1010 l 528 1010 l 385 395 l 917 1010 l 1196 1010 l 962 0 m 1141 1343 q 1005 1144 1116 1215 q 724 1073 894 1073 q 491 1129 572 1073 q 409 1291 409 1186 q 411 1318 409 1305 q 414 1343 412 1331 l 642 1343 q 638 1317 640 1329 q 637 1295 637 1304 q 663 1224 637 1246 q 749 1201 688 1201 q 861 1236 824 1201 q 913 1343 899 1271 l 1141 1343 z "},"К":{"ha":1071,"x_min":40,"x_max":1157,"o":"m 994 0 l 707 0 l 479 410 l 397 410 l 302 0 l 40 0 l 273 1010 l 534 1010 l 439 596 q 534 621 500 599 q 641 731 569 642 q 683 785 659 753 q 729 844 708 817 q 809 930 770 896 q 884 982 848 964 q 958 1005 919 999 q 1055 1012 998 1012 q 1117 1011 1090 1012 q 1157 1010 1144 1010 l 1107 795 l 1039 795 q 989 788 1008 795 q 947 764 971 782 q 909 727 928 749 q 857 662 890 705 q 766 561 802 591 q 700 517 730 531 l 994 0 z "},"Л":{"ha":1174,"x_min":-65,"x_max":1191,"o":"m 884 818 l 597 818 q 568 711 579 752 q 541 609 557 669 q 466 372 500 463 q 398 222 431 281 q 332 125 364 162 q 263 63 299 89 q 162 10 214 27 q 54 -7 110 -7 q -18 -4 20 -7 q -65 0 -55 -1 l -13 226 l -3 226 q 11 224 3 225 q 28 222 18 222 q 76 228 46 222 q 124 248 106 233 q 225 391 188 298 q 311 665 262 484 q 350 820 328 732 q 395 1010 371 909 l 1191 1010 l 958 0 l 696 0 l 884 818 z "},"М":{"ha":1316,"x_min":40,"x_max":1333,"o":"m 1100 0 l 840 0 l 992 661 l 715 237 l 535 237 l 446 688 l 287 0 l 40 0 l 273 1010 l 572 1010 l 683 503 l 1026 1010 l 1333 1010 l 1100 0 z "},"Н":{"ha":1163,"x_min":40,"x_max":1180,"o":"m 1180 1010 l 947 0 l 685 0 l 788 446 l 405 446 l 302 0 l 40 0 l 273 1010 l 535 1010 l 449 638 l 832 638 l 918 1010 l 1180 1010 z "},"О":{"ha":1181,"x_min":80,"x_max":1158,"o":"m 1158 634 q 1116 390 1158 510 q 994 180 1074 270 q 789 31 906 83 q 521 -21 673 -21 q 197 86 314 -21 q 80 380 80 193 q 125 630 80 511 q 253 839 170 749 q 454 979 334 926 q 716 1031 574 1031 q 1041 924 924 1031 q 1158 634 1158 817 m 785 290 q 858 430 831 350 q 884 613 884 509 q 832 783 884 722 q 684 844 780 844 q 563 815 621 844 q 458 728 506 787 q 382 588 411 671 q 354 399 354 504 q 407 224 354 283 q 555 165 460 165 q 680 198 620 165 q 785 290 741 230 z "},"П":{"ha":1163,"x_min":40,"x_max":1180,"o":"m 1180 1010 l 947 0 l 685 0 l 873 818 l 490 818 l 302 0 l 40 0 l 273 1010 l 1180 1010 z "},"Р":{"ha":1018,"x_min":40,"x_max":1044,"o":"m 1044 730 q 895 439 1044 550 q 477 329 745 329 l 378 329 l 302 0 l 40 0 l 273 1010 l 636 1010 q 809 996 735 1010 q 936 949 882 983 q 1017 863 989 916 q 1044 730 1044 810 m 766 705 q 724 793 766 764 q 597 821 681 821 l 492 821 l 422 519 l 515 519 q 700 567 634 519 q 766 705 766 616 z "},"С":{"ha":1005,"x_min":80,"x_max":1069,"o":"m 507 -20 q 191 81 302 -20 q 80 370 80 182 q 129 639 80 518 q 264 848 178 760 q 466 981 349 933 q 713 1029 584 1029 q 907 1008 818 1029 q 1069 945 997 987 l 1009 701 l 979 701 q 851 802 915 770 q 701 835 787 835 q 452 713 550 835 q 354 404 354 592 q 408 229 354 283 q 567 175 463 175 q 743 213 661 175 q 898 309 825 250 l 925 309 l 866 67 q 795 38 836 55 q 717 9 754 20 q 626 -12 668 -5 q 507 -20 583 -20 z "},"Т":{"ha":947,"x_min":129,"x_max":1065,"o":"m 1020 814 l 705 814 l 517 0 l 256 0 l 444 814 l 129 814 l 174 1010 l 1065 1010 l 1020 814 z "},"У":{"ha":1023,"x_min":31,"x_max":1162,"o":"m 1162 1010 l 608 202 q 509 89 559 131 q 409 26 458 47 q 316 -1 360 5 q 229 -7 271 -7 q 116 -4 182 -7 q 31 0 51 -2 l 81 216 l 96 216 q 150 208 110 212 q 215 203 190 203 q 325 220 279 203 q 385 261 371 236 l 151 1010 l 419 1010 l 563 513 l 885 1010 l 1162 1010 z "},"Ф":{"ha":1322,"x_min":81,"x_max":1299,"o":"m 1299 587 q 1259 390 1299 477 q 1143 242 1218 303 q 963 145 1067 180 q 726 102 859 109 l 700 -9 l 441 -9 l 467 103 q 307 136 378 111 q 185 203 236 161 q 109 302 136 244 q 81 432 81 361 q 121 627 81 540 q 237 777 161 714 q 420 875 313 840 q 655 918 528 910 l 679 1021 l 938 1021 l 913 916 q 1196 817 1092 900 q 1299 587 1299 734 m 617 752 q 419 656 487 736 q 352 450 352 575 q 387 331 352 378 q 505 268 422 283 l 617 752 m 1029 570 q 994 687 1029 640 q 876 751 960 734 l 764 267 q 961 362 892 283 q 1029 570 1029 442 z "},"Х":{"ha":1061,"x_min":-72,"x_max":1184,"o":"m 414 521 l 169 1010 l 452 1010 l 601 692 l 896 1010 l 1184 1010 l 709 507 l 956 0 l 672 0 l 521 336 l 216 0 l -72 0 l 414 521 z "},"Ц":{"ha":1180,"x_min":40,"x_max":1177,"o":"m 804 0 l 40 0 l 273 1010 l 534 1010 l 346 192 l 727 192 l 916 1010 l 1177 1010 l 989 192 l 1088 192 l 991 -232 l 750 -232 l 804 0 z "}}}
